G75*
%MOIN*%
%OFA0B0*%
%FSLAX25Y25*%
%IPPOS*%
%LPD*%
%AMOC8*
5,1,8,0,0,1.08239X$1,22.5*
%
%ADD10C,0.06400*%
%ADD11C,0.10000*%
%ADD12C,0.08858*%
%ADD13C,0.01000*%
%ADD14C,0.04756*%
%ADD15C,0.04400*%
D10*
X0018600Y0179954D02*
X0025000Y0179954D01*
X0025000Y0189954D02*
X0018600Y0189954D01*
X0036800Y0266754D02*
X0036800Y0273154D01*
X0046800Y0273154D02*
X0046800Y0266754D01*
D11*
X0126406Y0279324D03*
X0122194Y0025583D03*
D12*
X0131643Y0045269D03*
X0142272Y0045269D03*
X0112745Y0045269D03*
X0102115Y0045269D03*
X0106328Y0259639D03*
X0116957Y0259639D03*
X0135855Y0259639D03*
X0146485Y0259639D03*
D13*
X0011300Y0122454D02*
X0011300Y0034726D01*
X0012669Y0036095D01*
X0015132Y0037517D01*
X0017878Y0038253D01*
X0020722Y0038253D01*
X0023468Y0037517D01*
X0025931Y0036095D01*
X0027942Y0034084D01*
X0029363Y0031622D01*
X0030099Y0028875D01*
X0030099Y0026032D01*
X0029363Y0023285D01*
X0027942Y0020823D01*
X0026572Y0019454D01*
X0098099Y0019454D01*
X0096191Y0021362D01*
X0095056Y0024101D01*
X0095056Y0027066D01*
X0096191Y0029805D01*
X0098287Y0031902D01*
X0101026Y0033036D01*
X0103991Y0033036D01*
X0106730Y0031902D01*
X0108827Y0029805D01*
X0109961Y0027066D01*
X0109961Y0024101D01*
X0108827Y0021362D01*
X0106919Y0019454D01*
X0120007Y0019454D01*
X0119313Y0019741D01*
X0118575Y0020167D01*
X0117899Y0020686D01*
X0117296Y0021289D01*
X0116778Y0021965D01*
X0116352Y0022702D01*
X0116025Y0023490D01*
X0115805Y0024313D01*
X0115703Y0025083D01*
X0121694Y0025083D01*
X0121694Y0026083D01*
X0115703Y0026083D01*
X0115805Y0026854D01*
X0116025Y0027677D01*
X0116352Y0028465D01*
X0116778Y0029202D01*
X0117296Y0029878D01*
X0117899Y0030481D01*
X0118575Y0031000D01*
X0119313Y0031426D01*
X0120100Y0031752D01*
X0120923Y0031972D01*
X0121694Y0032074D01*
X0121694Y0026084D01*
X0122694Y0026084D01*
X0122694Y0032074D01*
X0123465Y0031972D01*
X0124288Y0031752D01*
X0125075Y0031426D01*
X0125813Y0031000D01*
X0126489Y0030481D01*
X0127091Y0029878D01*
X0127610Y0029202D01*
X0128036Y0028465D01*
X0128362Y0027677D01*
X0128582Y0026854D01*
X0128684Y0026083D01*
X0122694Y0026083D01*
X0122694Y0025083D01*
X0128684Y0025083D01*
X0128582Y0024313D01*
X0128362Y0023490D01*
X0128036Y0022702D01*
X0127610Y0021965D01*
X0127091Y0021289D01*
X0126489Y0020686D01*
X0125813Y0020167D01*
X0125075Y0019741D01*
X0124380Y0019454D01*
X0137469Y0019454D01*
X0135561Y0021362D01*
X0134426Y0024101D01*
X0134426Y0027066D01*
X0135561Y0029805D01*
X0137657Y0031902D01*
X0140396Y0033036D01*
X0143361Y0033036D01*
X0146100Y0031902D01*
X0148197Y0029805D01*
X0149331Y0027066D01*
X0149331Y0024101D01*
X0148197Y0021362D01*
X0146289Y0019454D01*
X0162028Y0019454D01*
X0160658Y0020823D01*
X0159237Y0023285D01*
X0158501Y0026032D01*
X0158501Y0028875D01*
X0159237Y0031622D01*
X0160658Y0034084D01*
X0162669Y0036095D01*
X0165132Y0037517D01*
X0167878Y0038253D01*
X0170722Y0038253D01*
X0173468Y0037517D01*
X0175931Y0036095D01*
X0176001Y0036025D01*
X0176001Y0122454D01*
X0011300Y0122454D01*
X0011300Y0121794D02*
X0176001Y0121794D01*
X0176001Y0120796D02*
X0011300Y0120796D01*
X0011300Y0119797D02*
X0176001Y0119797D01*
X0176001Y0118799D02*
X0011300Y0118799D01*
X0011300Y0117800D02*
X0176001Y0117800D01*
X0176001Y0116802D02*
X0011300Y0116802D01*
X0011300Y0115803D02*
X0176001Y0115803D01*
X0176001Y0114805D02*
X0011300Y0114805D01*
X0011300Y0113806D02*
X0176001Y0113806D01*
X0176001Y0112808D02*
X0011300Y0112808D01*
X0011300Y0111809D02*
X0176001Y0111809D01*
X0176001Y0110811D02*
X0011300Y0110811D01*
X0011300Y0109812D02*
X0176001Y0109812D01*
X0176001Y0108814D02*
X0011300Y0108814D01*
X0011300Y0107815D02*
X0176001Y0107815D01*
X0176001Y0106817D02*
X0011300Y0106817D01*
X0011300Y0105818D02*
X0176001Y0105818D01*
X0176001Y0104820D02*
X0011300Y0104820D01*
X0011300Y0103821D02*
X0176001Y0103821D01*
X0176001Y0102823D02*
X0011300Y0102823D01*
X0011300Y0101824D02*
X0176001Y0101824D01*
X0176001Y0100826D02*
X0011300Y0100826D01*
X0011300Y0099827D02*
X0176001Y0099827D01*
X0176001Y0098828D02*
X0011300Y0098828D01*
X0011300Y0097830D02*
X0176001Y0097830D01*
X0176001Y0096831D02*
X0011300Y0096831D01*
X0011300Y0095833D02*
X0176001Y0095833D01*
X0176001Y0094834D02*
X0011300Y0094834D01*
X0011300Y0093836D02*
X0176001Y0093836D01*
X0176001Y0092837D02*
X0011300Y0092837D01*
X0011300Y0091839D02*
X0176001Y0091839D01*
X0176001Y0090840D02*
X0011300Y0090840D01*
X0011300Y0089842D02*
X0176001Y0089842D01*
X0176001Y0088843D02*
X0011300Y0088843D01*
X0011300Y0087845D02*
X0176001Y0087845D01*
X0176001Y0086846D02*
X0011300Y0086846D01*
X0011300Y0085848D02*
X0176001Y0085848D01*
X0176001Y0084849D02*
X0011300Y0084849D01*
X0011300Y0083851D02*
X0176001Y0083851D01*
X0176001Y0082852D02*
X0011300Y0082852D01*
X0011300Y0081854D02*
X0176001Y0081854D01*
X0176001Y0080855D02*
X0011300Y0080855D01*
X0011300Y0079857D02*
X0176001Y0079857D01*
X0176001Y0078858D02*
X0011300Y0078858D01*
X0011300Y0077860D02*
X0176001Y0077860D01*
X0176001Y0076861D02*
X0011300Y0076861D01*
X0011300Y0075863D02*
X0176001Y0075863D01*
X0176001Y0074864D02*
X0011300Y0074864D01*
X0011300Y0073866D02*
X0176001Y0073866D01*
X0176001Y0072867D02*
X0011300Y0072867D01*
X0011300Y0071869D02*
X0176001Y0071869D01*
X0176001Y0070870D02*
X0011300Y0070870D01*
X0011300Y0069872D02*
X0176001Y0069872D01*
X0176001Y0068873D02*
X0011300Y0068873D01*
X0011300Y0067875D02*
X0176001Y0067875D01*
X0176001Y0066876D02*
X0011300Y0066876D01*
X0011300Y0065878D02*
X0176001Y0065878D01*
X0176001Y0064879D02*
X0011300Y0064879D01*
X0011300Y0063881D02*
X0176001Y0063881D01*
X0176001Y0062882D02*
X0011300Y0062882D01*
X0011300Y0061884D02*
X0176001Y0061884D01*
X0176001Y0060885D02*
X0011300Y0060885D01*
X0011300Y0059887D02*
X0176001Y0059887D01*
X0176001Y0058888D02*
X0011300Y0058888D01*
X0011300Y0057890D02*
X0176001Y0057890D01*
X0176001Y0056891D02*
X0011300Y0056891D01*
X0011300Y0055893D02*
X0176001Y0055893D01*
X0176001Y0054894D02*
X0011300Y0054894D01*
X0011300Y0053895D02*
X0176001Y0053895D01*
X0176001Y0052897D02*
X0011300Y0052897D01*
X0011300Y0051898D02*
X0118725Y0051898D01*
X0117972Y0051587D02*
X0116533Y0050148D01*
X0116217Y0050465D01*
X0113964Y0051398D01*
X0111526Y0051398D01*
X0109273Y0050465D01*
X0107549Y0048740D01*
X0107430Y0048453D01*
X0107311Y0048740D01*
X0105587Y0050465D01*
X0103334Y0051398D01*
X0100896Y0051398D01*
X0098643Y0050465D01*
X0096919Y0048740D01*
X0095986Y0046488D01*
X0095986Y0044049D01*
X0096919Y0041797D01*
X0098643Y0040072D01*
X0100896Y0039139D01*
X0103334Y0039139D01*
X0105587Y0040072D01*
X0107311Y0041797D01*
X0107430Y0042084D01*
X0107549Y0041797D01*
X0109273Y0040072D01*
X0111526Y0039139D01*
X0113964Y0039139D01*
X0116217Y0040072D01*
X0116533Y0040389D01*
X0117972Y0038950D01*
X0120711Y0037816D01*
X0123676Y0037816D01*
X0126415Y0038950D01*
X0127854Y0040389D01*
X0128171Y0040072D01*
X0130423Y0039139D01*
X0132862Y0039139D01*
X0135114Y0040072D01*
X0136839Y0041797D01*
X0136957Y0042084D01*
X0137076Y0041797D01*
X0138801Y0040072D01*
X0141053Y0039139D01*
X0143492Y0039139D01*
X0145744Y0040072D01*
X0147468Y0041797D01*
X0148402Y0044049D01*
X0148402Y0046488D01*
X0147468Y0048740D01*
X0145744Y0050465D01*
X0143492Y0051398D01*
X0141053Y0051398D01*
X0138801Y0050465D01*
X0137076Y0048740D01*
X0136957Y0048453D01*
X0136839Y0048740D01*
X0135114Y0050465D01*
X0132862Y0051398D01*
X0130423Y0051398D01*
X0128171Y0050465D01*
X0127854Y0050148D01*
X0126415Y0051587D01*
X0123676Y0052721D01*
X0120711Y0052721D01*
X0117972Y0051587D01*
X0117285Y0050900D02*
X0115166Y0050900D01*
X0110324Y0050900D02*
X0104536Y0050900D01*
X0106150Y0049901D02*
X0108710Y0049901D01*
X0107711Y0048903D02*
X0107148Y0048903D01*
X0107359Y0041913D02*
X0107501Y0041913D01*
X0108431Y0040915D02*
X0106429Y0040915D01*
X0105210Y0039916D02*
X0109650Y0039916D01*
X0115840Y0039916D02*
X0117006Y0039916D01*
X0118051Y0038918D02*
X0081416Y0038918D01*
X0081002Y0039916D02*
X0099020Y0039916D01*
X0097801Y0040915D02*
X0080085Y0040915D01*
X0080945Y0040055D02*
X0079126Y0041874D01*
X0076748Y0042859D01*
X0074175Y0042859D01*
X0071797Y0041874D01*
X0069978Y0040055D01*
X0068993Y0037677D01*
X0068993Y0035104D01*
X0069978Y0032726D01*
X0071797Y0030907D01*
X0074175Y0029922D01*
X0076748Y0029922D01*
X0079126Y0030907D01*
X0080945Y0032726D01*
X0081930Y0035104D01*
X0081930Y0037677D01*
X0080945Y0040055D01*
X0081830Y0037919D02*
X0120461Y0037919D01*
X0123926Y0037919D02*
X0166634Y0037919D01*
X0164099Y0036921D02*
X0081930Y0036921D01*
X0081930Y0035922D02*
X0162496Y0035922D01*
X0161498Y0034924D02*
X0081855Y0034924D01*
X0081442Y0033925D02*
X0160567Y0033925D01*
X0159990Y0032927D02*
X0143625Y0032927D01*
X0146036Y0031928D02*
X0159414Y0031928D01*
X0159051Y0030930D02*
X0147072Y0030930D01*
X0148071Y0029931D02*
X0158784Y0029931D01*
X0158516Y0028933D02*
X0148558Y0028933D01*
X0148972Y0027934D02*
X0158501Y0027934D01*
X0158501Y0026936D02*
X0149331Y0026936D01*
X0149331Y0025937D02*
X0158526Y0025937D01*
X0158794Y0024939D02*
X0149331Y0024939D01*
X0149265Y0023940D02*
X0159061Y0023940D01*
X0159435Y0022942D02*
X0148851Y0022942D01*
X0148438Y0021943D02*
X0160012Y0021943D01*
X0160588Y0020945D02*
X0147780Y0020945D01*
X0146781Y0019946D02*
X0161535Y0019946D01*
X0171966Y0037919D02*
X0176001Y0037919D01*
X0176001Y0036921D02*
X0174501Y0036921D01*
X0176001Y0038918D02*
X0126337Y0038918D01*
X0127381Y0039916D02*
X0128548Y0039916D01*
X0134737Y0039916D02*
X0139178Y0039916D01*
X0137958Y0040915D02*
X0135957Y0040915D01*
X0136887Y0041913D02*
X0137028Y0041913D01*
X0137239Y0048903D02*
X0136676Y0048903D01*
X0135677Y0049901D02*
X0138237Y0049901D01*
X0139852Y0050900D02*
X0134063Y0050900D01*
X0129222Y0050900D02*
X0127102Y0050900D01*
X0125663Y0051898D02*
X0176001Y0051898D01*
X0176001Y0050900D02*
X0144693Y0050900D01*
X0146307Y0049901D02*
X0176001Y0049901D01*
X0176001Y0048903D02*
X0147306Y0048903D01*
X0147815Y0047904D02*
X0176001Y0047904D01*
X0176001Y0046906D02*
X0148228Y0046906D01*
X0148402Y0045907D02*
X0176001Y0045907D01*
X0176001Y0044909D02*
X0148402Y0044909D01*
X0148344Y0043910D02*
X0176001Y0043910D01*
X0176001Y0042912D02*
X0147930Y0042912D01*
X0147517Y0041913D02*
X0176001Y0041913D01*
X0176001Y0040915D02*
X0146587Y0040915D01*
X0145367Y0039916D02*
X0176001Y0039916D01*
X0140132Y0032927D02*
X0104255Y0032927D01*
X0106666Y0031928D02*
X0120759Y0031928D01*
X0121694Y0031928D02*
X0122694Y0031928D01*
X0123629Y0031928D02*
X0137721Y0031928D01*
X0136685Y0030930D02*
X0125904Y0030930D01*
X0127038Y0029931D02*
X0135687Y0029931D01*
X0135199Y0028933D02*
X0127766Y0028933D01*
X0128256Y0027934D02*
X0134786Y0027934D01*
X0134426Y0026936D02*
X0128561Y0026936D01*
X0128665Y0024939D02*
X0134426Y0024939D01*
X0134426Y0025937D02*
X0122694Y0025937D01*
X0122694Y0026936D02*
X0121694Y0026936D01*
X0121694Y0027934D02*
X0122694Y0027934D01*
X0122694Y0028933D02*
X0121694Y0028933D01*
X0121694Y0029931D02*
X0122694Y0029931D01*
X0122694Y0030930D02*
X0121694Y0030930D01*
X0118484Y0030930D02*
X0107702Y0030930D01*
X0108701Y0029931D02*
X0117349Y0029931D01*
X0116622Y0028933D02*
X0109188Y0028933D01*
X0109602Y0027934D02*
X0116132Y0027934D01*
X0115827Y0026936D02*
X0109961Y0026936D01*
X0109961Y0025937D02*
X0121694Y0025937D01*
X0117640Y0020945D02*
X0108410Y0020945D01*
X0109068Y0021943D02*
X0116794Y0021943D01*
X0116252Y0022942D02*
X0109481Y0022942D01*
X0109895Y0023940D02*
X0115905Y0023940D01*
X0115722Y0024939D02*
X0109961Y0024939D01*
X0107411Y0019946D02*
X0118958Y0019946D01*
X0125429Y0019946D02*
X0136976Y0019946D01*
X0135978Y0020945D02*
X0126747Y0020945D01*
X0127593Y0021943D02*
X0135320Y0021943D01*
X0134906Y0022942D02*
X0128135Y0022942D01*
X0128483Y0023940D02*
X0134493Y0023940D01*
X0100762Y0032927D02*
X0081028Y0032927D01*
X0080147Y0031928D02*
X0098351Y0031928D01*
X0097315Y0030930D02*
X0079148Y0030930D01*
X0076770Y0029931D02*
X0096317Y0029931D01*
X0095829Y0028933D02*
X0030084Y0028933D01*
X0030099Y0027934D02*
X0095416Y0027934D01*
X0095056Y0026936D02*
X0030099Y0026936D01*
X0030074Y0025937D02*
X0095056Y0025937D01*
X0095056Y0024939D02*
X0029806Y0024939D01*
X0029539Y0023940D02*
X0095123Y0023940D01*
X0095536Y0022942D02*
X0029165Y0022942D01*
X0028588Y0021943D02*
X0095950Y0021943D01*
X0096608Y0020945D02*
X0028012Y0020945D01*
X0027065Y0019946D02*
X0097606Y0019946D01*
X0096871Y0041913D02*
X0079031Y0041913D01*
X0071892Y0041913D02*
X0061708Y0041913D01*
X0061803Y0041874D02*
X0059425Y0042859D01*
X0056852Y0042859D01*
X0054474Y0041874D01*
X0052655Y0040055D01*
X0051670Y0037677D01*
X0051670Y0035104D01*
X0052655Y0032726D01*
X0054474Y0030907D01*
X0056852Y0029922D01*
X0059425Y0029922D01*
X0061803Y0030907D01*
X0063622Y0032726D01*
X0064607Y0035104D01*
X0064607Y0037677D01*
X0063622Y0040055D01*
X0061803Y0041874D01*
X0062762Y0040915D02*
X0070838Y0040915D01*
X0069920Y0039916D02*
X0063680Y0039916D01*
X0064093Y0038918D02*
X0069507Y0038918D01*
X0069093Y0037919D02*
X0064507Y0037919D01*
X0064607Y0036921D02*
X0068993Y0036921D01*
X0068993Y0035922D02*
X0064607Y0035922D01*
X0064532Y0034924D02*
X0069068Y0034924D01*
X0069481Y0033925D02*
X0064119Y0033925D01*
X0063705Y0032927D02*
X0069895Y0032927D01*
X0070776Y0031928D02*
X0062824Y0031928D01*
X0061826Y0030930D02*
X0071774Y0030930D01*
X0074153Y0029931D02*
X0059447Y0029931D01*
X0056830Y0029931D02*
X0029816Y0029931D01*
X0029549Y0030930D02*
X0054452Y0030930D01*
X0053453Y0031928D02*
X0029186Y0031928D01*
X0028610Y0032927D02*
X0052572Y0032927D01*
X0052158Y0033925D02*
X0028033Y0033925D01*
X0027102Y0034924D02*
X0051745Y0034924D01*
X0051670Y0035922D02*
X0026104Y0035922D01*
X0024501Y0036921D02*
X0051670Y0036921D01*
X0051770Y0037919D02*
X0021966Y0037919D01*
X0016634Y0037919D02*
X0011300Y0037919D01*
X0011300Y0036921D02*
X0014099Y0036921D01*
X0012496Y0035922D02*
X0011300Y0035922D01*
X0011300Y0034924D02*
X0011498Y0034924D01*
X0011300Y0038918D02*
X0052184Y0038918D01*
X0052598Y0039916D02*
X0011300Y0039916D01*
X0011300Y0040915D02*
X0053515Y0040915D01*
X0054569Y0041913D02*
X0011300Y0041913D01*
X0011300Y0042912D02*
X0096457Y0042912D01*
X0096043Y0043910D02*
X0011300Y0043910D01*
X0011300Y0044909D02*
X0095986Y0044909D01*
X0095986Y0045907D02*
X0011300Y0045907D01*
X0011300Y0046906D02*
X0096159Y0046906D01*
X0096573Y0047904D02*
X0011300Y0047904D01*
X0011300Y0048903D02*
X0097081Y0048903D01*
X0098080Y0049901D02*
X0011300Y0049901D01*
X0011300Y0050900D02*
X0099694Y0050900D01*
X0176001Y0157454D02*
X0011300Y0157454D01*
X0011300Y0270181D01*
X0012669Y0268812D01*
X0015132Y0267390D01*
X0017878Y0266654D01*
X0020722Y0266654D01*
X0023468Y0267390D01*
X0025931Y0268812D01*
X0027942Y0270823D01*
X0029363Y0273285D01*
X0030099Y0276032D01*
X0030099Y0278875D01*
X0029363Y0281622D01*
X0027942Y0284084D01*
X0026612Y0285414D01*
X0102272Y0285414D01*
X0100403Y0283545D01*
X0099269Y0280806D01*
X0099269Y0277841D01*
X0100403Y0275102D01*
X0102500Y0273005D01*
X0105239Y0271871D01*
X0108204Y0271871D01*
X0110943Y0273005D01*
X0113039Y0275102D01*
X0114174Y0277841D01*
X0114174Y0280806D01*
X0113039Y0283545D01*
X0111170Y0285414D01*
X0124125Y0285414D01*
X0123525Y0285166D01*
X0122787Y0284740D01*
X0122111Y0284221D01*
X0121509Y0283619D01*
X0120990Y0282943D01*
X0120564Y0282205D01*
X0120238Y0281417D01*
X0120018Y0280594D01*
X0119916Y0279824D01*
X0125906Y0279824D01*
X0125906Y0278824D01*
X0119916Y0278824D01*
X0120018Y0278053D01*
X0120238Y0277230D01*
X0120564Y0276443D01*
X0120990Y0275705D01*
X0121509Y0275029D01*
X0122111Y0274426D01*
X0122787Y0273907D01*
X0123525Y0273481D01*
X0124312Y0273155D01*
X0125135Y0272935D01*
X0125906Y0272833D01*
X0125906Y0278824D01*
X0126906Y0278824D01*
X0126906Y0279824D01*
X0132897Y0279824D01*
X0132795Y0280594D01*
X0132575Y0281417D01*
X0132248Y0282205D01*
X0131822Y0282943D01*
X0131304Y0283619D01*
X0130701Y0284221D01*
X0130025Y0284740D01*
X0129287Y0285166D01*
X0128688Y0285414D01*
X0141642Y0285414D01*
X0139773Y0283545D01*
X0138639Y0280806D01*
X0138639Y0277841D01*
X0139773Y0275102D01*
X0141870Y0273005D01*
X0144609Y0271871D01*
X0147574Y0271871D01*
X0150313Y0273005D01*
X0152409Y0275102D01*
X0153544Y0277841D01*
X0153544Y0280806D01*
X0152409Y0283545D01*
X0150541Y0285414D01*
X0161988Y0285414D01*
X0160658Y0284084D01*
X0159237Y0281622D01*
X0158501Y0278875D01*
X0158501Y0276032D01*
X0159237Y0273285D01*
X0160658Y0270823D01*
X0162669Y0268812D01*
X0165132Y0267390D01*
X0167878Y0266654D01*
X0170722Y0266654D01*
X0173468Y0267390D01*
X0175931Y0268812D01*
X0176001Y0268882D01*
X0176001Y0157454D01*
X0176001Y0157741D02*
X0011300Y0157741D01*
X0011300Y0158739D02*
X0176001Y0158739D01*
X0176001Y0159738D02*
X0011300Y0159738D01*
X0011300Y0160736D02*
X0176001Y0160736D01*
X0176001Y0161735D02*
X0011300Y0161735D01*
X0011300Y0162733D02*
X0176001Y0162733D01*
X0176001Y0163732D02*
X0011300Y0163732D01*
X0011300Y0164730D02*
X0176001Y0164730D01*
X0176001Y0165729D02*
X0011300Y0165729D01*
X0011300Y0166727D02*
X0176001Y0166727D01*
X0176001Y0167726D02*
X0011300Y0167726D01*
X0011300Y0168724D02*
X0176001Y0168724D01*
X0176001Y0169723D02*
X0011300Y0169723D01*
X0011300Y0170721D02*
X0176001Y0170721D01*
X0176001Y0171720D02*
X0011300Y0171720D01*
X0011300Y0172718D02*
X0176001Y0172718D01*
X0176001Y0173717D02*
X0011300Y0173717D01*
X0011300Y0174715D02*
X0176001Y0174715D01*
X0176001Y0175714D02*
X0027569Y0175714D01*
X0027776Y0175800D02*
X0029154Y0177178D01*
X0029900Y0178979D01*
X0029900Y0179842D01*
X0031100Y0181042D01*
X0032889Y0179254D01*
X0044890Y0179254D01*
X0044894Y0179244D01*
X0045991Y0178147D01*
X0047424Y0177554D01*
X0048976Y0177554D01*
X0050409Y0178147D01*
X0051506Y0179244D01*
X0052100Y0180678D01*
X0052100Y0182229D01*
X0052096Y0182238D01*
X0069811Y0199954D01*
X0075490Y0199954D01*
X0075494Y0199944D01*
X0076591Y0198847D01*
X0078024Y0198254D01*
X0079576Y0198254D01*
X0081009Y0198847D01*
X0082106Y0199944D01*
X0082700Y0201378D01*
X0082700Y0202929D01*
X0082106Y0204363D01*
X0081009Y0205460D01*
X0079576Y0206054D01*
X0078024Y0206054D01*
X0076591Y0205460D01*
X0075494Y0204363D01*
X0075490Y0204354D01*
X0069811Y0204354D01*
X0067989Y0204354D01*
X0048985Y0185350D01*
X0048976Y0185354D01*
X0047424Y0185354D01*
X0045991Y0184760D01*
X0044894Y0183663D01*
X0044890Y0183654D01*
X0034711Y0183654D01*
X0033300Y0185065D01*
X0032011Y0186354D01*
X0030189Y0186354D01*
X0027859Y0184024D01*
X0027776Y0184108D01*
X0025975Y0184854D01*
X0017625Y0184854D01*
X0015824Y0184108D01*
X0014446Y0182729D01*
X0013700Y0180928D01*
X0013700Y0178979D01*
X0014446Y0177178D01*
X0015824Y0175800D01*
X0017625Y0175054D01*
X0025975Y0175054D01*
X0027776Y0175800D01*
X0028688Y0176712D02*
X0176001Y0176712D01*
X0176001Y0177711D02*
X0049356Y0177711D01*
X0050971Y0178709D02*
X0176001Y0178709D01*
X0176001Y0179708D02*
X0051698Y0179708D01*
X0052100Y0180706D02*
X0176001Y0180706D01*
X0176001Y0181705D02*
X0052100Y0181705D01*
X0052561Y0182703D02*
X0176001Y0182703D01*
X0176001Y0183702D02*
X0053560Y0183702D01*
X0054558Y0184700D02*
X0176001Y0184700D01*
X0176001Y0185699D02*
X0055557Y0185699D01*
X0056555Y0186697D02*
X0176001Y0186697D01*
X0176001Y0187696D02*
X0057554Y0187696D01*
X0058552Y0188695D02*
X0176001Y0188695D01*
X0176001Y0189693D02*
X0059551Y0189693D01*
X0060549Y0190692D02*
X0176001Y0190692D01*
X0176001Y0191690D02*
X0061548Y0191690D01*
X0062546Y0192689D02*
X0176001Y0192689D01*
X0176001Y0193687D02*
X0063545Y0193687D01*
X0064543Y0194686D02*
X0176001Y0194686D01*
X0176001Y0195684D02*
X0065542Y0195684D01*
X0066540Y0196683D02*
X0176001Y0196683D01*
X0176001Y0197681D02*
X0067539Y0197681D01*
X0068537Y0198680D02*
X0076996Y0198680D01*
X0075760Y0199678D02*
X0069536Y0199678D01*
X0068900Y0202154D02*
X0048200Y0181454D01*
X0033800Y0181454D01*
X0031100Y0184154D01*
X0027500Y0180554D01*
X0022100Y0180554D01*
X0021800Y0179954D01*
X0017256Y0184700D02*
X0011300Y0184700D01*
X0011300Y0183702D02*
X0015419Y0183702D01*
X0014435Y0182703D02*
X0011300Y0182703D01*
X0011300Y0181705D02*
X0014022Y0181705D01*
X0013700Y0180706D02*
X0011300Y0180706D01*
X0011300Y0179708D02*
X0013700Y0179708D01*
X0013812Y0178709D02*
X0011300Y0178709D01*
X0011300Y0177711D02*
X0014225Y0177711D01*
X0014912Y0176712D02*
X0011300Y0176712D01*
X0011300Y0175714D02*
X0016031Y0175714D01*
X0017625Y0185054D02*
X0015824Y0185800D01*
X0014446Y0187178D01*
X0013700Y0188979D01*
X0013700Y0190928D01*
X0014446Y0192729D01*
X0015824Y0194108D01*
X0017625Y0194854D01*
X0025975Y0194854D01*
X0027776Y0194108D01*
X0029154Y0192729D01*
X0029900Y0190928D01*
X0029900Y0188979D01*
X0029154Y0187178D01*
X0027776Y0185800D01*
X0025975Y0185054D01*
X0017625Y0185054D01*
X0016067Y0185699D02*
X0011300Y0185699D01*
X0011300Y0186697D02*
X0014926Y0186697D01*
X0014231Y0187696D02*
X0011300Y0187696D01*
X0011300Y0188695D02*
X0013818Y0188695D01*
X0013700Y0189693D02*
X0011300Y0189693D01*
X0011300Y0190692D02*
X0013700Y0190692D01*
X0014016Y0191690D02*
X0011300Y0191690D01*
X0011300Y0192689D02*
X0014429Y0192689D01*
X0015404Y0193687D02*
X0011300Y0193687D01*
X0011300Y0194686D02*
X0017220Y0194686D01*
X0011300Y0195684D02*
X0059319Y0195684D01*
X0058321Y0194686D02*
X0026380Y0194686D01*
X0028196Y0193687D02*
X0057322Y0193687D01*
X0056324Y0192689D02*
X0029171Y0192689D01*
X0029584Y0191690D02*
X0055325Y0191690D01*
X0054327Y0190692D02*
X0029900Y0190692D01*
X0029900Y0189693D02*
X0053328Y0189693D01*
X0052330Y0188695D02*
X0029782Y0188695D01*
X0029369Y0187696D02*
X0051331Y0187696D01*
X0050333Y0186697D02*
X0028674Y0186697D01*
X0029534Y0185699D02*
X0027533Y0185699D01*
X0028536Y0184700D02*
X0026344Y0184700D01*
X0029900Y0179708D02*
X0032434Y0179708D01*
X0031436Y0180706D02*
X0030764Y0180706D01*
X0029788Y0178709D02*
X0045429Y0178709D01*
X0047044Y0177711D02*
X0029375Y0177711D01*
X0033664Y0184700D02*
X0045931Y0184700D01*
X0044933Y0183702D02*
X0034663Y0183702D01*
X0032666Y0185699D02*
X0049334Y0185699D01*
X0060318Y0196683D02*
X0011300Y0196683D01*
X0011300Y0197681D02*
X0061316Y0197681D01*
X0062315Y0198680D02*
X0011300Y0198680D01*
X0011300Y0199678D02*
X0063313Y0199678D01*
X0064312Y0200677D02*
X0011300Y0200677D01*
X0011300Y0201675D02*
X0065310Y0201675D01*
X0066309Y0202674D02*
X0011300Y0202674D01*
X0011300Y0203672D02*
X0067307Y0203672D01*
X0068900Y0202154D02*
X0078800Y0202154D01*
X0077096Y0205669D02*
X0011300Y0205669D01*
X0011300Y0204671D02*
X0075802Y0204671D01*
X0080504Y0205669D02*
X0176001Y0205669D01*
X0176001Y0204671D02*
X0081798Y0204671D01*
X0082392Y0203672D02*
X0176001Y0203672D01*
X0176001Y0202674D02*
X0082700Y0202674D01*
X0082700Y0201675D02*
X0176001Y0201675D01*
X0176001Y0200677D02*
X0082410Y0200677D01*
X0081840Y0199678D02*
X0176001Y0199678D01*
X0176001Y0198680D02*
X0080604Y0198680D01*
X0102856Y0254443D02*
X0105108Y0253509D01*
X0107547Y0253509D01*
X0109799Y0254443D01*
X0111524Y0256167D01*
X0111643Y0256454D01*
X0111761Y0256167D01*
X0113486Y0254443D01*
X0115738Y0253509D01*
X0118177Y0253509D01*
X0120429Y0254443D01*
X0120746Y0254759D01*
X0122185Y0253320D01*
X0124924Y0252186D01*
X0127889Y0252186D01*
X0130628Y0253320D01*
X0132067Y0254759D01*
X0132383Y0254443D01*
X0134636Y0253509D01*
X0137074Y0253509D01*
X0139327Y0254443D01*
X0141051Y0256167D01*
X0141170Y0256454D01*
X0141289Y0256167D01*
X0143013Y0254443D01*
X0145266Y0253509D01*
X0147704Y0253509D01*
X0149957Y0254443D01*
X0151681Y0256167D01*
X0152614Y0258419D01*
X0152614Y0260858D01*
X0151681Y0263110D01*
X0149957Y0264835D01*
X0147704Y0265768D01*
X0145266Y0265768D01*
X0143013Y0264835D01*
X0141289Y0263110D01*
X0141170Y0262823D01*
X0141051Y0263110D01*
X0139327Y0264835D01*
X0137074Y0265768D01*
X0134636Y0265768D01*
X0132383Y0264835D01*
X0132067Y0264518D01*
X0130628Y0265957D01*
X0127889Y0267091D01*
X0124924Y0267091D01*
X0122185Y0265957D01*
X0120746Y0264518D01*
X0120429Y0264835D01*
X0118177Y0265768D01*
X0115738Y0265768D01*
X0113486Y0264835D01*
X0111761Y0263110D01*
X0111643Y0262823D01*
X0111524Y0263110D01*
X0109799Y0264835D01*
X0107547Y0265768D01*
X0105108Y0265768D01*
X0102856Y0264835D01*
X0101132Y0263110D01*
X0100198Y0260858D01*
X0100198Y0258419D01*
X0101132Y0256167D01*
X0102856Y0254443D01*
X0102702Y0254596D02*
X0011300Y0254596D01*
X0011300Y0253598D02*
X0104895Y0253598D01*
X0107760Y0253598D02*
X0115525Y0253598D01*
X0113332Y0254596D02*
X0109953Y0254596D01*
X0110952Y0255595D02*
X0112333Y0255595D01*
X0118390Y0253598D02*
X0121907Y0253598D01*
X0120909Y0254596D02*
X0120583Y0254596D01*
X0123926Y0252599D02*
X0011300Y0252599D01*
X0011300Y0251601D02*
X0176001Y0251601D01*
X0176001Y0252599D02*
X0128887Y0252599D01*
X0130905Y0253598D02*
X0134423Y0253598D01*
X0132230Y0254596D02*
X0131904Y0254596D01*
X0137287Y0253598D02*
X0145053Y0253598D01*
X0142859Y0254596D02*
X0139481Y0254596D01*
X0140479Y0255595D02*
X0141861Y0255595D01*
X0147917Y0253598D02*
X0176001Y0253598D01*
X0176001Y0254596D02*
X0150111Y0254596D01*
X0151109Y0255595D02*
X0176001Y0255595D01*
X0176001Y0256593D02*
X0151858Y0256593D01*
X0152271Y0257592D02*
X0176001Y0257592D01*
X0176001Y0258590D02*
X0152614Y0258590D01*
X0152614Y0259589D02*
X0176001Y0259589D01*
X0176001Y0260587D02*
X0152614Y0260587D01*
X0152313Y0261586D02*
X0176001Y0261586D01*
X0176001Y0262584D02*
X0151899Y0262584D01*
X0151209Y0263583D02*
X0176001Y0263583D01*
X0176001Y0264581D02*
X0150210Y0264581D01*
X0148158Y0265580D02*
X0176001Y0265580D01*
X0176001Y0266578D02*
X0129127Y0266578D01*
X0131005Y0265580D02*
X0134183Y0265580D01*
X0132130Y0264581D02*
X0132003Y0264581D01*
X0137528Y0265580D02*
X0144812Y0265580D01*
X0142760Y0264581D02*
X0139580Y0264581D01*
X0140579Y0263583D02*
X0141761Y0263583D01*
X0142922Y0272569D02*
X0109890Y0272569D01*
X0111505Y0273568D02*
X0123375Y0273568D01*
X0121971Y0274566D02*
X0112504Y0274566D01*
X0113231Y0275565D02*
X0121097Y0275565D01*
X0120514Y0276564D02*
X0113645Y0276564D01*
X0114058Y0277562D02*
X0120149Y0277562D01*
X0119951Y0278561D02*
X0114174Y0278561D01*
X0114174Y0279559D02*
X0125906Y0279559D01*
X0125906Y0278561D02*
X0126906Y0278561D01*
X0126906Y0278824D02*
X0126906Y0272833D01*
X0127677Y0272935D01*
X0128500Y0273155D01*
X0129287Y0273481D01*
X0130025Y0273907D01*
X0130701Y0274426D01*
X0131304Y0275029D01*
X0131822Y0275705D01*
X0132248Y0276443D01*
X0132575Y0277230D01*
X0132795Y0278053D01*
X0132897Y0278824D01*
X0126906Y0278824D01*
X0126906Y0279559D02*
X0138639Y0279559D01*
X0138639Y0278561D02*
X0132862Y0278561D01*
X0132664Y0277562D02*
X0138754Y0277562D01*
X0139168Y0276564D02*
X0132299Y0276564D01*
X0131715Y0275565D02*
X0139581Y0275565D01*
X0140309Y0274566D02*
X0130842Y0274566D01*
X0129437Y0273568D02*
X0141307Y0273568D01*
X0138639Y0280558D02*
X0132800Y0280558D01*
X0132517Y0281556D02*
X0138949Y0281556D01*
X0139363Y0282555D02*
X0132046Y0282555D01*
X0131354Y0283553D02*
X0139781Y0283553D01*
X0140780Y0284552D02*
X0130270Y0284552D01*
X0126906Y0277562D02*
X0125906Y0277562D01*
X0125906Y0276564D02*
X0126906Y0276564D01*
X0126906Y0275565D02*
X0125906Y0275565D01*
X0125906Y0274566D02*
X0126906Y0274566D01*
X0126906Y0273568D02*
X0125906Y0273568D01*
X0123686Y0266578D02*
X0051500Y0266578D01*
X0051500Y0266384D02*
X0051500Y0269454D01*
X0047300Y0269454D01*
X0047300Y0270454D01*
X0046300Y0270454D01*
X0046300Y0277833D01*
X0045699Y0277738D01*
X0044996Y0277509D01*
X0044337Y0277173D01*
X0043738Y0276738D01*
X0043215Y0276215D01*
X0042780Y0275617D01*
X0042444Y0274958D01*
X0042216Y0274254D01*
X0042100Y0273523D01*
X0042100Y0270454D01*
X0046300Y0270454D01*
X0046300Y0269454D01*
X0042100Y0269454D01*
X0042100Y0266384D01*
X0042216Y0265653D01*
X0042444Y0264949D01*
X0042780Y0264290D01*
X0043215Y0263692D01*
X0043738Y0263169D01*
X0044337Y0262734D01*
X0044996Y0262398D01*
X0045699Y0262169D01*
X0046300Y0262074D01*
X0046300Y0269453D01*
X0047300Y0269453D01*
X0047300Y0262074D01*
X0047901Y0262169D01*
X0048604Y0262398D01*
X0049263Y0262734D01*
X0049862Y0263169D01*
X0050385Y0263692D01*
X0050820Y0264290D01*
X0051156Y0264949D01*
X0051384Y0265653D01*
X0051500Y0266384D01*
X0051361Y0265580D02*
X0104655Y0265580D01*
X0102602Y0264581D02*
X0050968Y0264581D01*
X0050276Y0263583D02*
X0101604Y0263583D01*
X0100914Y0262584D02*
X0048970Y0262584D01*
X0047300Y0262584D02*
X0046300Y0262584D01*
X0046300Y0263583D02*
X0047300Y0263583D01*
X0047300Y0264581D02*
X0046300Y0264581D01*
X0046300Y0265580D02*
X0047300Y0265580D01*
X0047300Y0266578D02*
X0046300Y0266578D01*
X0046300Y0267577D02*
X0047300Y0267577D01*
X0047300Y0268575D02*
X0046300Y0268575D01*
X0046300Y0269574D02*
X0041700Y0269574D01*
X0041700Y0270572D02*
X0042100Y0270572D01*
X0042100Y0271571D02*
X0041700Y0271571D01*
X0041700Y0272569D02*
X0042100Y0272569D01*
X0042107Y0273568D02*
X0041700Y0273568D01*
X0041700Y0274128D02*
X0040954Y0275929D01*
X0039576Y0277308D01*
X0037775Y0278054D01*
X0035825Y0278054D01*
X0034024Y0277308D01*
X0032646Y0275929D01*
X0031900Y0274128D01*
X0031900Y0265779D01*
X0032646Y0263978D01*
X0034024Y0262600D01*
X0035825Y0261854D01*
X0037775Y0261854D01*
X0039576Y0262600D01*
X0040954Y0263978D01*
X0041700Y0265779D01*
X0041700Y0274128D01*
X0041518Y0274566D02*
X0042317Y0274566D01*
X0042754Y0275565D02*
X0041105Y0275565D01*
X0040320Y0276564D02*
X0043563Y0276564D01*
X0045158Y0277562D02*
X0038961Y0277562D01*
X0034639Y0277562D02*
X0030099Y0277562D01*
X0030099Y0276564D02*
X0033280Y0276564D01*
X0032495Y0275565D02*
X0029974Y0275565D01*
X0029707Y0274566D02*
X0032082Y0274566D01*
X0031900Y0273568D02*
X0029439Y0273568D01*
X0028950Y0272569D02*
X0031900Y0272569D01*
X0031900Y0271571D02*
X0028374Y0271571D01*
X0027691Y0270572D02*
X0031900Y0270572D01*
X0031900Y0269574D02*
X0026693Y0269574D01*
X0025521Y0268575D02*
X0031900Y0268575D01*
X0031900Y0267577D02*
X0023792Y0267577D01*
X0031900Y0266578D02*
X0011300Y0266578D01*
X0011300Y0265580D02*
X0031982Y0265580D01*
X0032396Y0264581D02*
X0011300Y0264581D01*
X0011300Y0263583D02*
X0033041Y0263583D01*
X0034061Y0262584D02*
X0011300Y0262584D01*
X0011300Y0261586D02*
X0100500Y0261586D01*
X0100198Y0260587D02*
X0011300Y0260587D01*
X0011300Y0259589D02*
X0100198Y0259589D01*
X0100198Y0258590D02*
X0011300Y0258590D01*
X0011300Y0257592D02*
X0100541Y0257592D01*
X0100955Y0256593D02*
X0011300Y0256593D01*
X0011300Y0255595D02*
X0101703Y0255595D01*
X0108000Y0265580D02*
X0115285Y0265580D01*
X0113232Y0264581D02*
X0110053Y0264581D01*
X0111051Y0263583D02*
X0112234Y0263583D01*
X0118630Y0265580D02*
X0121808Y0265580D01*
X0120809Y0264581D02*
X0120683Y0264581D01*
X0120013Y0280558D02*
X0114174Y0280558D01*
X0113863Y0281556D02*
X0120295Y0281556D01*
X0120766Y0282555D02*
X0113450Y0282555D01*
X0113032Y0283553D02*
X0121459Y0283553D01*
X0122542Y0284552D02*
X0112033Y0284552D01*
X0103552Y0272569D02*
X0051500Y0272569D01*
X0051500Y0273523D02*
X0051384Y0274254D01*
X0051156Y0274958D01*
X0050820Y0275617D01*
X0050385Y0276215D01*
X0049862Y0276738D01*
X0049263Y0277173D01*
X0048604Y0277509D01*
X0047901Y0277738D01*
X0047300Y0277833D01*
X0047300Y0270454D01*
X0051500Y0270454D01*
X0051500Y0273523D01*
X0051493Y0273568D02*
X0101937Y0273568D01*
X0100939Y0274566D02*
X0051283Y0274566D01*
X0050846Y0275565D02*
X0100211Y0275565D01*
X0099798Y0276564D02*
X0050037Y0276564D01*
X0048442Y0277562D02*
X0099384Y0277562D01*
X0099269Y0278561D02*
X0030099Y0278561D01*
X0029916Y0279559D02*
X0099269Y0279559D01*
X0099269Y0280558D02*
X0029648Y0280558D01*
X0029381Y0281556D02*
X0099579Y0281556D01*
X0099993Y0282555D02*
X0028825Y0282555D01*
X0028248Y0283553D02*
X0100411Y0283553D01*
X0101409Y0284552D02*
X0027474Y0284552D01*
X0014808Y0267577D02*
X0011300Y0267577D01*
X0011300Y0268575D02*
X0013079Y0268575D01*
X0011907Y0269574D02*
X0011300Y0269574D01*
X0011300Y0250602D02*
X0176001Y0250602D01*
X0176001Y0249604D02*
X0011300Y0249604D01*
X0011300Y0248605D02*
X0176001Y0248605D01*
X0176001Y0247607D02*
X0011300Y0247607D01*
X0011300Y0246608D02*
X0176001Y0246608D01*
X0176001Y0245610D02*
X0011300Y0245610D01*
X0011300Y0244611D02*
X0176001Y0244611D01*
X0176001Y0243613D02*
X0011300Y0243613D01*
X0011300Y0242614D02*
X0176001Y0242614D01*
X0176001Y0241616D02*
X0011300Y0241616D01*
X0011300Y0240617D02*
X0176001Y0240617D01*
X0176001Y0239619D02*
X0011300Y0239619D01*
X0011300Y0238620D02*
X0176001Y0238620D01*
X0176001Y0237622D02*
X0011300Y0237622D01*
X0011300Y0236623D02*
X0176001Y0236623D01*
X0176001Y0235625D02*
X0011300Y0235625D01*
X0011300Y0234626D02*
X0176001Y0234626D01*
X0176001Y0233628D02*
X0011300Y0233628D01*
X0011300Y0232629D02*
X0176001Y0232629D01*
X0176001Y0231630D02*
X0011300Y0231630D01*
X0011300Y0230632D02*
X0176001Y0230632D01*
X0176001Y0229633D02*
X0011300Y0229633D01*
X0011300Y0228635D02*
X0176001Y0228635D01*
X0176001Y0227636D02*
X0011300Y0227636D01*
X0011300Y0226638D02*
X0176001Y0226638D01*
X0176001Y0225639D02*
X0011300Y0225639D01*
X0011300Y0224641D02*
X0176001Y0224641D01*
X0176001Y0223642D02*
X0011300Y0223642D01*
X0011300Y0222644D02*
X0176001Y0222644D01*
X0176001Y0221645D02*
X0011300Y0221645D01*
X0011300Y0220647D02*
X0176001Y0220647D01*
X0176001Y0219648D02*
X0011300Y0219648D01*
X0011300Y0218650D02*
X0176001Y0218650D01*
X0176001Y0217651D02*
X0011300Y0217651D01*
X0011300Y0216653D02*
X0176001Y0216653D01*
X0176001Y0215654D02*
X0011300Y0215654D01*
X0011300Y0214656D02*
X0176001Y0214656D01*
X0176001Y0213657D02*
X0011300Y0213657D01*
X0011300Y0212659D02*
X0176001Y0212659D01*
X0176001Y0211660D02*
X0011300Y0211660D01*
X0011300Y0210662D02*
X0176001Y0210662D01*
X0176001Y0209663D02*
X0011300Y0209663D01*
X0011300Y0208665D02*
X0176001Y0208665D01*
X0176001Y0207666D02*
X0011300Y0207666D01*
X0011300Y0206668D02*
X0176001Y0206668D01*
X0176001Y0267577D02*
X0173792Y0267577D01*
X0175521Y0268575D02*
X0176001Y0268575D01*
X0164808Y0267577D02*
X0051500Y0267577D01*
X0051500Y0268575D02*
X0163079Y0268575D01*
X0161907Y0269574D02*
X0047300Y0269574D01*
X0047300Y0270572D02*
X0046300Y0270572D01*
X0046300Y0271571D02*
X0047300Y0271571D01*
X0047300Y0272569D02*
X0046300Y0272569D01*
X0046300Y0273568D02*
X0047300Y0273568D01*
X0047300Y0274566D02*
X0046300Y0274566D01*
X0046300Y0275565D02*
X0047300Y0275565D01*
X0047300Y0276564D02*
X0046300Y0276564D01*
X0046300Y0277562D02*
X0047300Y0277562D01*
X0051500Y0271571D02*
X0160226Y0271571D01*
X0159650Y0272569D02*
X0149260Y0272569D01*
X0150875Y0273568D02*
X0159161Y0273568D01*
X0158893Y0274566D02*
X0151874Y0274566D01*
X0152601Y0275565D02*
X0158626Y0275565D01*
X0158501Y0276564D02*
X0153015Y0276564D01*
X0153428Y0277562D02*
X0158501Y0277562D01*
X0158501Y0278561D02*
X0153544Y0278561D01*
X0153544Y0279559D02*
X0158684Y0279559D01*
X0158952Y0280558D02*
X0153544Y0280558D01*
X0153233Y0281556D02*
X0159219Y0281556D01*
X0159775Y0282555D02*
X0152820Y0282555D01*
X0152402Y0283553D02*
X0160352Y0283553D01*
X0161126Y0284552D02*
X0151403Y0284552D01*
X0160909Y0270572D02*
X0051500Y0270572D01*
X0044630Y0262584D02*
X0039539Y0262584D01*
X0040559Y0263583D02*
X0043324Y0263583D01*
X0042632Y0264581D02*
X0041204Y0264581D01*
X0041618Y0265580D02*
X0042239Y0265580D01*
X0042100Y0266578D02*
X0041700Y0266578D01*
X0041700Y0267577D02*
X0042100Y0267577D01*
X0042100Y0268575D02*
X0041700Y0268575D01*
D14*
X0021800Y0262454D03*
X0071800Y0184954D03*
X0049300Y0107454D03*
X0024300Y0047454D03*
X0106800Y0072454D03*
X0156800Y0099954D03*
X0161800Y0044954D03*
X0121800Y0174954D03*
X0151800Y0244954D03*
X0166800Y0262454D03*
D15*
X0091800Y0189954D03*
X0078800Y0202154D03*
X0048200Y0181454D03*
M02*
