%
M48
M72
T01C0.0240
T02C0.0276
T03C0.0394
T04C0.0400
T05C0.0591
T06C0.1260
%
T01
X4820Y18145
X7880Y20215
X9180Y18995
X12430Y15995
T02
X12180Y17495
X15180Y24495
X16680Y26495
X7180Y18495
X2180Y26495
X5180Y9495
X8180Y5995
X8680Y9495
X11930Y8245
T03
X7546Y3639
X5814Y3639
T04
X2180Y17995
X2180Y18995
X3680Y26995
X4680Y26995
T05
X10633Y25964
X11696Y25964
X12641Y25964
X13586Y25964
X14649Y25964
X14609Y27932
X12641Y27932
X10672Y27932
X10211Y4527
X11274Y4527
X12219Y4527
X13164Y4527
X14227Y4527
X14188Y2558
X12219Y2558
X10251Y2558
T06
X1930Y2745
X16930Y2745
X16930Y27745
X1930Y27745
M30
