G75*
%MOIN*%
%OFA0B0*%
%FSLAX25Y25*%
%IPPOS*%
%LPD*%
%AMOC8*
5,1,8,0,0,1.08239X$1,22.5*
%
%ADD10C,0.13398*%
%ADD11C,0.07200*%
%ADD12C,0.04737*%
%ADD13C,0.10800*%
%ADD14C,0.09658*%
%ADD15C,0.06706*%
%ADD16C,0.05556*%
%ADD17C,0.05200*%
D10*
X0019300Y0027454D03*
X0169300Y0027454D03*
X0169300Y0277454D03*
X0019300Y0277454D03*
D11*
X0036800Y0273154D02*
X0036800Y0266754D01*
X0046800Y0266754D02*
X0046800Y0273154D01*
X0025000Y0189954D02*
X0018600Y0189954D01*
X0018600Y0179954D02*
X0025000Y0179954D01*
D12*
X0058139Y0036391D03*
X0075461Y0036391D03*
D13*
X0122194Y0025583D03*
X0126406Y0279324D03*
D14*
X0116957Y0259639D03*
X0106328Y0259639D03*
X0135855Y0259639D03*
X0146485Y0259639D03*
X0142272Y0045269D03*
X0131643Y0045269D03*
X0112745Y0045269D03*
X0102115Y0045269D03*
D15*
X0102509Y0025583D03*
X0122194Y0045269D03*
X0141879Y0025583D03*
X0126406Y0259639D03*
X0146091Y0279324D03*
X0106721Y0279324D03*
D16*
X0151800Y0244954D03*
X0166800Y0262454D03*
X0121800Y0174954D03*
X0156800Y0099954D03*
X0161800Y0044954D03*
X0106800Y0072454D03*
X0049300Y0107454D03*
X0024300Y0047454D03*
X0071800Y0184954D03*
X0021800Y0262454D03*
D17*
X0048200Y0181454D03*
X0078800Y0202154D03*
X0091800Y0189954D03*
M02*
