G75*
%MOIN*%
%OFA0B0*%
%FSLAX25Y25*%
%IPPOS*%
%LPD*%
%AMOC8*
5,1,8,0,0,1.08239X$1,22.5*
%
%ADD10C,0.00400*%
%ADD11C,0.05000*%
%ADD12C,0.00800*%
%ADD13R,0.16142X0.01181*%
%ADD14C,0.00600*%
%ADD15C,0.00500*%
%ADD16C,0.00200*%
%ADD17R,0.03400X0.03000*%
%ADD18C,0.00300*%
%ADD19R,0.01181X0.00591*%
%ADD20R,0.01181X0.01181*%
%ADD21C,0.02174*%
%ADD22R,0.05512X0.02559*%
%ADD23R,0.02559X0.05512*%
%ADD24C,0.01000*%
D10*
X0030933Y0019622D02*
X0034770Y0019622D01*
X0035537Y0020389D01*
X0035537Y0021924D01*
X0034770Y0022691D01*
X0030933Y0022691D01*
X0031700Y0024226D02*
X0032468Y0024226D01*
X0033235Y0024993D01*
X0033235Y0026528D01*
X0034002Y0027295D01*
X0034770Y0027295D01*
X0035537Y0026528D01*
X0035537Y0024993D01*
X0034770Y0024226D01*
X0031700Y0024226D02*
X0030933Y0024993D01*
X0030933Y0026528D01*
X0031700Y0027295D01*
X0030933Y0028830D02*
X0030933Y0031132D01*
X0031700Y0031899D01*
X0032468Y0031899D01*
X0033235Y0031132D01*
X0033235Y0028830D01*
X0033235Y0031132D02*
X0034002Y0031899D01*
X0034770Y0031899D01*
X0035537Y0031132D01*
X0035537Y0028830D01*
X0030933Y0028830D01*
X0030933Y0033434D02*
X0030933Y0035736D01*
X0031700Y0036503D01*
X0033235Y0036503D01*
X0034002Y0035736D01*
X0034002Y0033434D01*
X0035537Y0033434D02*
X0030933Y0033434D01*
X0030933Y0038038D02*
X0035537Y0038038D01*
X0034002Y0039572D01*
X0035537Y0041107D01*
X0030933Y0041107D01*
X0030933Y0042642D02*
X0030933Y0044944D01*
X0031700Y0045711D01*
X0033235Y0045711D01*
X0034002Y0044944D01*
X0034002Y0042642D01*
X0034002Y0044176D02*
X0035537Y0045711D01*
X0035537Y0042642D02*
X0030933Y0042642D01*
X0044531Y0054842D02*
X0042996Y0056376D01*
X0047600Y0056376D01*
X0047600Y0054842D02*
X0047600Y0057911D01*
X0046833Y0059446D02*
X0047600Y0060213D01*
X0047600Y0062515D01*
X0044531Y0062515D01*
X0045298Y0064050D02*
X0045298Y0065584D01*
X0047600Y0064050D02*
X0042996Y0064050D01*
X0042996Y0067119D01*
X0044531Y0059446D02*
X0046833Y0059446D01*
X0046833Y0053307D02*
X0047600Y0053307D01*
X0047600Y0052540D01*
X0046833Y0052540D01*
X0046833Y0053307D01*
X0064000Y0081154D02*
X0067069Y0081154D01*
X0065535Y0081154D02*
X0065535Y0085757D01*
X0064000Y0084223D01*
X0068604Y0084990D02*
X0068604Y0081921D01*
X0071673Y0084990D01*
X0071673Y0081921D01*
X0070906Y0081154D01*
X0069371Y0081154D01*
X0068604Y0081921D01*
X0068604Y0084990D02*
X0069371Y0085757D01*
X0070906Y0085757D01*
X0071673Y0084990D01*
X0073208Y0085757D02*
X0073208Y0081154D01*
X0073208Y0082688D02*
X0075510Y0084223D01*
X0073208Y0082688D02*
X0075510Y0081154D01*
X0077996Y0077119D02*
X0077996Y0074050D01*
X0082600Y0074050D01*
X0082600Y0072515D02*
X0079531Y0072515D01*
X0080298Y0074050D02*
X0080298Y0075584D01*
X0082600Y0072515D02*
X0082600Y0070213D01*
X0081833Y0069446D01*
X0079531Y0069446D01*
X0082600Y0067911D02*
X0082600Y0064842D01*
X0082600Y0066376D02*
X0077996Y0066376D01*
X0079531Y0064842D01*
X0094500Y0064955D02*
X0097569Y0064955D01*
X0097569Y0065723D02*
X0097569Y0062654D01*
X0099104Y0062654D02*
X0099104Y0067257D01*
X0100639Y0065723D01*
X0102173Y0067257D01*
X0102173Y0062654D01*
X0103708Y0062654D02*
X0103708Y0067257D01*
X0106010Y0067257D01*
X0106777Y0066490D01*
X0106777Y0064955D01*
X0106010Y0064188D01*
X0103708Y0064188D01*
X0108312Y0063421D02*
X0108312Y0062654D01*
X0108312Y0063421D02*
X0111381Y0066490D01*
X0111381Y0067257D01*
X0108312Y0067257D01*
X0112916Y0067257D02*
X0115985Y0062654D01*
X0112916Y0062654D02*
X0115985Y0067257D01*
X0100100Y0085238D02*
X0100100Y0088307D01*
X0100100Y0086772D02*
X0095496Y0086772D01*
X0097031Y0085238D01*
X0096263Y0089842D02*
X0095496Y0090609D01*
X0095496Y0092144D01*
X0096263Y0092911D01*
X0099333Y0089842D01*
X0100100Y0090609D01*
X0100100Y0092144D01*
X0099333Y0092911D01*
X0096263Y0092911D01*
X0097031Y0094446D02*
X0099333Y0094446D01*
X0100100Y0095213D01*
X0100100Y0097515D01*
X0097031Y0097515D01*
X0097798Y0099050D02*
X0097798Y0100584D01*
X0095496Y0099050D02*
X0095496Y0102119D01*
X0095496Y0099050D02*
X0100100Y0099050D01*
X0099333Y0089842D02*
X0096263Y0089842D01*
X0096035Y0067257D02*
X0097569Y0065723D01*
X0096035Y0067257D02*
X0094500Y0065723D01*
X0094500Y0062654D01*
X0075906Y0101154D02*
X0074371Y0101154D01*
X0073604Y0101921D01*
X0072069Y0101921D02*
X0071302Y0101154D01*
X0069767Y0101154D01*
X0069000Y0101921D01*
X0070535Y0103455D02*
X0071302Y0103455D01*
X0072069Y0102688D01*
X0072069Y0101921D01*
X0071302Y0103455D02*
X0072069Y0104223D01*
X0072069Y0104990D01*
X0071302Y0105757D01*
X0069767Y0105757D01*
X0069000Y0104990D01*
X0073604Y0104990D02*
X0073604Y0104223D01*
X0074371Y0103455D01*
X0076673Y0103455D01*
X0076673Y0101921D02*
X0076673Y0104990D01*
X0075906Y0105757D01*
X0074371Y0105757D01*
X0073604Y0104990D01*
X0076673Y0101921D02*
X0075906Y0101154D01*
X0074759Y0127654D02*
X0073024Y0127654D01*
X0072156Y0128521D01*
X0072156Y0131991D01*
X0073024Y0132858D01*
X0074759Y0132858D01*
X0075626Y0131991D01*
X0075626Y0128521D01*
X0074759Y0127654D01*
X0077313Y0127654D02*
X0077313Y0132858D01*
X0080782Y0127654D01*
X0080782Y0132858D01*
X0082469Y0132858D02*
X0084204Y0132858D01*
X0083337Y0132858D02*
X0083337Y0127654D01*
X0084204Y0127654D02*
X0082469Y0127654D01*
X0085907Y0128521D02*
X0086774Y0127654D01*
X0088509Y0127654D01*
X0089376Y0128521D01*
X0089376Y0129388D01*
X0088509Y0130256D01*
X0086774Y0130256D01*
X0085907Y0131123D01*
X0085907Y0131991D01*
X0086774Y0132858D01*
X0088509Y0132858D01*
X0089376Y0131991D01*
X0091063Y0131991D02*
X0091063Y0128521D01*
X0091931Y0127654D01*
X0093665Y0127654D01*
X0094533Y0128521D01*
X0094533Y0131991D01*
X0093665Y0132858D01*
X0091931Y0132858D01*
X0091063Y0131991D01*
X0096220Y0132858D02*
X0096220Y0127654D01*
X0099689Y0127654D01*
X0101376Y0127654D02*
X0101376Y0131123D01*
X0103111Y0132858D01*
X0104846Y0131123D01*
X0104846Y0127654D01*
X0104846Y0130256D02*
X0101376Y0130256D01*
X0106532Y0132858D02*
X0110002Y0132858D01*
X0111689Y0132858D02*
X0111689Y0127654D01*
X0115158Y0127654D01*
X0116845Y0127654D02*
X0119447Y0127654D01*
X0120315Y0128521D01*
X0120315Y0131991D01*
X0119447Y0132858D01*
X0116845Y0132858D01*
X0116845Y0127654D01*
X0113424Y0130256D02*
X0111689Y0130256D01*
X0111689Y0132858D02*
X0115158Y0132858D01*
X0108267Y0132858D02*
X0108267Y0127654D01*
X0108251Y0144454D02*
X0109986Y0144454D01*
X0109119Y0144454D02*
X0109119Y0149658D01*
X0109986Y0149658D02*
X0108251Y0149658D01*
X0106564Y0148791D02*
X0105697Y0149658D01*
X0103962Y0149658D01*
X0103095Y0148791D01*
X0103095Y0147923D01*
X0103962Y0147056D01*
X0105697Y0147056D01*
X0106564Y0146188D01*
X0106564Y0145321D01*
X0105697Y0144454D01*
X0103962Y0144454D01*
X0103095Y0145321D01*
X0096252Y0144454D02*
X0092782Y0144454D01*
X0092782Y0149658D01*
X0096252Y0149658D01*
X0094517Y0147056D02*
X0092782Y0147056D01*
X0091095Y0149658D02*
X0087626Y0149658D01*
X0087626Y0144454D01*
X0085939Y0144454D02*
X0085939Y0147923D01*
X0084204Y0149658D01*
X0082469Y0147923D01*
X0082469Y0144454D01*
X0080782Y0145321D02*
X0079915Y0144454D01*
X0078180Y0144454D01*
X0077313Y0145321D01*
X0078180Y0147056D02*
X0077313Y0147923D01*
X0077313Y0148791D01*
X0078180Y0149658D01*
X0079915Y0149658D01*
X0080782Y0148791D01*
X0079915Y0147056D02*
X0080782Y0146188D01*
X0080782Y0145321D01*
X0079915Y0147056D02*
X0078180Y0147056D01*
X0082469Y0147056D02*
X0085939Y0147056D01*
X0087626Y0147056D02*
X0089360Y0147056D01*
X0089446Y0159554D02*
X0087711Y0159554D01*
X0086844Y0160421D01*
X0086844Y0163891D01*
X0087711Y0164758D01*
X0089446Y0164758D01*
X0090313Y0163891D01*
X0090313Y0160421D01*
X0089446Y0159554D01*
X0085141Y0159554D02*
X0083406Y0159554D01*
X0084273Y0159554D02*
X0084273Y0164758D01*
X0083406Y0164758D02*
X0085141Y0164758D01*
X0081719Y0163891D02*
X0081719Y0160421D01*
X0080852Y0159554D01*
X0078250Y0159554D01*
X0078250Y0164758D01*
X0080852Y0164758D01*
X0081719Y0163891D01*
X0076563Y0164758D02*
X0076563Y0160421D01*
X0075695Y0159554D01*
X0073961Y0159554D01*
X0073093Y0160421D01*
X0073093Y0164758D01*
X0071406Y0163023D02*
X0071406Y0159554D01*
X0071406Y0162156D02*
X0067937Y0162156D01*
X0067937Y0163023D02*
X0069672Y0164758D01*
X0071406Y0163023D01*
X0067937Y0163023D02*
X0067937Y0159554D01*
X0066250Y0160421D02*
X0066250Y0163891D01*
X0065383Y0164758D01*
X0062780Y0164758D01*
X0062780Y0159554D01*
X0065383Y0159554D01*
X0066250Y0160421D01*
X0061094Y0159554D02*
X0057624Y0159554D01*
X0057624Y0164758D01*
X0061094Y0164758D01*
X0059359Y0162156D02*
X0057624Y0162156D01*
X0055937Y0159554D02*
X0052468Y0159554D01*
X0052468Y0164758D01*
X0051827Y0172654D02*
X0051059Y0173421D01*
X0054129Y0176490D01*
X0054129Y0173421D01*
X0053361Y0172654D01*
X0051827Y0172654D01*
X0051059Y0173421D02*
X0051059Y0176490D01*
X0051827Y0177257D01*
X0053361Y0177257D01*
X0054129Y0176490D01*
X0055663Y0177257D02*
X0055663Y0172654D01*
X0055663Y0174188D02*
X0057965Y0175723D01*
X0055663Y0174188D02*
X0057965Y0172654D01*
X0049525Y0173421D02*
X0048757Y0172654D01*
X0047223Y0172654D01*
X0046456Y0173421D01*
X0049525Y0176490D01*
X0049525Y0173421D01*
X0049525Y0176490D02*
X0048757Y0177257D01*
X0047223Y0177257D01*
X0046456Y0176490D01*
X0046456Y0173421D01*
X0044921Y0172654D02*
X0041852Y0172654D01*
X0043386Y0172654D02*
X0043386Y0177257D01*
X0041852Y0175723D01*
X0041852Y0192654D02*
X0041084Y0193421D01*
X0041852Y0192654D02*
X0043386Y0192654D01*
X0044154Y0193421D01*
X0044154Y0194188D01*
X0043386Y0194955D01*
X0041852Y0194955D01*
X0041084Y0195723D01*
X0041084Y0196490D01*
X0041852Y0197257D01*
X0043386Y0197257D01*
X0044154Y0196490D01*
X0045688Y0197257D02*
X0045688Y0192654D01*
X0048757Y0192654D01*
X0050292Y0192654D02*
X0050292Y0197257D01*
X0053361Y0192654D01*
X0053361Y0197257D01*
X0054896Y0196490D02*
X0054896Y0195723D01*
X0055663Y0194955D01*
X0057198Y0194955D01*
X0057965Y0194188D01*
X0057965Y0193421D01*
X0057198Y0192654D01*
X0055663Y0192654D01*
X0054896Y0193421D01*
X0054896Y0196490D02*
X0055663Y0197257D01*
X0057198Y0197257D01*
X0057965Y0196490D01*
X0053010Y0203654D02*
X0050708Y0205188D01*
X0053010Y0206723D01*
X0050708Y0208257D02*
X0050708Y0203654D01*
X0049173Y0204421D02*
X0048406Y0203654D01*
X0046871Y0203654D01*
X0046104Y0204421D01*
X0049173Y0207490D01*
X0049173Y0204421D01*
X0049173Y0207490D02*
X0048406Y0208257D01*
X0046871Y0208257D01*
X0046104Y0207490D01*
X0046104Y0204421D01*
X0044569Y0203654D02*
X0041500Y0203654D01*
X0043035Y0203654D02*
X0043035Y0208257D01*
X0041500Y0206723D01*
X0045688Y0197257D02*
X0048757Y0197257D01*
X0047223Y0194955D02*
X0045688Y0194955D01*
X0033465Y0204154D02*
X0031163Y0205688D01*
X0033465Y0207223D01*
X0031163Y0208757D02*
X0031163Y0204154D01*
X0029629Y0204154D02*
X0026559Y0204154D01*
X0028094Y0204154D02*
X0028094Y0208757D01*
X0026559Y0207223D01*
X0026302Y0236154D02*
X0024767Y0236154D01*
X0024000Y0236921D01*
X0025535Y0238455D02*
X0026302Y0238455D01*
X0027069Y0237688D01*
X0027069Y0236921D01*
X0026302Y0236154D01*
X0026302Y0238455D02*
X0027069Y0239223D01*
X0027069Y0239990D01*
X0026302Y0240757D01*
X0024767Y0240757D01*
X0024000Y0239990D01*
X0022708Y0246154D02*
X0021173Y0246154D01*
X0020406Y0246921D01*
X0018871Y0246921D02*
X0018104Y0246154D01*
X0016569Y0246154D01*
X0015802Y0246921D01*
X0014267Y0246921D02*
X0014267Y0246154D01*
X0013500Y0246154D01*
X0013500Y0246921D01*
X0014267Y0246921D01*
X0015802Y0249990D02*
X0016569Y0250757D01*
X0018104Y0250757D01*
X0018871Y0249990D01*
X0018871Y0249223D01*
X0018104Y0248455D01*
X0018871Y0247688D01*
X0018871Y0246921D01*
X0018104Y0248455D02*
X0017337Y0248455D01*
X0020406Y0249990D02*
X0021173Y0250757D01*
X0022708Y0250757D01*
X0023475Y0249990D01*
X0023475Y0249223D01*
X0022708Y0248455D01*
X0023475Y0247688D01*
X0023475Y0246921D01*
X0022708Y0246154D01*
X0022708Y0248455D02*
X0021941Y0248455D01*
X0025010Y0249223D02*
X0025010Y0246921D01*
X0025777Y0246154D01*
X0028079Y0246154D01*
X0028079Y0249223D01*
X0029614Y0248455D02*
X0031148Y0248455D01*
X0029614Y0246154D02*
X0029614Y0250757D01*
X0032683Y0250757D01*
X0033975Y0240757D02*
X0033208Y0239990D01*
X0033208Y0236921D01*
X0036277Y0239990D01*
X0036277Y0236921D01*
X0035510Y0236154D01*
X0033975Y0236154D01*
X0033208Y0236921D01*
X0031673Y0236921D02*
X0030906Y0236154D01*
X0029371Y0236154D01*
X0028604Y0236921D01*
X0030139Y0238455D02*
X0030906Y0238455D01*
X0031673Y0237688D01*
X0031673Y0236921D01*
X0030906Y0238455D02*
X0031673Y0239223D01*
X0031673Y0239990D01*
X0030906Y0240757D01*
X0029371Y0240757D01*
X0028604Y0239990D01*
X0033975Y0240757D02*
X0035510Y0240757D01*
X0036277Y0239990D01*
X0052000Y0239757D02*
X0052000Y0235154D01*
X0055069Y0235154D01*
X0056604Y0235154D02*
X0056604Y0239757D01*
X0059673Y0239757D01*
X0061208Y0239757D02*
X0061208Y0235154D01*
X0063510Y0235154D01*
X0064277Y0235921D01*
X0064277Y0238990D01*
X0063510Y0239757D01*
X0061208Y0239757D01*
X0059673Y0235154D02*
X0056604Y0235154D01*
X0056604Y0237455D02*
X0058139Y0237455D01*
X0065812Y0236688D02*
X0068114Y0236688D01*
X0068881Y0237455D01*
X0068881Y0238990D01*
X0068114Y0239757D01*
X0065812Y0239757D01*
X0065812Y0235154D01*
X0070416Y0235154D02*
X0071950Y0236688D01*
X0073485Y0235154D01*
X0073485Y0239757D01*
X0075020Y0239757D02*
X0075020Y0235154D01*
X0075020Y0236688D02*
X0077322Y0236688D01*
X0078089Y0237455D01*
X0078089Y0238990D01*
X0077322Y0239757D01*
X0075020Y0239757D01*
X0076554Y0236688D02*
X0078089Y0235154D01*
X0070416Y0235154D02*
X0070416Y0239757D01*
X0070267Y0220257D02*
X0069500Y0219490D01*
X0069500Y0216421D01*
X0070267Y0215654D01*
X0071802Y0215654D01*
X0072569Y0216421D01*
X0074104Y0216421D02*
X0074104Y0219490D01*
X0074871Y0220257D01*
X0076406Y0220257D01*
X0077173Y0219490D01*
X0077173Y0216421D01*
X0076406Y0215654D01*
X0074871Y0215654D01*
X0074104Y0216421D01*
X0072569Y0219490D02*
X0071802Y0220257D01*
X0070267Y0220257D01*
X0078708Y0220257D02*
X0078708Y0215654D01*
X0080242Y0218723D02*
X0081777Y0220257D01*
X0081777Y0215654D01*
X0083312Y0215654D02*
X0083312Y0220257D01*
X0085614Y0220257D01*
X0086381Y0219490D01*
X0086381Y0217955D01*
X0085614Y0217188D01*
X0083312Y0217188D01*
X0080242Y0218723D02*
X0078708Y0220257D01*
X0087916Y0220257D02*
X0087916Y0217955D01*
X0089450Y0218723D01*
X0090218Y0218723D01*
X0090985Y0217955D01*
X0090985Y0216421D01*
X0090218Y0215654D01*
X0088683Y0215654D01*
X0087916Y0216421D01*
X0087916Y0220257D02*
X0090985Y0220257D01*
X0092520Y0220257D02*
X0095589Y0215654D01*
X0092520Y0215654D02*
X0095589Y0220257D01*
X0094757Y0239154D02*
X0091688Y0239154D01*
X0090154Y0239154D02*
X0089386Y0239154D01*
X0089386Y0239921D01*
X0090154Y0239921D01*
X0090154Y0239154D01*
X0091688Y0242223D02*
X0093223Y0243757D01*
X0093223Y0239154D01*
X0096292Y0239921D02*
X0097059Y0239154D01*
X0099361Y0239154D01*
X0099361Y0242223D01*
X0100896Y0241455D02*
X0102431Y0241455D01*
X0100896Y0239154D02*
X0100896Y0243757D01*
X0103965Y0243757D01*
X0096292Y0242223D02*
X0096292Y0239921D01*
X0091600Y0252654D02*
X0090833Y0252654D01*
X0087763Y0255723D01*
X0086996Y0255723D01*
X0086996Y0252654D01*
X0087763Y0257257D02*
X0088531Y0257257D01*
X0089298Y0258025D01*
X0089298Y0259559D01*
X0090065Y0260327D01*
X0090833Y0260327D01*
X0091600Y0259559D01*
X0091600Y0258025D01*
X0090833Y0257257D01*
X0090065Y0257257D01*
X0089298Y0258025D01*
X0089298Y0259559D02*
X0088531Y0260327D01*
X0087763Y0260327D01*
X0086996Y0259559D01*
X0086996Y0258025D01*
X0087763Y0257257D01*
X0087763Y0261861D02*
X0086996Y0262629D01*
X0086996Y0264163D01*
X0087763Y0264931D01*
X0090833Y0261861D01*
X0091600Y0262629D01*
X0091600Y0264163D01*
X0090833Y0264931D01*
X0087763Y0264931D01*
X0086996Y0266465D02*
X0089298Y0266465D01*
X0088531Y0268000D01*
X0088531Y0268767D01*
X0089298Y0269535D01*
X0090833Y0269535D01*
X0091600Y0268767D01*
X0091600Y0267233D01*
X0090833Y0266465D01*
X0091600Y0271069D02*
X0091600Y0273371D01*
X0090833Y0274139D01*
X0087763Y0274139D01*
X0086996Y0273371D01*
X0086996Y0271069D01*
X0091600Y0271069D01*
X0086996Y0269535D02*
X0086996Y0266465D01*
X0087763Y0261861D02*
X0090833Y0261861D01*
X0086996Y0275673D02*
X0086996Y0278742D01*
X0086996Y0277208D02*
X0091600Y0277208D01*
X0125535Y0222490D02*
X0124000Y0220955D01*
X0126302Y0220955D01*
X0127069Y0220188D01*
X0127069Y0219421D01*
X0126302Y0218654D01*
X0124767Y0218654D01*
X0124000Y0219421D01*
X0124000Y0220955D01*
X0125535Y0222490D02*
X0127069Y0223257D01*
X0128604Y0222490D02*
X0128604Y0221723D01*
X0129371Y0220955D01*
X0130906Y0220955D01*
X0131673Y0220188D01*
X0131673Y0219421D01*
X0130906Y0218654D01*
X0129371Y0218654D01*
X0128604Y0219421D01*
X0128604Y0220188D01*
X0129371Y0220955D01*
X0130906Y0220955D02*
X0131673Y0221723D01*
X0131673Y0222490D01*
X0130906Y0223257D01*
X0129371Y0223257D01*
X0128604Y0222490D01*
X0129767Y0226154D02*
X0129000Y0226921D01*
X0129767Y0226154D02*
X0131302Y0226154D01*
X0132069Y0226921D01*
X0132069Y0227688D01*
X0131302Y0228455D01*
X0130535Y0228455D01*
X0131302Y0228455D02*
X0132069Y0229223D01*
X0132069Y0229990D01*
X0131302Y0230757D01*
X0129767Y0230757D01*
X0129000Y0229990D01*
X0133604Y0229990D02*
X0134371Y0230757D01*
X0135906Y0230757D01*
X0136673Y0229990D01*
X0136673Y0229223D01*
X0135906Y0228455D01*
X0136673Y0227688D01*
X0136673Y0226921D01*
X0135906Y0226154D01*
X0134371Y0226154D01*
X0133604Y0226921D01*
X0135139Y0228455D02*
X0135906Y0228455D01*
X0138208Y0226921D02*
X0138208Y0229990D01*
X0138975Y0230757D01*
X0140510Y0230757D01*
X0141277Y0229990D01*
X0138208Y0226921D01*
X0138975Y0226154D01*
X0140510Y0226154D01*
X0141277Y0226921D01*
X0141277Y0229990D01*
X0135510Y0223257D02*
X0136277Y0222490D01*
X0133208Y0219421D01*
X0133975Y0218654D01*
X0135510Y0218654D01*
X0136277Y0219421D01*
X0136277Y0222490D01*
X0135510Y0223257D02*
X0133975Y0223257D01*
X0133208Y0222490D01*
X0133208Y0219421D01*
X0120965Y0197223D02*
X0118663Y0195688D01*
X0120965Y0194154D01*
X0118663Y0194154D02*
X0118663Y0198757D01*
X0117129Y0197990D02*
X0117129Y0197223D01*
X0116361Y0196455D01*
X0114827Y0196455D01*
X0114059Y0197223D01*
X0114059Y0197990D01*
X0114827Y0198757D01*
X0116361Y0198757D01*
X0117129Y0197990D01*
X0116361Y0196455D02*
X0117129Y0195688D01*
X0117129Y0194921D01*
X0116361Y0194154D01*
X0114827Y0194154D01*
X0114059Y0194921D01*
X0114059Y0195688D01*
X0114827Y0196455D01*
X0112525Y0194921D02*
X0112525Y0194154D01*
X0111757Y0194154D01*
X0111757Y0194921D01*
X0112525Y0194921D01*
X0110223Y0194154D02*
X0107154Y0194154D01*
X0108688Y0194154D02*
X0108688Y0198757D01*
X0107154Y0197223D01*
X0106673Y0175757D02*
X0103604Y0175757D01*
X0101302Y0175757D02*
X0101302Y0171154D01*
X0103604Y0171154D02*
X0103604Y0171921D01*
X0106673Y0174990D01*
X0106673Y0175757D01*
X0108208Y0175757D02*
X0108208Y0171154D01*
X0108208Y0172688D02*
X0110510Y0174223D01*
X0108208Y0172688D02*
X0110510Y0171154D01*
X0102069Y0173455D02*
X0099000Y0173455D01*
X0101302Y0175757D01*
X0111689Y0149658D02*
X0114291Y0149658D01*
X0115158Y0148791D01*
X0115158Y0145321D01*
X0114291Y0144454D01*
X0111689Y0144454D01*
X0111689Y0149658D01*
X0116845Y0149658D02*
X0116845Y0144454D01*
X0120315Y0144454D01*
X0118580Y0147056D02*
X0116845Y0147056D01*
X0116845Y0149658D02*
X0120315Y0149658D01*
X0128025Y0132858D02*
X0127158Y0131991D01*
X0127158Y0131123D01*
X0128025Y0130256D01*
X0129760Y0130256D01*
X0130628Y0129388D01*
X0130628Y0128521D01*
X0129760Y0127654D01*
X0128025Y0127654D01*
X0127158Y0128521D01*
X0128025Y0132858D02*
X0129760Y0132858D01*
X0130628Y0131991D01*
X0132314Y0132858D02*
X0134049Y0132858D01*
X0133182Y0132858D02*
X0133182Y0127654D01*
X0134049Y0127654D02*
X0132314Y0127654D01*
X0135752Y0127654D02*
X0138354Y0127654D01*
X0139222Y0128521D01*
X0139222Y0131991D01*
X0138354Y0132858D01*
X0135752Y0132858D01*
X0135752Y0127654D01*
X0140908Y0127654D02*
X0144378Y0127654D01*
X0142643Y0130256D02*
X0140908Y0130256D01*
X0140908Y0132858D02*
X0140908Y0127654D01*
X0140908Y0132858D02*
X0144378Y0132858D01*
X0154000Y0161154D02*
X0157069Y0161154D01*
X0155535Y0161154D02*
X0155535Y0165757D01*
X0154000Y0164223D01*
X0158604Y0164223D02*
X0158604Y0164990D01*
X0159371Y0165757D01*
X0160906Y0165757D01*
X0161673Y0164990D01*
X0161673Y0164223D01*
X0160906Y0163455D01*
X0159371Y0163455D01*
X0158604Y0164223D01*
X0159371Y0163455D02*
X0158604Y0162688D01*
X0158604Y0161921D01*
X0159371Y0161154D01*
X0160906Y0161154D01*
X0161673Y0161921D01*
X0161673Y0162688D01*
X0160906Y0163455D01*
X0163208Y0161921D02*
X0163975Y0161154D01*
X0165510Y0161154D01*
X0166277Y0161921D01*
X0166277Y0164990D01*
X0163208Y0161921D01*
X0163208Y0164990D01*
X0163975Y0165757D01*
X0165510Y0165757D01*
X0166277Y0164990D01*
X0165965Y0199154D02*
X0163663Y0200688D01*
X0165965Y0202223D01*
X0163663Y0203757D02*
X0163663Y0199154D01*
X0162129Y0199921D02*
X0161361Y0199154D01*
X0159827Y0199154D01*
X0159059Y0199921D01*
X0157525Y0199154D02*
X0154456Y0199154D01*
X0155990Y0199154D02*
X0155990Y0203757D01*
X0154456Y0202223D01*
X0159059Y0202990D02*
X0159827Y0203757D01*
X0161361Y0203757D01*
X0162129Y0202990D01*
X0162129Y0202223D01*
X0161361Y0201455D01*
X0162129Y0200688D01*
X0162129Y0199921D01*
X0161361Y0201455D02*
X0160594Y0201455D01*
X0171396Y0200154D02*
X0176600Y0200154D01*
X0176600Y0203623D01*
X0176600Y0205310D02*
X0176600Y0208780D01*
X0176600Y0210466D02*
X0176600Y0213069D01*
X0175733Y0213936D01*
X0172263Y0213936D01*
X0171396Y0213069D01*
X0171396Y0210466D01*
X0176600Y0210466D01*
X0176600Y0215623D02*
X0171396Y0215623D01*
X0171396Y0218225D01*
X0172263Y0219092D01*
X0173998Y0219092D01*
X0174865Y0218225D01*
X0174865Y0215623D01*
X0173998Y0220779D02*
X0173998Y0224249D01*
X0172263Y0225936D02*
X0175733Y0225936D01*
X0176600Y0226803D01*
X0176600Y0228538D01*
X0175733Y0229405D01*
X0172263Y0229405D01*
X0171396Y0228538D01*
X0171396Y0226803D01*
X0172263Y0225936D01*
X0171396Y0224249D02*
X0176600Y0224249D01*
X0176600Y0220779D02*
X0171396Y0220779D01*
X0171396Y0231092D02*
X0171396Y0234562D01*
X0171396Y0232827D02*
X0176600Y0232827D01*
X0175733Y0236248D02*
X0176600Y0237116D01*
X0176600Y0238851D01*
X0175733Y0239718D01*
X0172263Y0239718D01*
X0171396Y0238851D01*
X0171396Y0237116D01*
X0172263Y0236248D01*
X0175733Y0236248D01*
X0161277Y0229990D02*
X0161277Y0226921D01*
X0160510Y0226154D01*
X0158975Y0226154D01*
X0158208Y0226921D01*
X0161277Y0229990D01*
X0160510Y0230757D01*
X0158975Y0230757D01*
X0158208Y0229990D01*
X0158208Y0226921D01*
X0156673Y0226921D02*
X0155906Y0226154D01*
X0154371Y0226154D01*
X0153604Y0226921D01*
X0152069Y0226921D02*
X0151302Y0226154D01*
X0149767Y0226154D01*
X0149000Y0226921D01*
X0150535Y0228455D02*
X0151302Y0228455D01*
X0152069Y0227688D01*
X0152069Y0226921D01*
X0151302Y0228455D02*
X0152069Y0229223D01*
X0152069Y0229990D01*
X0151302Y0230757D01*
X0149767Y0230757D01*
X0149000Y0229990D01*
X0153604Y0229990D02*
X0154371Y0230757D01*
X0155906Y0230757D01*
X0156673Y0229990D01*
X0156673Y0229223D01*
X0155906Y0228455D01*
X0156673Y0227688D01*
X0156673Y0226921D01*
X0155906Y0228455D02*
X0155139Y0228455D01*
X0171396Y0208780D02*
X0171396Y0205310D01*
X0176600Y0205310D01*
X0173998Y0205310D02*
X0173998Y0207045D01*
X0165996Y0113535D02*
X0165996Y0110465D01*
X0170600Y0110465D01*
X0170600Y0108931D02*
X0167531Y0108931D01*
X0168298Y0110465D02*
X0168298Y0112000D01*
X0170600Y0108931D02*
X0170600Y0106629D01*
X0169833Y0105861D01*
X0167531Y0105861D01*
X0166763Y0104327D02*
X0169833Y0101257D01*
X0170600Y0102025D01*
X0170600Y0103559D01*
X0169833Y0104327D01*
X0166763Y0104327D01*
X0165996Y0103559D01*
X0165996Y0102025D01*
X0166763Y0101257D01*
X0169833Y0101257D01*
X0170600Y0099723D02*
X0170600Y0096654D01*
X0170600Y0098188D02*
X0165996Y0098188D01*
X0167531Y0096654D01*
X0170496Y0079619D02*
X0170496Y0076550D01*
X0175100Y0076550D01*
X0175100Y0075015D02*
X0172031Y0075015D01*
X0172798Y0076550D02*
X0172798Y0078084D01*
X0175100Y0075015D02*
X0175100Y0072713D01*
X0174333Y0071946D01*
X0172031Y0071946D01*
X0171263Y0070411D02*
X0170496Y0069644D01*
X0170496Y0068109D01*
X0171263Y0067342D01*
X0174333Y0067342D01*
X0171263Y0070411D01*
X0174333Y0070411D01*
X0175100Y0069644D01*
X0175100Y0068109D01*
X0174333Y0067342D01*
X0175100Y0065807D02*
X0175100Y0062738D01*
X0175100Y0064272D02*
X0170496Y0064272D01*
X0172031Y0062738D01*
X0150600Y0077921D02*
X0149833Y0077154D01*
X0149065Y0077154D01*
X0148298Y0077921D01*
X0148298Y0079455D01*
X0149065Y0080223D01*
X0149833Y0080223D01*
X0150600Y0079455D01*
X0150600Y0077921D01*
X0148298Y0077921D02*
X0147531Y0077154D01*
X0146763Y0077154D01*
X0145996Y0077921D01*
X0145996Y0079455D01*
X0146763Y0080223D01*
X0147531Y0080223D01*
X0148298Y0079455D01*
X0149833Y0081757D02*
X0149833Y0082525D01*
X0150600Y0082525D01*
X0150600Y0081757D01*
X0149833Y0081757D01*
X0150600Y0084059D02*
X0147531Y0087129D01*
X0146763Y0087129D01*
X0145996Y0086361D01*
X0145996Y0084827D01*
X0146763Y0084059D01*
X0150600Y0084059D02*
X0150600Y0087129D01*
X0150600Y0088663D02*
X0145996Y0088663D01*
X0147531Y0090965D02*
X0149065Y0088663D01*
X0150600Y0090965D01*
X0070470Y0127654D02*
X0070470Y0132858D01*
X0067000Y0132858D02*
X0067000Y0127654D01*
X0070470Y0127654D02*
X0067000Y0132858D01*
X0045833Y0102035D02*
X0046600Y0101267D01*
X0046600Y0099733D01*
X0045833Y0098965D01*
X0045833Y0097431D02*
X0045065Y0097431D01*
X0044298Y0096663D01*
X0044298Y0094361D01*
X0045833Y0094361D01*
X0046600Y0095129D01*
X0046600Y0096663D01*
X0045833Y0097431D01*
X0044298Y0099733D02*
X0044298Y0101267D01*
X0045065Y0102035D01*
X0045833Y0102035D01*
X0044298Y0099733D02*
X0043531Y0098965D01*
X0042763Y0098965D01*
X0041996Y0099733D01*
X0041996Y0101267D01*
X0042763Y0102035D01*
X0041996Y0097431D02*
X0042763Y0095896D01*
X0044298Y0094361D01*
X0043531Y0092827D02*
X0044298Y0092059D01*
X0044298Y0089757D01*
X0041996Y0089757D02*
X0041996Y0092059D01*
X0042763Y0092827D01*
X0043531Y0092827D01*
X0044298Y0092059D02*
X0045065Y0092827D01*
X0045833Y0092827D01*
X0046600Y0092059D01*
X0046600Y0089757D01*
X0041996Y0089757D01*
X0041996Y0088223D02*
X0046600Y0088223D01*
X0046600Y0085154D02*
X0041996Y0085154D01*
X0043531Y0086688D01*
X0041996Y0088223D01*
X0039181Y0089934D02*
X0039145Y0089894D01*
X0039107Y0089857D01*
X0039065Y0089822D01*
X0039022Y0089791D01*
X0038976Y0089762D01*
X0038929Y0089737D01*
X0038880Y0089715D01*
X0038829Y0089697D01*
X0038777Y0089682D01*
X0038725Y0089671D01*
X0038672Y0089663D01*
X0038618Y0089659D01*
X0038564Y0089659D01*
X0038510Y0089663D01*
X0038457Y0089671D01*
X0038405Y0089682D01*
X0038353Y0089697D01*
X0038302Y0089715D01*
X0038253Y0089737D01*
X0038206Y0089762D01*
X0038160Y0089791D01*
X0038117Y0089822D01*
X0038075Y0089857D01*
X0038037Y0089894D01*
X0038001Y0089934D01*
X0038000Y0089934D02*
X0037964Y0089974D01*
X0037926Y0090011D01*
X0037884Y0090046D01*
X0037841Y0090077D01*
X0037795Y0090106D01*
X0037748Y0090131D01*
X0037699Y0090153D01*
X0037648Y0090171D01*
X0037596Y0090186D01*
X0037544Y0090197D01*
X0037491Y0090205D01*
X0037437Y0090209D01*
X0037383Y0090209D01*
X0037329Y0090205D01*
X0037276Y0090197D01*
X0037224Y0090186D01*
X0037172Y0090171D01*
X0037121Y0090153D01*
X0037072Y0090131D01*
X0037025Y0090106D01*
X0036979Y0090077D01*
X0036936Y0090046D01*
X0036894Y0090011D01*
X0036856Y0089974D01*
X0036820Y0089934D01*
X0036800Y0097454D02*
X0036800Y0099954D01*
X0035560Y0098674D02*
X0038060Y0098674D01*
X0026800Y0098772D02*
X0024300Y0098772D01*
X0021600Y0099163D02*
X0020833Y0099931D01*
X0021600Y0099163D02*
X0021600Y0097629D01*
X0020833Y0096861D01*
X0017763Y0096861D01*
X0016996Y0097629D01*
X0016996Y0099163D01*
X0017763Y0099931D01*
X0016996Y0101465D02*
X0016996Y0104535D01*
X0016996Y0103000D02*
X0021600Y0103000D01*
X0021600Y0095327D02*
X0021600Y0092257D01*
X0016996Y0092257D01*
X0016996Y0095327D01*
X0019298Y0093792D02*
X0019298Y0092257D01*
X0019298Y0090723D02*
X0017763Y0090723D01*
X0016996Y0089955D01*
X0016996Y0087654D01*
X0021600Y0087654D01*
X0020065Y0087654D02*
X0020065Y0089955D01*
X0019298Y0090723D01*
X0020065Y0089188D02*
X0021600Y0090723D01*
X0024320Y0089934D02*
X0024356Y0089974D01*
X0024394Y0090011D01*
X0024436Y0090046D01*
X0024479Y0090077D01*
X0024525Y0090106D01*
X0024572Y0090131D01*
X0024621Y0090153D01*
X0024672Y0090171D01*
X0024724Y0090186D01*
X0024776Y0090197D01*
X0024829Y0090205D01*
X0024883Y0090209D01*
X0024937Y0090209D01*
X0024991Y0090205D01*
X0025044Y0090197D01*
X0025096Y0090186D01*
X0025148Y0090171D01*
X0025199Y0090153D01*
X0025248Y0090131D01*
X0025295Y0090106D01*
X0025341Y0090077D01*
X0025384Y0090046D01*
X0025426Y0090011D01*
X0025464Y0089974D01*
X0025500Y0089934D01*
X0025501Y0089934D02*
X0025537Y0089894D01*
X0025575Y0089857D01*
X0025617Y0089822D01*
X0025660Y0089791D01*
X0025706Y0089762D01*
X0025753Y0089737D01*
X0025802Y0089715D01*
X0025853Y0089697D01*
X0025905Y0089682D01*
X0025957Y0089671D01*
X0026010Y0089663D01*
X0026064Y0089659D01*
X0026118Y0089659D01*
X0026172Y0089663D01*
X0026225Y0089671D01*
X0026277Y0089682D01*
X0026329Y0089697D01*
X0026380Y0089715D01*
X0026429Y0089737D01*
X0026476Y0089762D01*
X0026522Y0089791D01*
X0026565Y0089822D01*
X0026607Y0089857D01*
X0026645Y0089894D01*
X0026681Y0089934D01*
X0020600Y0073663D02*
X0019065Y0071361D01*
X0017531Y0073663D01*
X0015996Y0071361D02*
X0020600Y0071361D01*
X0019833Y0069827D02*
X0020600Y0069059D01*
X0020600Y0067525D01*
X0019833Y0066757D01*
X0019065Y0066757D01*
X0018298Y0067525D01*
X0018298Y0069059D01*
X0019065Y0069827D01*
X0019833Y0069827D01*
X0018298Y0069059D02*
X0017531Y0069827D01*
X0016763Y0069827D01*
X0015996Y0069059D01*
X0015996Y0067525D01*
X0016763Y0066757D01*
X0017531Y0066757D01*
X0018298Y0067525D01*
X0019065Y0065223D02*
X0018298Y0064455D01*
X0018298Y0062154D01*
X0019833Y0062154D01*
X0020600Y0062921D01*
X0020600Y0064455D01*
X0019833Y0065223D01*
X0019065Y0065223D01*
X0016763Y0063688D02*
X0018298Y0062154D01*
X0016763Y0063688D02*
X0015996Y0065223D01*
D11*
X0011800Y0139954D02*
X0176800Y0139954D01*
D12*
X0084702Y0253954D02*
X0058898Y0253954D01*
X0058900Y0277554D01*
X0084700Y0277554D02*
X0084702Y0253954D01*
X0041052Y0102828D02*
X0022548Y0102828D01*
X0022548Y0087080D01*
X0041052Y0087080D01*
X0041052Y0102828D01*
D13*
X0031800Y0101450D03*
D14*
X0019536Y0127434D02*
X0019536Y0152473D01*
X0053965Y0152473D01*
X0053965Y0129465D01*
X0019930Y0129465D01*
X0019536Y0127434D02*
X0053965Y0127434D01*
X0053965Y0129465D01*
X0024300Y0174954D02*
X0026800Y0177454D01*
X0026800Y0182454D01*
X0024300Y0184954D01*
X0019300Y0184954D01*
X0016800Y0182454D01*
X0016800Y0177454D01*
X0019300Y0174954D01*
X0024300Y0174954D01*
X0024300Y0184954D02*
X0026800Y0187454D01*
X0026800Y0192454D01*
X0024300Y0194954D01*
X0019300Y0194954D01*
X0016800Y0192454D01*
X0016800Y0187454D01*
X0019300Y0184954D01*
X0034300Y0264954D02*
X0039300Y0264954D01*
X0041800Y0267454D01*
X0044300Y0264954D01*
X0049300Y0264954D01*
X0051800Y0267454D01*
X0051800Y0272454D01*
X0049300Y0274954D01*
X0044300Y0274954D01*
X0041800Y0272454D01*
X0041800Y0267454D01*
X0041800Y0272454D02*
X0039300Y0274954D01*
X0034300Y0274954D01*
X0031800Y0272454D01*
X0031800Y0267454D01*
X0034300Y0264954D01*
X0102619Y0262139D02*
X0102619Y0244631D01*
X0150194Y0244631D01*
X0150194Y0244639D01*
X0150194Y0252139D02*
X0150194Y0290788D01*
X0138406Y0290788D01*
X0114406Y0290788D01*
X0114406Y0301607D01*
X0138406Y0301607D01*
X0136406Y0303607D01*
X0116406Y0303607D01*
X0114406Y0301607D01*
X0114406Y0290788D02*
X0102619Y0290788D01*
X0102619Y0270639D01*
X0138406Y0290788D02*
X0138406Y0301607D01*
X0140500Y0114954D02*
X0128100Y0114954D01*
X0128024Y0114952D01*
X0127948Y0114946D01*
X0127873Y0114937D01*
X0127798Y0114923D01*
X0127724Y0114906D01*
X0127651Y0114885D01*
X0127579Y0114861D01*
X0127508Y0114832D01*
X0127439Y0114801D01*
X0127372Y0114766D01*
X0127307Y0114727D01*
X0127243Y0114685D01*
X0127182Y0114640D01*
X0127123Y0114592D01*
X0127067Y0114541D01*
X0127013Y0114487D01*
X0126962Y0114431D01*
X0126914Y0114372D01*
X0126869Y0114311D01*
X0126827Y0114247D01*
X0126788Y0114182D01*
X0126753Y0114115D01*
X0126722Y0114046D01*
X0126693Y0113975D01*
X0126669Y0113903D01*
X0126648Y0113830D01*
X0126631Y0113756D01*
X0126617Y0113681D01*
X0126608Y0113606D01*
X0126602Y0113530D01*
X0126600Y0113454D01*
X0126600Y0096454D01*
X0126602Y0096378D01*
X0126608Y0096302D01*
X0126617Y0096227D01*
X0126631Y0096152D01*
X0126648Y0096078D01*
X0126669Y0096005D01*
X0126693Y0095933D01*
X0126722Y0095862D01*
X0126753Y0095793D01*
X0126788Y0095726D01*
X0126827Y0095661D01*
X0126869Y0095597D01*
X0126914Y0095536D01*
X0126962Y0095477D01*
X0127013Y0095421D01*
X0127067Y0095367D01*
X0127123Y0095316D01*
X0127182Y0095268D01*
X0127243Y0095223D01*
X0127307Y0095181D01*
X0127372Y0095142D01*
X0127439Y0095107D01*
X0127508Y0095076D01*
X0127579Y0095047D01*
X0127651Y0095023D01*
X0127724Y0095002D01*
X0127798Y0094985D01*
X0127873Y0094971D01*
X0127948Y0094962D01*
X0128024Y0094956D01*
X0128100Y0094954D01*
X0132300Y0094954D01*
X0136300Y0094954D01*
X0140500Y0094954D01*
X0140576Y0094956D01*
X0140652Y0094962D01*
X0140727Y0094971D01*
X0140802Y0094985D01*
X0140876Y0095002D01*
X0140949Y0095023D01*
X0141021Y0095047D01*
X0141092Y0095076D01*
X0141161Y0095107D01*
X0141228Y0095142D01*
X0141293Y0095181D01*
X0141357Y0095223D01*
X0141418Y0095268D01*
X0141477Y0095316D01*
X0141533Y0095367D01*
X0141587Y0095421D01*
X0141638Y0095477D01*
X0141686Y0095536D01*
X0141731Y0095597D01*
X0141773Y0095661D01*
X0141812Y0095726D01*
X0141847Y0095793D01*
X0141878Y0095862D01*
X0141907Y0095933D01*
X0141931Y0096005D01*
X0141952Y0096078D01*
X0141969Y0096152D01*
X0141983Y0096227D01*
X0141992Y0096302D01*
X0141998Y0096378D01*
X0142000Y0096454D01*
X0142000Y0113454D01*
X0141998Y0113530D01*
X0141992Y0113606D01*
X0141983Y0113681D01*
X0141969Y0113756D01*
X0141952Y0113830D01*
X0141931Y0113903D01*
X0141907Y0113975D01*
X0141878Y0114046D01*
X0141847Y0114115D01*
X0141812Y0114182D01*
X0141773Y0114247D01*
X0141731Y0114311D01*
X0141686Y0114372D01*
X0141638Y0114431D01*
X0141587Y0114487D01*
X0141533Y0114541D01*
X0141477Y0114592D01*
X0141418Y0114640D01*
X0141357Y0114685D01*
X0141293Y0114727D01*
X0141228Y0114766D01*
X0141161Y0114801D01*
X0141092Y0114832D01*
X0141021Y0114861D01*
X0140949Y0114885D01*
X0140876Y0114906D01*
X0140802Y0114923D01*
X0140727Y0114937D01*
X0140652Y0114946D01*
X0140576Y0114952D01*
X0140500Y0114954D01*
X0136300Y0094954D02*
X0136298Y0095042D01*
X0136292Y0095131D01*
X0136282Y0095219D01*
X0136269Y0095306D01*
X0136251Y0095393D01*
X0136230Y0095479D01*
X0136205Y0095564D01*
X0136176Y0095647D01*
X0136143Y0095730D01*
X0136107Y0095810D01*
X0136068Y0095889D01*
X0136025Y0095967D01*
X0135978Y0096042D01*
X0135928Y0096115D01*
X0135875Y0096186D01*
X0135819Y0096255D01*
X0135760Y0096321D01*
X0135698Y0096384D01*
X0135634Y0096444D01*
X0135567Y0096502D01*
X0135497Y0096556D01*
X0135425Y0096608D01*
X0135351Y0096656D01*
X0135274Y0096701D01*
X0135196Y0096742D01*
X0135116Y0096780D01*
X0135035Y0096814D01*
X0134952Y0096845D01*
X0134867Y0096872D01*
X0134782Y0096895D01*
X0134696Y0096914D01*
X0134608Y0096930D01*
X0134521Y0096942D01*
X0134433Y0096950D01*
X0134344Y0096954D01*
X0134256Y0096954D01*
X0134167Y0096950D01*
X0134079Y0096942D01*
X0133992Y0096930D01*
X0133904Y0096914D01*
X0133818Y0096895D01*
X0133733Y0096872D01*
X0133648Y0096845D01*
X0133565Y0096814D01*
X0133484Y0096780D01*
X0133404Y0096742D01*
X0133326Y0096701D01*
X0133249Y0096656D01*
X0133175Y0096608D01*
X0133103Y0096556D01*
X0133033Y0096502D01*
X0132966Y0096444D01*
X0132902Y0096384D01*
X0132840Y0096321D01*
X0132781Y0096255D01*
X0132725Y0096186D01*
X0132672Y0096115D01*
X0132622Y0096042D01*
X0132575Y0095967D01*
X0132532Y0095889D01*
X0132493Y0095810D01*
X0132457Y0095730D01*
X0132424Y0095647D01*
X0132395Y0095564D01*
X0132370Y0095479D01*
X0132349Y0095393D01*
X0132331Y0095306D01*
X0132318Y0095219D01*
X0132308Y0095131D01*
X0132302Y0095042D01*
X0132300Y0094954D01*
X0145981Y0060276D02*
X0145981Y0042769D01*
X0145981Y0034269D02*
X0145981Y0014119D01*
X0134194Y0014119D01*
X0110194Y0014119D01*
X0098406Y0014119D01*
X0098406Y0052769D01*
X0098406Y0060269D02*
X0098406Y0060276D01*
X0145981Y0060276D01*
X0134194Y0014119D02*
X0134194Y0003300D01*
X0110194Y0003300D01*
X0112194Y0001300D01*
X0132194Y0001300D01*
X0134194Y0003300D01*
X0110194Y0003300D02*
X0110194Y0014119D01*
X0104694Y0069552D02*
X0098906Y0069552D01*
X0098906Y0069725D01*
X0098906Y0072898D02*
X0098906Y0073269D01*
X0098906Y0076639D02*
X0098906Y0077009D01*
X0098906Y0080182D02*
X0098906Y0080355D01*
X0104694Y0080355D01*
X0104694Y0080182D01*
X0104694Y0077009D02*
X0104694Y0072898D01*
X0104694Y0069725D02*
X0104694Y0069552D01*
D15*
X0112461Y0057188D02*
X0113963Y0057188D01*
X0114713Y0056437D01*
X0114713Y0055686D01*
X0113963Y0054936D01*
X0114713Y0054185D01*
X0114713Y0053434D01*
X0113963Y0052684D01*
X0112461Y0052684D01*
X0111711Y0053434D01*
X0113212Y0054936D02*
X0113963Y0054936D01*
X0111711Y0056437D02*
X0112461Y0057188D01*
X0117816Y0052684D02*
X0116315Y0051183D01*
X0117065Y0052684D02*
X0117816Y0052684D01*
X0117816Y0053434D01*
X0117065Y0053434D01*
X0117065Y0052684D01*
X0119384Y0053434D02*
X0120134Y0052684D01*
X0121636Y0052684D01*
X0122386Y0053434D01*
X0122386Y0054936D01*
X0121636Y0055686D01*
X0120885Y0055686D01*
X0119384Y0054936D01*
X0119384Y0057188D01*
X0122386Y0057188D01*
X0123988Y0055686D02*
X0123988Y0052684D01*
X0125489Y0052684D02*
X0125489Y0054936D01*
X0126240Y0055686D01*
X0126990Y0054936D01*
X0126990Y0052684D01*
X0128592Y0052684D02*
X0128592Y0055686D01*
X0129342Y0055686D01*
X0130093Y0054936D01*
X0130844Y0055686D01*
X0131594Y0054936D01*
X0131594Y0052684D01*
X0130093Y0052684D02*
X0130093Y0054936D01*
X0125489Y0054936D02*
X0124738Y0055686D01*
X0123988Y0055686D01*
X0115550Y0089115D02*
X0115550Y0090616D01*
X0115550Y0089865D02*
X0111046Y0089865D01*
X0111046Y0089115D02*
X0111046Y0090616D01*
X0111046Y0092184D02*
X0115550Y0095186D01*
X0111046Y0095186D01*
X0111046Y0096788D02*
X0114049Y0096788D01*
X0115550Y0098289D01*
X0114049Y0099790D01*
X0111046Y0099790D01*
X0111046Y0101392D02*
X0115550Y0101392D01*
X0115550Y0104394D01*
X0115550Y0105996D02*
X0111046Y0105996D01*
X0111046Y0108248D01*
X0111797Y0108998D01*
X0113298Y0108998D01*
X0114049Y0108248D01*
X0114049Y0105996D01*
X0114049Y0107497D02*
X0115550Y0108998D01*
X0115550Y0112101D02*
X0111046Y0112101D01*
X0111046Y0110600D02*
X0111046Y0113602D01*
X0111046Y0104394D02*
X0111046Y0101392D01*
X0113298Y0101392D02*
X0113298Y0102893D01*
X0115550Y0092184D02*
X0111046Y0092184D01*
X0082154Y0050564D02*
X0051446Y0050564D01*
X0054202Y0050564D02*
X0058532Y0050564D01*
X0051446Y0040721D02*
X0051446Y0030091D01*
X0051446Y0014343D02*
X0082154Y0014343D01*
X0082154Y0030091D02*
X0082154Y0040721D01*
X0079398Y0050564D02*
X0075068Y0050564D01*
X0048072Y0137704D02*
X0048072Y0142207D01*
X0046571Y0140706D01*
X0045070Y0142207D01*
X0045070Y0137704D01*
X0043468Y0138454D02*
X0042718Y0137704D01*
X0041216Y0137704D01*
X0040466Y0138454D01*
X0038864Y0138454D02*
X0038114Y0137704D01*
X0036612Y0137704D01*
X0035862Y0138454D01*
X0035862Y0139955D02*
X0037363Y0140706D01*
X0038114Y0140706D01*
X0038864Y0139955D01*
X0038864Y0138454D01*
X0040466Y0140706D02*
X0041216Y0139955D01*
X0042718Y0139955D01*
X0043468Y0139205D01*
X0043468Y0138454D01*
X0043468Y0141457D02*
X0042718Y0142207D01*
X0041216Y0142207D01*
X0040466Y0141457D01*
X0040466Y0140706D01*
X0038864Y0142207D02*
X0035862Y0142207D01*
X0035862Y0139955D01*
X0034260Y0140706D02*
X0034260Y0141457D01*
X0033510Y0142207D01*
X0032008Y0142207D01*
X0031258Y0141457D01*
X0029656Y0142207D02*
X0029656Y0137704D01*
X0026654Y0142207D01*
X0026654Y0137704D01*
X0025053Y0139955D02*
X0022050Y0139955D01*
X0024302Y0142207D01*
X0024302Y0137704D01*
X0031258Y0137704D02*
X0034260Y0140706D01*
X0034260Y0137704D02*
X0031258Y0137704D01*
X0016550Y0142704D02*
X0016550Y0144205D01*
X0016550Y0143454D02*
X0012046Y0143454D01*
X0012046Y0142704D02*
X0012046Y0144205D01*
X0012797Y0145773D02*
X0013547Y0145773D01*
X0014298Y0146523D01*
X0014298Y0148025D01*
X0015049Y0148775D01*
X0015799Y0148775D01*
X0016550Y0148025D01*
X0016550Y0146523D01*
X0015799Y0145773D01*
X0012797Y0145773D02*
X0012046Y0146523D01*
X0012046Y0148025D01*
X0012797Y0148775D01*
X0012797Y0150377D02*
X0015799Y0150377D01*
X0016550Y0151127D01*
X0016550Y0152629D01*
X0015799Y0153379D01*
X0012797Y0153379D01*
X0012046Y0152629D01*
X0012046Y0151127D01*
X0012797Y0150377D01*
X0012046Y0154981D02*
X0016550Y0154981D01*
X0016550Y0157983D01*
X0016550Y0159585D02*
X0013547Y0159585D01*
X0012046Y0161086D01*
X0013547Y0162587D01*
X0016550Y0162587D01*
X0014298Y0162587D02*
X0014298Y0159585D01*
X0012046Y0164189D02*
X0012046Y0167191D01*
X0012046Y0165690D02*
X0016550Y0165690D01*
X0016550Y0168792D02*
X0016550Y0171795D01*
X0014298Y0170294D02*
X0014298Y0168792D01*
X0012046Y0168792D02*
X0012046Y0171795D01*
X0012046Y0168792D02*
X0016550Y0168792D01*
X0029246Y0167880D02*
X0029246Y0170132D01*
X0029997Y0170882D01*
X0031498Y0170882D01*
X0032249Y0170132D01*
X0032249Y0167880D01*
X0033750Y0167880D02*
X0029246Y0167880D01*
X0029246Y0172484D02*
X0033750Y0172484D01*
X0031498Y0172484D02*
X0031498Y0175486D01*
X0029997Y0177088D02*
X0032999Y0177088D01*
X0033750Y0177838D01*
X0033750Y0179340D01*
X0032999Y0180090D01*
X0029997Y0180090D01*
X0029246Y0179340D01*
X0029246Y0177838D01*
X0029997Y0177088D01*
X0029246Y0175486D02*
X0033750Y0175486D01*
X0029246Y0181692D02*
X0029246Y0184694D01*
X0029246Y0183193D02*
X0033750Y0183193D01*
X0032999Y0186296D02*
X0033750Y0187046D01*
X0033750Y0188548D01*
X0032999Y0189298D01*
X0029997Y0189298D01*
X0029246Y0188548D01*
X0029246Y0187046D01*
X0029997Y0186296D01*
X0032999Y0186296D01*
X0033750Y0190900D02*
X0033750Y0193151D01*
X0032999Y0193902D01*
X0029997Y0193902D01*
X0029246Y0193151D01*
X0029246Y0190900D01*
X0033750Y0190900D01*
X0034002Y0277404D02*
X0031750Y0277404D01*
X0031750Y0281907D01*
X0034002Y0281907D01*
X0034753Y0281157D01*
X0034753Y0280406D01*
X0034002Y0279655D01*
X0031750Y0279655D01*
X0034002Y0279655D02*
X0034753Y0278905D01*
X0034753Y0278154D01*
X0034002Y0277404D01*
X0036354Y0277404D02*
X0036354Y0280406D01*
X0037855Y0281907D01*
X0039356Y0280406D01*
X0039356Y0277404D01*
X0039356Y0279655D02*
X0036354Y0279655D01*
X0040958Y0281907D02*
X0043960Y0281907D01*
X0042459Y0281907D02*
X0042459Y0277404D01*
X0047063Y0277404D02*
X0047063Y0281907D01*
X0045562Y0281907D02*
X0048564Y0281907D01*
X0115904Y0251476D02*
X0116655Y0252227D01*
X0118156Y0252227D01*
X0118907Y0251476D01*
X0118907Y0250726D01*
X0118156Y0249975D01*
X0118907Y0249225D01*
X0118907Y0248474D01*
X0118156Y0247723D01*
X0116655Y0247723D01*
X0115904Y0248474D01*
X0117406Y0249975D02*
X0118156Y0249975D01*
X0120508Y0246222D02*
X0122010Y0247723D01*
X0121259Y0247723D01*
X0121259Y0248474D01*
X0122010Y0248474D01*
X0122010Y0247723D01*
X0123578Y0248474D02*
X0124328Y0247723D01*
X0125829Y0247723D01*
X0126580Y0248474D01*
X0126580Y0249975D01*
X0125829Y0250726D01*
X0125079Y0250726D01*
X0123578Y0249975D01*
X0123578Y0252227D01*
X0126580Y0252227D01*
X0128181Y0250726D02*
X0128932Y0250726D01*
X0129683Y0249975D01*
X0130433Y0250726D01*
X0131184Y0249975D01*
X0131184Y0247723D01*
X0129683Y0247723D02*
X0129683Y0249975D01*
X0128181Y0250726D02*
X0128181Y0247723D01*
X0132785Y0247723D02*
X0132785Y0250726D01*
X0133536Y0250726D01*
X0134287Y0249975D01*
X0135037Y0250726D01*
X0135788Y0249975D01*
X0135788Y0247723D01*
X0134287Y0247723D02*
X0134287Y0249975D01*
X0154152Y0259550D02*
X0154903Y0258800D01*
X0155654Y0258800D01*
X0156404Y0259550D01*
X0156404Y0261052D01*
X0157155Y0261802D01*
X0157906Y0261802D01*
X0158656Y0261052D01*
X0158656Y0259550D01*
X0157906Y0258800D01*
X0154903Y0261802D02*
X0154152Y0261052D01*
X0154152Y0259550D01*
X0154152Y0263404D02*
X0154152Y0264905D01*
X0154152Y0264154D02*
X0158656Y0264154D01*
X0158656Y0263404D02*
X0158656Y0264905D01*
X0157906Y0266473D02*
X0158656Y0267223D01*
X0158656Y0268725D01*
X0157906Y0269475D01*
X0156404Y0269475D01*
X0156404Y0267974D01*
X0154903Y0266473D02*
X0157906Y0266473D01*
X0154903Y0266473D02*
X0154152Y0267223D01*
X0154152Y0268725D01*
X0154903Y0269475D01*
X0154903Y0271077D02*
X0157906Y0271077D01*
X0158656Y0271827D01*
X0158656Y0273329D01*
X0157906Y0274079D01*
X0154903Y0274079D01*
X0154152Y0273329D01*
X0154152Y0271827D01*
X0154903Y0271077D01*
X0154152Y0275681D02*
X0157906Y0275681D01*
X0158656Y0276431D01*
X0158656Y0277933D01*
X0157906Y0278683D01*
X0154152Y0278683D01*
X0154152Y0280285D02*
X0154152Y0283287D01*
X0154152Y0281786D02*
X0158656Y0281786D01*
X0156944Y0055575D02*
X0152440Y0055575D01*
X0152440Y0052573D02*
X0156944Y0055575D01*
X0156944Y0052573D02*
X0152440Y0052573D01*
X0152440Y0051005D02*
X0152440Y0049503D01*
X0152440Y0050254D02*
X0156944Y0050254D01*
X0156944Y0049503D02*
X0156944Y0051005D01*
X0156193Y0047902D02*
X0153191Y0047902D01*
X0152440Y0047151D01*
X0152440Y0045650D01*
X0153191Y0044900D01*
X0156193Y0044900D01*
X0156944Y0045650D01*
X0156944Y0047151D01*
X0156193Y0047902D01*
X0156944Y0043332D02*
X0156944Y0041830D01*
X0156944Y0042581D02*
X0152440Y0042581D01*
X0152440Y0041830D02*
X0152440Y0043332D01*
X0153191Y0040229D02*
X0152440Y0039478D01*
X0152440Y0037226D01*
X0156944Y0037226D01*
X0156944Y0039478D01*
X0156193Y0040229D01*
X0153191Y0040229D01*
X0152440Y0035625D02*
X0156193Y0035625D01*
X0156944Y0034874D01*
X0156944Y0033373D01*
X0156193Y0032622D01*
X0152440Y0032622D01*
X0153941Y0031021D02*
X0152440Y0029520D01*
X0153941Y0028019D01*
X0156944Y0028019D01*
X0154692Y0028019D02*
X0154692Y0031021D01*
X0153941Y0031021D02*
X0156944Y0031021D01*
D16*
X0140600Y0094954D02*
X0140600Y0114954D01*
D17*
X0071800Y0252054D03*
D18*
X0050033Y0232655D02*
X0047564Y0232655D01*
X0048798Y0231420D02*
X0048798Y0233889D01*
X0108564Y0156338D02*
X0111033Y0156338D01*
X0109798Y0155104D02*
X0109798Y0157572D01*
X0148798Y0216420D02*
X0148798Y0218889D01*
X0147564Y0217655D02*
X0150033Y0217655D01*
D19*
X0157391Y0217316D03*
X0157391Y0212591D03*
X0101209Y0162316D03*
X0101209Y0157591D03*
X0057391Y0227591D03*
X0057391Y0232316D03*
D20*
X0057391Y0229954D03*
X0101209Y0159954D03*
X0157391Y0214954D03*
D21*
X0023020Y0132080D03*
D22*
X0026794Y0062833D03*
X0026794Y0057033D03*
X0141794Y0077033D03*
X0141794Y0082833D03*
D23*
X0144680Y0159959D03*
X0138880Y0159959D03*
X0134720Y0194948D03*
X0128920Y0194948D03*
X0128880Y0214959D03*
X0134680Y0214959D03*
X0134680Y0234959D03*
X0128880Y0234959D03*
X0153880Y0234959D03*
X0159680Y0234959D03*
X0159720Y0194948D03*
X0153920Y0194948D03*
X0094680Y0174959D03*
X0088880Y0174959D03*
X0059680Y0214959D03*
X0053880Y0214959D03*
X0034720Y0214948D03*
X0028920Y0214948D03*
X0028880Y0229959D03*
X0034680Y0229959D03*
X0068880Y0109959D03*
X0074680Y0109959D03*
X0074680Y0089959D03*
X0068880Y0089959D03*
D24*
X0048375Y0179245D02*
X0039910Y0179245D01*
X0039910Y0181607D01*
X0039910Y0188300D02*
X0039910Y0190662D01*
X0048375Y0190662D01*
M02*
