G75*
%MOIN*%
%OFA0B0*%
%FSLAX25Y25*%
%IPPOS*%
%LPD*%
%AMOC8*
5,1,8,0,0,1.08239X$1,22.5*
%
%ADD10R,0.04724X0.04724*%
%ADD11C,0.06400*%
%ADD12R,0.05906X0.05118*%
%ADD13R,0.05118X0.05906*%
%ADD14R,0.07874X0.09449*%
%ADD15R,0.01969X0.09087*%
%ADD16R,0.08000X0.02600*%
%ADD17R,0.04724X0.02165*%
%ADD18R,0.21260X0.24409*%
%ADD19R,0.03937X0.06299*%
%ADD20R,0.07008X0.05984*%
%ADD21R,0.05512X0.04331*%
%ADD22R,0.04331X0.05512*%
%ADD23R,0.06299X0.05906*%
%ADD24C,0.10000*%
%ADD25C,0.08858*%
%ADD26R,0.08661X0.02362*%
%ADD27C,0.01000*%
%ADD28C,0.01600*%
%ADD29C,0.04756*%
%ADD30C,0.04400*%
D10*
X0026682Y0082946D03*
X0036918Y0082946D03*
X0036918Y0106961D03*
X0026682Y0106961D03*
X0053985Y0181017D03*
X0053985Y0188891D03*
X0052666Y0229954D03*
X0060934Y0229954D03*
X0097666Y0159954D03*
X0105934Y0159954D03*
X0152666Y0214954D03*
X0160934Y0214954D03*
D11*
X0046800Y0266754D02*
X0046800Y0273154D01*
X0036800Y0273154D02*
X0036800Y0266754D01*
X0025000Y0189954D02*
X0018600Y0189954D01*
X0018600Y0179954D02*
X0025000Y0179954D01*
D12*
X0046800Y0073300D03*
X0046800Y0066607D03*
X0146800Y0096607D03*
X0146800Y0103300D03*
X0166800Y0101607D03*
X0166800Y0108300D03*
X0166800Y0083300D03*
X0166800Y0076607D03*
D13*
X0135146Y0214954D03*
X0128454Y0214954D03*
X0040146Y0254954D03*
X0033454Y0254954D03*
X0068454Y0069954D03*
X0075146Y0069954D03*
D14*
X0084123Y0046233D03*
X0084123Y0024580D03*
X0049477Y0024580D03*
X0049477Y0046233D03*
D15*
X0060501Y0048454D03*
X0063650Y0048454D03*
X0066800Y0048454D03*
X0069950Y0048454D03*
X0073099Y0048454D03*
D16*
X0104700Y0092454D03*
X0104700Y0097454D03*
X0104700Y0102454D03*
X0104700Y0107454D03*
X0128900Y0107454D03*
X0128900Y0102454D03*
X0128900Y0097454D03*
X0128900Y0092454D03*
D17*
X0106918Y0078694D03*
X0106918Y0071213D03*
X0096682Y0071213D03*
X0096682Y0074954D03*
X0096682Y0078694D03*
D18*
X0071800Y0272296D03*
D19*
X0062824Y0243556D03*
X0080776Y0243556D03*
D20*
X0046800Y0158241D03*
X0036800Y0158241D03*
X0026800Y0158241D03*
X0026800Y0121666D03*
X0036800Y0121666D03*
X0046800Y0121666D03*
D21*
X0026800Y0063891D03*
X0026800Y0056017D03*
X0141800Y0076017D03*
X0141800Y0083891D03*
D22*
X0137863Y0159954D03*
X0145737Y0159954D03*
X0152863Y0189954D03*
X0160737Y0189954D03*
X0135737Y0189954D03*
X0127863Y0189954D03*
X0127863Y0234954D03*
X0135737Y0234954D03*
X0152863Y0234954D03*
X0160737Y0234954D03*
X0110737Y0234954D03*
X0102863Y0234954D03*
X0095737Y0174954D03*
X0087863Y0174954D03*
X0060737Y0214954D03*
X0052863Y0214954D03*
X0035737Y0214954D03*
X0027863Y0214954D03*
X0027863Y0229954D03*
X0035737Y0229954D03*
X0067863Y0109954D03*
X0075737Y0109954D03*
X0075737Y0089954D03*
X0067863Y0089954D03*
D23*
X0040894Y0184954D03*
D24*
X0126406Y0279324D03*
X0122194Y0025583D03*
D25*
X0131643Y0045269D03*
X0142272Y0045269D03*
X0112745Y0045269D03*
X0102115Y0045269D03*
X0106328Y0259639D03*
X0116957Y0259639D03*
X0135855Y0259639D03*
X0146485Y0259639D03*
D26*
X0107036Y0212454D03*
X0107036Y0207454D03*
X0107036Y0202454D03*
X0107036Y0197454D03*
X0086564Y0197454D03*
X0086564Y0202454D03*
X0086564Y0207454D03*
X0086564Y0212454D03*
D27*
X0086900Y0212954D01*
X0094100Y0212954D01*
X0097700Y0209354D01*
X0097700Y0193154D01*
X0101300Y0189554D01*
X0095900Y0184154D01*
X0095900Y0175154D01*
X0095737Y0174954D01*
X0097700Y0167054D02*
X0044600Y0167054D01*
X0032900Y0178754D01*
X0032900Y0184154D01*
X0027500Y0189554D01*
X0022100Y0189554D01*
X0021800Y0189954D01*
X0021200Y0190454D01*
X0021200Y0220154D01*
X0027500Y0226454D01*
X0027500Y0229154D01*
X0027863Y0229954D01*
X0028400Y0230054D01*
X0032900Y0225554D01*
X0034700Y0225554D01*
X0037400Y0222854D01*
X0068000Y0222854D01*
X0081500Y0236354D01*
X0080600Y0237254D01*
X0080600Y0243554D01*
X0080776Y0243556D01*
X0081500Y0236354D02*
X0099500Y0218354D01*
X0103100Y0218354D01*
X0105800Y0215654D01*
X0105800Y0212954D01*
X0106700Y0212054D01*
X0107036Y0212454D01*
X0107600Y0207554D02*
X0107036Y0207454D01*
X0107600Y0207554D02*
X0114800Y0207554D01*
X0121100Y0213854D01*
X0121100Y0220154D01*
X0126500Y0225554D01*
X0138200Y0225554D01*
X0144500Y0231854D01*
X0152600Y0223754D01*
X0152600Y0215654D01*
X0152666Y0214954D01*
X0160700Y0215654D02*
X0160934Y0214954D01*
X0160700Y0215654D02*
X0160700Y0234554D01*
X0160737Y0234954D01*
X0169700Y0238154D02*
X0169700Y0181454D01*
X0149000Y0160754D01*
X0146300Y0160754D01*
X0145737Y0159954D01*
X0145737Y0156391D01*
X0144300Y0154954D01*
X0050087Y0154954D01*
X0046800Y0158241D01*
X0043513Y0164954D02*
X0036800Y0158241D01*
X0043513Y0164954D02*
X0091800Y0164954D01*
X0096800Y0159954D01*
X0097666Y0159954D01*
X0104000Y0160754D02*
X0097700Y0167054D01*
X0104000Y0160754D02*
X0105800Y0160754D01*
X0105934Y0159954D01*
X0106700Y0160754D01*
X0110300Y0164354D01*
X0138200Y0164354D01*
X0146300Y0172454D01*
X0154400Y0172454D01*
X0167900Y0185954D01*
X0167900Y0194054D01*
X0164300Y0197654D01*
X0135500Y0197654D01*
X0135500Y0190454D01*
X0135737Y0189954D01*
X0135500Y0197654D02*
X0135500Y0202154D01*
X0128300Y0209354D01*
X0128300Y0214754D01*
X0128454Y0214954D01*
X0133700Y0227354D02*
X0122900Y0227354D01*
X0115700Y0234554D01*
X0111200Y0234554D01*
X0110737Y0234954D01*
X0111200Y0235454D01*
X0111200Y0251654D01*
X0106700Y0256154D01*
X0106700Y0258854D01*
X0106328Y0259639D01*
X0127400Y0239954D02*
X0127400Y0235454D01*
X0127863Y0234954D01*
X0127400Y0239954D02*
X0130100Y0242654D01*
X0140000Y0242654D01*
X0142700Y0239954D01*
X0142700Y0233654D01*
X0144500Y0231854D01*
X0135737Y0234954D02*
X0135500Y0234554D01*
X0135500Y0229154D01*
X0133700Y0227354D01*
X0147200Y0258854D02*
X0146485Y0259639D01*
X0147200Y0258854D02*
X0149000Y0258854D01*
X0169700Y0238154D01*
X0152863Y0189954D02*
X0152600Y0189554D01*
X0147200Y0189554D01*
X0140000Y0182354D01*
X0130100Y0182354D01*
X0127400Y0185054D01*
X0127400Y0189554D01*
X0127863Y0189954D01*
X0127400Y0190454D01*
X0122000Y0190454D01*
X0110300Y0202154D01*
X0107600Y0202154D01*
X0107036Y0202454D01*
X0107036Y0197454D02*
X0106700Y0196754D01*
X0106700Y0194954D01*
X0101300Y0189554D01*
X0087800Y0184154D02*
X0087800Y0175154D01*
X0087863Y0174954D01*
X0087800Y0184154D02*
X0075200Y0196754D01*
X0075200Y0207554D01*
X0054500Y0207554D01*
X0052700Y0209354D01*
X0052700Y0214754D01*
X0052863Y0214954D01*
X0052666Y0229954D02*
X0051800Y0230054D01*
X0036500Y0230054D01*
X0035737Y0229954D01*
X0035737Y0214954D02*
X0035600Y0214754D01*
X0035600Y0194954D01*
X0040100Y0190454D01*
X0040100Y0185054D01*
X0040894Y0184954D01*
X0048200Y0181454D02*
X0053600Y0181454D01*
X0053985Y0181017D01*
X0075200Y0207554D02*
X0086000Y0207554D01*
X0086564Y0207454D01*
X0086000Y0203054D02*
X0086564Y0202454D01*
X0086000Y0203054D02*
X0080600Y0203054D01*
X0079700Y0202154D01*
X0078800Y0202154D01*
X0062824Y0243556D02*
X0061800Y0243704D01*
X0060550Y0244954D01*
X0038050Y0244954D01*
X0033050Y0249954D01*
X0033050Y0254954D01*
X0033454Y0254954D01*
X0033454Y0266607D01*
X0036800Y0269954D01*
X0036800Y0121666D02*
X0036800Y0119954D01*
X0041800Y0114954D01*
X0056800Y0114954D01*
X0059300Y0117454D01*
X0074300Y0117454D01*
X0076800Y0114954D01*
X0076800Y0111017D01*
X0075737Y0109954D01*
X0067863Y0109954D02*
X0067425Y0109954D01*
X0060550Y0103079D01*
X0033675Y0103079D01*
X0029925Y0106829D01*
X0026800Y0106829D01*
X0026682Y0106961D01*
X0026800Y0117080D02*
X0036918Y0106961D01*
X0026800Y0117080D02*
X0026800Y0121666D01*
X0026682Y0082946D02*
X0026800Y0082454D01*
X0026800Y0063891D01*
X0026800Y0063704D01*
X0022425Y0059329D01*
X0022425Y0053079D01*
X0023050Y0052454D01*
X0032425Y0052454D01*
X0055550Y0029329D01*
X0078050Y0029329D01*
X0089925Y0041204D01*
X0089925Y0073704D01*
X0094300Y0078079D01*
X0096175Y0078079D01*
X0096682Y0078694D01*
X0096682Y0074954D02*
X0111800Y0074954D01*
X0111800Y0114954D01*
X0101800Y0114954D01*
X0101800Y0107454D01*
X0104700Y0107454D01*
X0111800Y0114954D02*
X0156800Y0114954D01*
X0163454Y0108300D01*
X0166800Y0108300D01*
X0166320Y0102087D02*
X0166800Y0101829D01*
X0166800Y0101607D01*
X0171800Y0098704D02*
X0165550Y0092454D01*
X0143050Y0092454D01*
X0121800Y0071204D01*
X0108050Y0071204D01*
X0106918Y0071213D01*
X0103050Y0068704D02*
X0135550Y0068704D01*
X0141800Y0074954D01*
X0141800Y0076017D01*
X0142863Y0074954D01*
X0156800Y0074954D01*
X0165146Y0083300D01*
X0166800Y0083300D01*
X0166800Y0076607D02*
X0143473Y0053280D01*
X0136800Y0059954D01*
X0106800Y0059954D01*
X0101800Y0054954D01*
X0102115Y0054954D01*
X0102115Y0055269D01*
X0102115Y0054954D02*
X0102115Y0045269D01*
X0103050Y0068704D02*
X0100550Y0071204D01*
X0096800Y0071204D01*
X0096682Y0071213D01*
X0106800Y0078704D02*
X0106918Y0078694D01*
X0106800Y0078704D02*
X0106800Y0081204D01*
X0078675Y0081204D01*
X0067425Y0069954D01*
X0068454Y0069954D01*
X0068050Y0069954D01*
X0064925Y0066829D01*
X0060550Y0066829D01*
X0060550Y0048704D01*
X0060501Y0048454D01*
X0060550Y0066829D02*
X0046800Y0066829D01*
X0046800Y0066607D01*
X0042425Y0071829D02*
X0042425Y0076829D01*
X0055550Y0089954D01*
X0067863Y0089954D01*
X0068050Y0089954D01*
X0095550Y0117454D01*
X0165550Y0117454D01*
X0171800Y0111204D01*
X0171800Y0098704D01*
X0176000Y0114854D02*
X0175701Y0114954D01*
X0166800Y0072454D02*
X0165776Y0072048D01*
X0159300Y0072454D02*
X0158216Y0072834D01*
X0143473Y0053280D02*
X0142272Y0052080D01*
X0142272Y0045269D01*
X0146800Y0096607D02*
X0145954Y0097454D01*
X0128900Y0097454D01*
X0128900Y0107454D02*
X0129746Y0108300D01*
X0141800Y0108300D01*
X0146800Y0103300D01*
X0106800Y0090579D02*
X0106800Y0081204D01*
X0106800Y0090579D02*
X0104925Y0092454D01*
X0104700Y0092454D01*
X0042425Y0071829D02*
X0026800Y0056204D01*
X0026800Y0056017D01*
D28*
X0011600Y0035450D02*
X0011600Y0122454D01*
X0021296Y0122454D01*
X0021296Y0117846D01*
X0022468Y0116674D01*
X0024300Y0116674D01*
X0024300Y0116582D01*
X0024681Y0115663D01*
X0029020Y0111324D01*
X0023491Y0111324D01*
X0022320Y0110152D01*
X0022320Y0103771D01*
X0023491Y0102599D01*
X0029873Y0102599D01*
X0030246Y0102972D01*
X0031556Y0101662D01*
X0032259Y0100959D01*
X0033178Y0100579D01*
X0061047Y0100579D01*
X0061966Y0100959D01*
X0066205Y0105198D01*
X0070857Y0105198D01*
X0071800Y0106141D01*
X0072743Y0105198D01*
X0078731Y0105198D01*
X0079902Y0106369D01*
X0079902Y0113538D01*
X0079300Y0114140D01*
X0079300Y0115451D01*
X0078919Y0116370D01*
X0076419Y0118870D01*
X0075716Y0119573D01*
X0074797Y0119954D01*
X0058803Y0119954D01*
X0057884Y0119573D01*
X0055764Y0117454D01*
X0051912Y0117454D01*
X0052304Y0117846D01*
X0052304Y0122454D01*
X0175701Y0122454D01*
X0175701Y0036574D01*
X0173584Y0037796D01*
X0170761Y0038553D01*
X0167839Y0038553D01*
X0165016Y0037796D01*
X0162485Y0036335D01*
X0160418Y0034269D01*
X0158957Y0031738D01*
X0158201Y0028915D01*
X0158201Y0025992D01*
X0158957Y0023169D01*
X0160418Y0020638D01*
X0161303Y0019754D01*
X0147013Y0019754D01*
X0148451Y0021192D01*
X0149631Y0024041D01*
X0149631Y0027126D01*
X0148451Y0029975D01*
X0146270Y0032156D01*
X0143421Y0033336D01*
X0140337Y0033336D01*
X0137487Y0032156D01*
X0135306Y0029975D01*
X0134126Y0027126D01*
X0134126Y0024041D01*
X0135306Y0021192D01*
X0136745Y0019754D01*
X0125696Y0019754D01*
X0125980Y0019917D01*
X0126687Y0020460D01*
X0127317Y0021090D01*
X0127860Y0021797D01*
X0128306Y0022569D01*
X0128647Y0023393D01*
X0128877Y0024254D01*
X0128963Y0024907D01*
X0122870Y0024907D01*
X0122870Y0026260D01*
X0121517Y0026260D01*
X0121517Y0024907D01*
X0115424Y0024907D01*
X0115510Y0024254D01*
X0115741Y0023393D01*
X0116082Y0022569D01*
X0116528Y0021797D01*
X0117070Y0021090D01*
X0117701Y0020460D01*
X0118408Y0019917D01*
X0118691Y0019754D01*
X0107643Y0019754D01*
X0109081Y0021192D01*
X0110261Y0024041D01*
X0110261Y0027126D01*
X0109081Y0029975D01*
X0106900Y0032156D01*
X0104051Y0033336D01*
X0100967Y0033336D01*
X0098117Y0032156D01*
X0095936Y0029975D01*
X0094756Y0027126D01*
X0094756Y0024041D01*
X0095936Y0021192D01*
X0097375Y0019754D01*
X0090060Y0019754D01*
X0090060Y0030132D01*
X0088888Y0031304D01*
X0083561Y0031304D01*
X0092044Y0039787D01*
X0092425Y0040706D01*
X0092425Y0069197D01*
X0093491Y0068131D01*
X0099873Y0068131D01*
X0099980Y0068238D01*
X0100931Y0067287D01*
X0101634Y0066584D01*
X0102553Y0066204D01*
X0136047Y0066204D01*
X0136966Y0066584D01*
X0142233Y0071851D01*
X0145384Y0071851D01*
X0145987Y0072454D01*
X0157297Y0072454D01*
X0158216Y0072834D01*
X0158919Y0073537D01*
X0161847Y0076465D01*
X0161847Y0075190D01*
X0143473Y0056816D01*
X0138216Y0062073D01*
X0137297Y0062454D01*
X0106303Y0062454D01*
X0105384Y0062073D01*
X0100384Y0057073D01*
X0099681Y0056370D01*
X0099300Y0055451D01*
X0099300Y0054456D01*
X0099615Y0053696D01*
X0099615Y0051192D01*
X0098473Y0050719D01*
X0096665Y0048910D01*
X0095686Y0046547D01*
X0095686Y0043990D01*
X0096665Y0041627D01*
X0098473Y0039818D01*
X0100836Y0038839D01*
X0103394Y0038839D01*
X0105757Y0039818D01*
X0107430Y0041491D01*
X0109103Y0039818D01*
X0111466Y0038839D01*
X0114024Y0038839D01*
X0116387Y0039818D01*
X0116533Y0039965D01*
X0117802Y0038696D01*
X0120652Y0037516D01*
X0123736Y0037516D01*
X0126585Y0038696D01*
X0127854Y0039965D01*
X0128001Y0039818D01*
X0130364Y0038839D01*
X0132921Y0038839D01*
X0135284Y0039818D01*
X0136957Y0041491D01*
X0138631Y0039818D01*
X0140994Y0038839D01*
X0143551Y0038839D01*
X0145914Y0039818D01*
X0147723Y0041627D01*
X0148702Y0043990D01*
X0148702Y0046547D01*
X0147723Y0048910D01*
X0145914Y0050719D01*
X0144877Y0051149D01*
X0144889Y0051161D01*
X0145593Y0051864D01*
X0165776Y0072048D01*
X0170581Y0072048D01*
X0171753Y0073220D01*
X0171753Y0086687D01*
X0170581Y0087859D01*
X0163019Y0087859D01*
X0161847Y0086687D01*
X0161847Y0083536D01*
X0155764Y0077454D01*
X0146556Y0077454D01*
X0146556Y0079010D01*
X0145420Y0080146D01*
X0145661Y0080285D01*
X0145996Y0080620D01*
X0146233Y0081030D01*
X0146356Y0081488D01*
X0146356Y0083608D01*
X0142083Y0083608D01*
X0142083Y0084173D01*
X0146356Y0084173D01*
X0146356Y0086293D01*
X0146233Y0086751D01*
X0145996Y0087161D01*
X0145661Y0087496D01*
X0145251Y0087733D01*
X0144793Y0087856D01*
X0142083Y0087856D01*
X0142083Y0084173D01*
X0141517Y0084173D01*
X0141517Y0087385D01*
X0144086Y0089954D01*
X0166047Y0089954D01*
X0166966Y0090334D01*
X0173216Y0096584D01*
X0173919Y0097287D01*
X0174300Y0098206D01*
X0174300Y0111701D01*
X0173919Y0112620D01*
X0167669Y0118870D01*
X0166966Y0119573D01*
X0166047Y0119954D01*
X0095053Y0119954D01*
X0094134Y0119573D01*
X0093431Y0118870D01*
X0093431Y0118870D01*
X0069270Y0094709D01*
X0064869Y0094709D01*
X0063698Y0093538D01*
X0063698Y0092454D01*
X0055053Y0092454D01*
X0054134Y0092073D01*
X0053431Y0091370D01*
X0040306Y0078245D01*
X0039925Y0077326D01*
X0039925Y0072864D01*
X0031556Y0064495D01*
X0031556Y0066884D01*
X0030384Y0068056D01*
X0029300Y0068056D01*
X0029300Y0078583D01*
X0029873Y0078583D01*
X0031044Y0079755D01*
X0031044Y0086136D01*
X0029873Y0087308D01*
X0023491Y0087308D01*
X0022320Y0086136D01*
X0022320Y0079755D01*
X0023491Y0078583D01*
X0024300Y0078583D01*
X0024300Y0068056D01*
X0023216Y0068056D01*
X0022044Y0066884D01*
X0022044Y0062483D01*
X0020306Y0060745D01*
X0019925Y0059826D01*
X0019925Y0052581D01*
X0020306Y0051662D01*
X0021009Y0050959D01*
X0021634Y0050334D01*
X0022553Y0049954D01*
X0031389Y0049954D01*
X0050039Y0031304D01*
X0044712Y0031304D01*
X0043540Y0030132D01*
X0043540Y0019754D01*
X0027297Y0019754D01*
X0028182Y0020638D01*
X0029643Y0023169D01*
X0030399Y0025992D01*
X0030399Y0028915D01*
X0029643Y0031738D01*
X0028182Y0034269D01*
X0026115Y0036335D01*
X0023584Y0037796D01*
X0020761Y0038553D01*
X0017839Y0038553D01*
X0015016Y0037796D01*
X0012485Y0036335D01*
X0011600Y0035450D01*
X0011600Y0035734D02*
X0011884Y0035734D01*
X0011600Y0037333D02*
X0014213Y0037333D01*
X0011600Y0038931D02*
X0042412Y0038931D01*
X0044010Y0037333D02*
X0024387Y0037333D01*
X0026716Y0035734D02*
X0045609Y0035734D01*
X0047207Y0034136D02*
X0028258Y0034136D01*
X0029181Y0032537D02*
X0048806Y0032537D01*
X0044346Y0030939D02*
X0029857Y0030939D01*
X0030285Y0029340D02*
X0043540Y0029340D01*
X0043540Y0027742D02*
X0030399Y0027742D01*
X0030399Y0026143D02*
X0043540Y0026143D01*
X0043540Y0024545D02*
X0030011Y0024545D01*
X0029514Y0022946D02*
X0043540Y0022946D01*
X0043540Y0021348D02*
X0028591Y0021348D01*
X0040813Y0040530D02*
X0011600Y0040530D01*
X0011600Y0042128D02*
X0039215Y0042128D01*
X0037616Y0043727D02*
X0011600Y0043727D01*
X0011600Y0045325D02*
X0036018Y0045325D01*
X0034419Y0046924D02*
X0011600Y0046924D01*
X0011600Y0048522D02*
X0032821Y0048522D01*
X0022149Y0050121D02*
X0011600Y0050121D01*
X0011600Y0051719D02*
X0020282Y0051719D01*
X0019925Y0053318D02*
X0011600Y0053318D01*
X0011600Y0054916D02*
X0019925Y0054916D01*
X0019925Y0056515D02*
X0011600Y0056515D01*
X0011600Y0058113D02*
X0019925Y0058113D01*
X0019925Y0059712D02*
X0011600Y0059712D01*
X0011600Y0061310D02*
X0020871Y0061310D01*
X0022044Y0062909D02*
X0011600Y0062909D01*
X0011600Y0064507D02*
X0022044Y0064507D01*
X0022044Y0066106D02*
X0011600Y0066106D01*
X0011600Y0067704D02*
X0022864Y0067704D01*
X0024300Y0069303D02*
X0011600Y0069303D01*
X0011600Y0070901D02*
X0024300Y0070901D01*
X0024300Y0072500D02*
X0011600Y0072500D01*
X0011600Y0074098D02*
X0024300Y0074098D01*
X0024300Y0075697D02*
X0011600Y0075697D01*
X0011600Y0077295D02*
X0024300Y0077295D01*
X0023181Y0078894D02*
X0011600Y0078894D01*
X0011600Y0080493D02*
X0022320Y0080493D01*
X0022320Y0082091D02*
X0011600Y0082091D01*
X0011600Y0083690D02*
X0022320Y0083690D01*
X0022320Y0085288D02*
X0011600Y0085288D01*
X0011600Y0086887D02*
X0023070Y0086887D01*
X0029300Y0077295D02*
X0039925Y0077295D01*
X0039517Y0078783D02*
X0039975Y0078906D01*
X0040386Y0079143D01*
X0040721Y0079478D01*
X0040958Y0079889D01*
X0041080Y0080346D01*
X0041080Y0082565D01*
X0037299Y0082565D01*
X0037299Y0083327D01*
X0036537Y0083327D01*
X0036537Y0087108D01*
X0034319Y0087108D01*
X0033861Y0086985D01*
X0033451Y0086748D01*
X0033116Y0086413D01*
X0032879Y0086003D01*
X0032756Y0085545D01*
X0032756Y0083327D01*
X0036537Y0083327D01*
X0036537Y0082565D01*
X0032756Y0082565D01*
X0032756Y0080346D01*
X0032879Y0079889D01*
X0033116Y0079478D01*
X0033451Y0079143D01*
X0033861Y0078906D01*
X0034319Y0078783D01*
X0036537Y0078783D01*
X0036537Y0082564D01*
X0037299Y0082564D01*
X0037299Y0078783D01*
X0039517Y0078783D01*
X0039930Y0078894D02*
X0040955Y0078894D01*
X0041080Y0080493D02*
X0042553Y0080493D01*
X0041080Y0082091D02*
X0044152Y0082091D01*
X0045750Y0083690D02*
X0041080Y0083690D01*
X0041080Y0083327D02*
X0041080Y0085545D01*
X0040958Y0086003D01*
X0040721Y0086413D01*
X0040386Y0086748D01*
X0039975Y0086985D01*
X0039517Y0087108D01*
X0037299Y0087108D01*
X0037299Y0083327D01*
X0041080Y0083327D01*
X0041080Y0085288D02*
X0047349Y0085288D01*
X0048947Y0086887D02*
X0040146Y0086887D01*
X0037299Y0086887D02*
X0036537Y0086887D01*
X0036537Y0085288D02*
X0037299Y0085288D01*
X0037299Y0083690D02*
X0036537Y0083690D01*
X0036537Y0082091D02*
X0037299Y0082091D01*
X0037299Y0080493D02*
X0036537Y0080493D01*
X0036537Y0078894D02*
X0037299Y0078894D01*
X0033906Y0078894D02*
X0030183Y0078894D01*
X0031044Y0080493D02*
X0032756Y0080493D01*
X0032756Y0082091D02*
X0031044Y0082091D01*
X0031044Y0083690D02*
X0032756Y0083690D01*
X0032756Y0085288D02*
X0031044Y0085288D01*
X0030294Y0086887D02*
X0033690Y0086887D01*
X0029300Y0075697D02*
X0039925Y0075697D01*
X0039925Y0074098D02*
X0029300Y0074098D01*
X0029300Y0072500D02*
X0039561Y0072500D01*
X0037962Y0070901D02*
X0029300Y0070901D01*
X0029300Y0069303D02*
X0036364Y0069303D01*
X0034765Y0067704D02*
X0030736Y0067704D01*
X0031556Y0066106D02*
X0033167Y0066106D01*
X0031568Y0064507D02*
X0031556Y0064507D01*
X0046320Y0073780D02*
X0046320Y0077188D01*
X0056586Y0087454D01*
X0063698Y0087454D01*
X0063698Y0086369D01*
X0064869Y0085198D01*
X0070857Y0085198D01*
X0071992Y0086333D01*
X0072131Y0086092D01*
X0072466Y0085757D01*
X0072877Y0085520D01*
X0073335Y0085398D01*
X0075454Y0085398D01*
X0075454Y0089671D01*
X0076020Y0089671D01*
X0076020Y0090236D01*
X0079702Y0090236D01*
X0079702Y0092946D01*
X0079580Y0093404D01*
X0079343Y0093815D01*
X0079008Y0094150D01*
X0078597Y0094387D01*
X0078139Y0094509D01*
X0076141Y0094509D01*
X0096586Y0114954D01*
X0099300Y0114954D01*
X0099300Y0110182D01*
X0098700Y0109582D01*
X0098700Y0105325D01*
X0099072Y0104954D01*
X0098700Y0104582D01*
X0098700Y0100325D01*
X0099072Y0099954D01*
X0098700Y0099582D01*
X0098700Y0095325D01*
X0099072Y0094954D01*
X0098700Y0094582D01*
X0098700Y0090325D01*
X0099872Y0089154D01*
X0104300Y0089154D01*
X0104300Y0083704D01*
X0078178Y0083704D01*
X0077259Y0083323D01*
X0068842Y0074906D01*
X0065066Y0074906D01*
X0063894Y0073735D01*
X0063894Y0069334D01*
X0063889Y0069329D01*
X0051753Y0069329D01*
X0051753Y0069995D01*
X0051487Y0070260D01*
X0051553Y0070504D01*
X0051553Y0072820D01*
X0047280Y0072820D01*
X0047280Y0073780D01*
X0046320Y0073780D01*
X0046320Y0074098D02*
X0047280Y0074098D01*
X0047280Y0073780D02*
X0047280Y0077659D01*
X0049990Y0077659D01*
X0050448Y0077536D01*
X0050858Y0077299D01*
X0051193Y0076964D01*
X0051430Y0076554D01*
X0051553Y0076096D01*
X0051553Y0073780D01*
X0047280Y0073780D01*
X0047280Y0075697D02*
X0046320Y0075697D01*
X0046427Y0077295D02*
X0047280Y0077295D01*
X0048026Y0078894D02*
X0072830Y0078894D01*
X0074428Y0080493D02*
X0049624Y0080493D01*
X0051223Y0082091D02*
X0076027Y0082091D01*
X0078144Y0083690D02*
X0052822Y0083690D01*
X0054420Y0085288D02*
X0064779Y0085288D01*
X0063698Y0086887D02*
X0056019Y0086887D01*
X0052145Y0090084D02*
X0011600Y0090084D01*
X0011600Y0091682D02*
X0053743Y0091682D01*
X0050546Y0088485D02*
X0011600Y0088485D01*
X0011600Y0093281D02*
X0063698Y0093281D01*
X0069440Y0094879D02*
X0011600Y0094879D01*
X0011600Y0096478D02*
X0071039Y0096478D01*
X0072637Y0098076D02*
X0011600Y0098076D01*
X0011600Y0099675D02*
X0074236Y0099675D01*
X0075834Y0101273D02*
X0062280Y0101273D01*
X0063879Y0102872D02*
X0077433Y0102872D01*
X0079031Y0104470D02*
X0065477Y0104470D01*
X0071728Y0106069D02*
X0071872Y0106069D01*
X0078110Y0096478D02*
X0098700Y0096478D01*
X0098700Y0098076D02*
X0079708Y0098076D01*
X0081307Y0099675D02*
X0098793Y0099675D01*
X0098700Y0101273D02*
X0082905Y0101273D01*
X0084504Y0102872D02*
X0098700Y0102872D01*
X0098700Y0104470D02*
X0086102Y0104470D01*
X0087701Y0106069D02*
X0098700Y0106069D01*
X0098700Y0107667D02*
X0089299Y0107667D01*
X0090898Y0109266D02*
X0098700Y0109266D01*
X0099300Y0110864D02*
X0092496Y0110864D01*
X0094095Y0112463D02*
X0099300Y0112463D01*
X0099300Y0114061D02*
X0095693Y0114061D01*
X0093418Y0118857D02*
X0076432Y0118857D01*
X0078031Y0117258D02*
X0091819Y0117258D01*
X0090221Y0115660D02*
X0079213Y0115660D01*
X0079379Y0114061D02*
X0088622Y0114061D01*
X0087024Y0112463D02*
X0079902Y0112463D01*
X0079902Y0110864D02*
X0085425Y0110864D01*
X0083827Y0109266D02*
X0079902Y0109266D01*
X0079902Y0107667D02*
X0082228Y0107667D01*
X0080630Y0106069D02*
X0079602Y0106069D01*
X0076511Y0094879D02*
X0098997Y0094879D01*
X0098700Y0093281D02*
X0079613Y0093281D01*
X0079702Y0091682D02*
X0098700Y0091682D01*
X0098942Y0090084D02*
X0076020Y0090084D01*
X0076020Y0089671D02*
X0079702Y0089671D01*
X0079702Y0086961D01*
X0079580Y0086503D01*
X0079343Y0086092D01*
X0079008Y0085757D01*
X0078597Y0085520D01*
X0078139Y0085398D01*
X0076020Y0085398D01*
X0076020Y0089671D01*
X0076020Y0088485D02*
X0075454Y0088485D01*
X0075454Y0086887D02*
X0076020Y0086887D01*
X0079682Y0086887D02*
X0104300Y0086887D01*
X0104300Y0088485D02*
X0079702Y0088485D01*
X0079711Y0078704D02*
X0091389Y0078704D01*
X0088509Y0075823D01*
X0087806Y0075120D01*
X0087425Y0074201D01*
X0087425Y0052957D01*
X0079357Y0052957D01*
X0078186Y0051786D01*
X0078186Y0042588D01*
X0076808Y0043159D01*
X0075728Y0043159D01*
X0075761Y0043215D01*
X0075883Y0043673D01*
X0075883Y0048453D01*
X0073099Y0048453D01*
X0073099Y0048454D01*
X0073099Y0054797D01*
X0071962Y0054797D01*
X0071762Y0054997D01*
X0063050Y0054997D01*
X0063050Y0064329D01*
X0065422Y0064329D01*
X0066341Y0064709D01*
X0066633Y0065001D01*
X0071841Y0065001D01*
X0072106Y0065266D01*
X0072350Y0065201D01*
X0074667Y0065201D01*
X0074667Y0069474D01*
X0075626Y0069474D01*
X0075626Y0070433D01*
X0079505Y0070433D01*
X0079505Y0073143D01*
X0079383Y0073601D01*
X0079146Y0074012D01*
X0078811Y0074347D01*
X0078400Y0074584D01*
X0077942Y0074706D01*
X0075713Y0074706D01*
X0079711Y0078704D01*
X0078302Y0077295D02*
X0089981Y0077295D01*
X0088383Y0075697D02*
X0076704Y0075697D01*
X0079059Y0074098D02*
X0087425Y0074098D01*
X0087425Y0072500D02*
X0079505Y0072500D01*
X0079505Y0070901D02*
X0087425Y0070901D01*
X0087425Y0069303D02*
X0079505Y0069303D01*
X0079505Y0069474D02*
X0075626Y0069474D01*
X0075626Y0065201D01*
X0077942Y0065201D01*
X0078400Y0065323D01*
X0078811Y0065560D01*
X0079146Y0065896D01*
X0079383Y0066306D01*
X0079505Y0066764D01*
X0079505Y0069474D01*
X0079505Y0067704D02*
X0087425Y0067704D01*
X0087425Y0066106D02*
X0079267Y0066106D01*
X0075626Y0066106D02*
X0074667Y0066106D01*
X0074667Y0067704D02*
X0075626Y0067704D01*
X0075626Y0069303D02*
X0074667Y0069303D01*
X0069633Y0075697D02*
X0051553Y0075697D01*
X0051553Y0074098D02*
X0064258Y0074098D01*
X0063894Y0072500D02*
X0051553Y0072500D01*
X0051553Y0070901D02*
X0063894Y0070901D01*
X0065854Y0064507D02*
X0087425Y0064507D01*
X0087425Y0062909D02*
X0063050Y0062909D01*
X0063050Y0061310D02*
X0087425Y0061310D01*
X0087425Y0059712D02*
X0063050Y0059712D01*
X0063050Y0058113D02*
X0087425Y0058113D01*
X0087425Y0056515D02*
X0063050Y0056515D01*
X0071843Y0054916D02*
X0087425Y0054916D01*
X0087425Y0053318D02*
X0075861Y0053318D01*
X0075883Y0053234D02*
X0075761Y0053692D01*
X0075524Y0054102D01*
X0075189Y0054437D01*
X0074778Y0054674D01*
X0074320Y0054797D01*
X0073099Y0054797D01*
X0073099Y0048454D01*
X0073099Y0048454D01*
X0075883Y0048454D01*
X0075883Y0053234D01*
X0075883Y0051719D02*
X0078186Y0051719D01*
X0078186Y0050121D02*
X0075883Y0050121D01*
X0075883Y0048522D02*
X0078186Y0048522D01*
X0078186Y0046924D02*
X0075883Y0046924D01*
X0075883Y0045325D02*
X0078186Y0045325D01*
X0078186Y0043727D02*
X0075883Y0043727D01*
X0073099Y0048522D02*
X0073099Y0048522D01*
X0073099Y0050121D02*
X0073099Y0050121D01*
X0073099Y0051719D02*
X0073099Y0051719D01*
X0073099Y0053318D02*
X0073099Y0053318D01*
X0086393Y0034136D02*
X0160342Y0034136D01*
X0159419Y0032537D02*
X0145350Y0032537D01*
X0147488Y0030939D02*
X0158743Y0030939D01*
X0158315Y0029340D02*
X0148714Y0029340D01*
X0149376Y0027742D02*
X0158201Y0027742D01*
X0158201Y0026143D02*
X0149631Y0026143D01*
X0149631Y0024545D02*
X0158589Y0024545D01*
X0159086Y0022946D02*
X0149178Y0022946D01*
X0148516Y0021348D02*
X0160009Y0021348D01*
X0161884Y0035734D02*
X0087991Y0035734D01*
X0089590Y0037333D02*
X0164213Y0037333D01*
X0174387Y0037333D02*
X0175701Y0037333D01*
X0175701Y0038931D02*
X0143773Y0038931D01*
X0146626Y0040530D02*
X0175701Y0040530D01*
X0175701Y0042128D02*
X0147931Y0042128D01*
X0148593Y0043727D02*
X0175701Y0043727D01*
X0175701Y0045325D02*
X0148702Y0045325D01*
X0148546Y0046924D02*
X0175701Y0046924D01*
X0175701Y0048522D02*
X0147884Y0048522D01*
X0146512Y0050121D02*
X0175701Y0050121D01*
X0175701Y0051719D02*
X0145448Y0051719D01*
X0147046Y0053318D02*
X0175701Y0053318D01*
X0175701Y0054916D02*
X0148645Y0054916D01*
X0150243Y0056515D02*
X0175701Y0056515D01*
X0175701Y0058113D02*
X0151842Y0058113D01*
X0153440Y0059712D02*
X0175701Y0059712D01*
X0175701Y0061310D02*
X0155039Y0061310D01*
X0156637Y0062909D02*
X0175701Y0062909D01*
X0175701Y0064507D02*
X0158236Y0064507D01*
X0159834Y0066106D02*
X0175701Y0066106D01*
X0175701Y0067704D02*
X0161433Y0067704D01*
X0163031Y0069303D02*
X0175701Y0069303D01*
X0175701Y0070901D02*
X0164630Y0070901D01*
X0160756Y0074098D02*
X0159480Y0074098D01*
X0159157Y0072500D02*
X0157409Y0072500D01*
X0157559Y0070901D02*
X0141283Y0070901D01*
X0139685Y0069303D02*
X0155960Y0069303D01*
X0154362Y0067704D02*
X0138086Y0067704D01*
X0138979Y0061310D02*
X0147968Y0061310D01*
X0146369Y0059712D02*
X0140577Y0059712D01*
X0142176Y0058113D02*
X0144771Y0058113D01*
X0149566Y0062909D02*
X0092425Y0062909D01*
X0092425Y0064507D02*
X0151165Y0064507D01*
X0152763Y0066106D02*
X0092425Y0066106D01*
X0092425Y0067704D02*
X0100514Y0067704D01*
X0104621Y0061310D02*
X0092425Y0061310D01*
X0092425Y0059712D02*
X0103023Y0059712D01*
X0101424Y0058113D02*
X0092425Y0058113D01*
X0092425Y0056515D02*
X0099826Y0056515D01*
X0099300Y0054916D02*
X0092425Y0054916D01*
X0092425Y0053318D02*
X0099615Y0053318D01*
X0099615Y0051719D02*
X0092425Y0051719D01*
X0092425Y0050121D02*
X0097875Y0050121D01*
X0096504Y0048522D02*
X0092425Y0048522D01*
X0092425Y0046924D02*
X0095842Y0046924D01*
X0095686Y0045325D02*
X0092425Y0045325D01*
X0092425Y0043727D02*
X0095795Y0043727D01*
X0096457Y0042128D02*
X0092425Y0042128D01*
X0092352Y0040530D02*
X0097762Y0040530D01*
X0100614Y0038931D02*
X0091188Y0038931D01*
X0089254Y0030939D02*
X0096900Y0030939D01*
X0095673Y0029340D02*
X0090060Y0029340D01*
X0090060Y0027742D02*
X0095011Y0027742D01*
X0094756Y0026143D02*
X0090060Y0026143D01*
X0090060Y0024545D02*
X0094756Y0024545D01*
X0095210Y0022946D02*
X0090060Y0022946D01*
X0090060Y0021348D02*
X0095872Y0021348D01*
X0099037Y0032537D02*
X0084794Y0032537D01*
X0103616Y0038931D02*
X0111244Y0038931D01*
X0108391Y0040530D02*
X0106468Y0040530D01*
X0105980Y0032537D02*
X0138408Y0032537D01*
X0136270Y0030939D02*
X0126385Y0030939D01*
X0126687Y0030707D02*
X0125980Y0031250D01*
X0125208Y0031695D01*
X0124384Y0032036D01*
X0123523Y0032267D01*
X0122870Y0032353D01*
X0122870Y0026260D01*
X0128963Y0026260D01*
X0128877Y0026913D01*
X0128647Y0027774D01*
X0128306Y0028597D01*
X0127860Y0029369D01*
X0127317Y0030077D01*
X0126687Y0030707D01*
X0127877Y0029340D02*
X0135043Y0029340D01*
X0134381Y0027742D02*
X0128655Y0027742D01*
X0128916Y0024545D02*
X0134126Y0024545D01*
X0134126Y0026143D02*
X0122870Y0026143D01*
X0121517Y0026143D02*
X0110261Y0026143D01*
X0110261Y0024545D02*
X0115472Y0024545D01*
X0115926Y0022946D02*
X0109808Y0022946D01*
X0109146Y0021348D02*
X0116873Y0021348D01*
X0115424Y0026260D02*
X0121517Y0026260D01*
X0121517Y0032353D01*
X0120864Y0032267D01*
X0120003Y0032036D01*
X0119180Y0031695D01*
X0118408Y0031250D01*
X0117701Y0030707D01*
X0117070Y0030077D01*
X0116528Y0029369D01*
X0116082Y0028597D01*
X0115741Y0027774D01*
X0115510Y0026913D01*
X0115424Y0026260D01*
X0115732Y0027742D02*
X0110006Y0027742D01*
X0109344Y0029340D02*
X0116511Y0029340D01*
X0118003Y0030939D02*
X0108117Y0030939D01*
X0114245Y0038931D02*
X0117567Y0038931D01*
X0121517Y0030939D02*
X0122870Y0030939D01*
X0122870Y0029340D02*
X0121517Y0029340D01*
X0121517Y0027742D02*
X0122870Y0027742D01*
X0127515Y0021348D02*
X0135242Y0021348D01*
X0134580Y0022946D02*
X0128462Y0022946D01*
X0126820Y0038931D02*
X0130142Y0038931D01*
X0133143Y0038931D02*
X0140772Y0038931D01*
X0137919Y0040530D02*
X0135996Y0040530D01*
X0120764Y0073704D02*
X0113988Y0073704D01*
X0114300Y0074456D01*
X0114300Y0112454D01*
X0155764Y0112454D01*
X0161334Y0106884D01*
X0161334Y0106884D01*
X0161847Y0106371D01*
X0161847Y0104913D01*
X0162113Y0104647D01*
X0162047Y0104403D01*
X0162047Y0102087D01*
X0166320Y0102087D01*
X0166320Y0101128D01*
X0162047Y0101128D01*
X0162047Y0098811D01*
X0162170Y0098353D01*
X0162407Y0097943D01*
X0162742Y0097608D01*
X0163152Y0097371D01*
X0163610Y0097248D01*
X0166320Y0097248D01*
X0166320Y0101127D01*
X0167280Y0101127D01*
X0167280Y0097719D01*
X0164514Y0094954D01*
X0151753Y0094954D01*
X0151753Y0106687D01*
X0150581Y0107859D01*
X0145776Y0107859D01*
X0143216Y0110419D01*
X0142297Y0110800D01*
X0129249Y0110800D01*
X0129137Y0110754D01*
X0124072Y0110754D01*
X0122900Y0109582D01*
X0122900Y0105325D01*
X0123425Y0104800D01*
X0123223Y0104448D01*
X0123100Y0103991D01*
X0123100Y0102454D01*
X0128900Y0102454D01*
X0134700Y0102454D01*
X0134700Y0103991D01*
X0134577Y0104448D01*
X0134374Y0104800D01*
X0134900Y0105325D01*
X0134900Y0105800D01*
X0140764Y0105800D01*
X0141847Y0104717D01*
X0141847Y0099954D01*
X0134528Y0099954D01*
X0134374Y0100107D01*
X0134577Y0100459D01*
X0134700Y0100917D01*
X0134700Y0102453D01*
X0128900Y0102453D01*
X0128900Y0102454D01*
X0128900Y0102453D01*
X0123100Y0102453D01*
X0123100Y0100917D01*
X0123223Y0100459D01*
X0123425Y0100107D01*
X0122900Y0099582D01*
X0122900Y0095325D01*
X0123272Y0094954D01*
X0122900Y0094582D01*
X0122900Y0090325D01*
X0124072Y0089154D01*
X0133728Y0089154D01*
X0134900Y0090325D01*
X0134900Y0094582D01*
X0134528Y0094954D01*
X0141847Y0094954D01*
X0141847Y0094661D01*
X0141634Y0094573D01*
X0140931Y0093870D01*
X0120764Y0073704D01*
X0121159Y0074098D02*
X0114152Y0074098D01*
X0114300Y0075697D02*
X0122758Y0075697D01*
X0124356Y0077295D02*
X0114300Y0077295D01*
X0114300Y0078894D02*
X0125955Y0078894D01*
X0127553Y0080493D02*
X0114300Y0080493D01*
X0114300Y0082091D02*
X0129152Y0082091D01*
X0130750Y0083690D02*
X0114300Y0083690D01*
X0114300Y0085288D02*
X0132349Y0085288D01*
X0133947Y0086887D02*
X0114300Y0086887D01*
X0114300Y0088485D02*
X0135546Y0088485D01*
X0134658Y0090084D02*
X0137145Y0090084D01*
X0138743Y0091682D02*
X0134900Y0091682D01*
X0134900Y0093281D02*
X0140342Y0093281D01*
X0141847Y0094879D02*
X0134603Y0094879D01*
X0134528Y0094954D02*
X0134528Y0094954D01*
X0134700Y0101273D02*
X0141847Y0101273D01*
X0141847Y0102872D02*
X0134700Y0102872D01*
X0134565Y0104470D02*
X0141847Y0104470D01*
X0144370Y0109266D02*
X0158952Y0109266D01*
X0157354Y0110864D02*
X0114300Y0110864D01*
X0114300Y0109266D02*
X0122900Y0109266D01*
X0122900Y0107667D02*
X0114300Y0107667D01*
X0114300Y0106069D02*
X0122900Y0106069D01*
X0123235Y0104470D02*
X0114300Y0104470D01*
X0114300Y0102872D02*
X0123100Y0102872D01*
X0123100Y0101273D02*
X0114300Y0101273D01*
X0114300Y0099675D02*
X0122993Y0099675D01*
X0122900Y0098076D02*
X0114300Y0098076D01*
X0114300Y0096478D02*
X0122900Y0096478D01*
X0123197Y0094879D02*
X0114300Y0094879D01*
X0114300Y0093281D02*
X0122900Y0093281D01*
X0122900Y0091682D02*
X0114300Y0091682D01*
X0114300Y0090084D02*
X0123142Y0090084D01*
X0141517Y0086887D02*
X0142083Y0086887D01*
X0142083Y0085288D02*
X0141517Y0085288D01*
X0142083Y0083690D02*
X0161847Y0083690D01*
X0161847Y0085288D02*
X0146356Y0085288D01*
X0146155Y0086887D02*
X0162046Y0086887D01*
X0160402Y0082091D02*
X0146356Y0082091D01*
X0145869Y0080493D02*
X0158803Y0080493D01*
X0157205Y0078894D02*
X0146556Y0078894D01*
X0142617Y0088485D02*
X0175701Y0088485D01*
X0175701Y0086887D02*
X0171554Y0086887D01*
X0171753Y0085288D02*
X0175701Y0085288D01*
X0175701Y0083690D02*
X0171753Y0083690D01*
X0171753Y0082091D02*
X0175701Y0082091D01*
X0175701Y0080493D02*
X0171753Y0080493D01*
X0171753Y0078894D02*
X0175701Y0078894D01*
X0175701Y0077295D02*
X0171753Y0077295D01*
X0171753Y0075697D02*
X0175701Y0075697D01*
X0175701Y0074098D02*
X0171753Y0074098D01*
X0171033Y0072500D02*
X0175701Y0072500D01*
X0175701Y0090084D02*
X0166361Y0090084D01*
X0168314Y0091682D02*
X0175701Y0091682D01*
X0175701Y0093281D02*
X0169913Y0093281D01*
X0171511Y0094879D02*
X0175701Y0094879D01*
X0175701Y0096478D02*
X0173110Y0096478D01*
X0174246Y0098076D02*
X0175701Y0098076D01*
X0175701Y0099675D02*
X0174300Y0099675D01*
X0174300Y0101273D02*
X0175701Y0101273D01*
X0175701Y0102872D02*
X0174300Y0102872D01*
X0174300Y0104470D02*
X0175701Y0104470D01*
X0175701Y0106069D02*
X0174300Y0106069D01*
X0174300Y0107667D02*
X0175701Y0107667D01*
X0175701Y0109266D02*
X0174300Y0109266D01*
X0174300Y0110864D02*
X0175701Y0110864D01*
X0175701Y0112463D02*
X0173984Y0112463D01*
X0172478Y0114061D02*
X0175701Y0114061D01*
X0175701Y0115660D02*
X0170879Y0115660D01*
X0169281Y0117258D02*
X0175701Y0117258D01*
X0175701Y0118857D02*
X0167682Y0118857D01*
X0160551Y0107667D02*
X0150773Y0107667D01*
X0151753Y0106069D02*
X0161847Y0106069D01*
X0162065Y0104470D02*
X0151753Y0104470D01*
X0151753Y0102872D02*
X0162047Y0102872D01*
X0162047Y0099675D02*
X0151753Y0099675D01*
X0151753Y0101273D02*
X0166320Y0101273D01*
X0166320Y0099675D02*
X0167280Y0099675D01*
X0167280Y0098076D02*
X0166320Y0098076D01*
X0166039Y0096478D02*
X0151753Y0096478D01*
X0151753Y0098076D02*
X0162330Y0098076D01*
X0175701Y0120455D02*
X0052304Y0120455D01*
X0052304Y0118857D02*
X0057168Y0118857D01*
X0052304Y0122054D02*
X0175701Y0122054D01*
X0175701Y0157454D02*
X0149902Y0157454D01*
X0149902Y0158421D01*
X0150416Y0158634D01*
X0151119Y0159337D01*
X0171819Y0180037D01*
X0172200Y0180956D01*
X0172200Y0238651D01*
X0171819Y0239570D01*
X0171116Y0240273D01*
X0152914Y0258475D01*
X0152914Y0260917D01*
X0151935Y0263280D01*
X0150127Y0265089D01*
X0147764Y0266068D01*
X0145206Y0266068D01*
X0142843Y0265089D01*
X0141170Y0263416D01*
X0139497Y0265089D01*
X0137134Y0266068D01*
X0134576Y0266068D01*
X0132213Y0265089D01*
X0132067Y0264942D01*
X0130798Y0266211D01*
X0127948Y0267391D01*
X0124864Y0267391D01*
X0122015Y0266211D01*
X0120746Y0264942D01*
X0120599Y0265089D01*
X0118236Y0266068D01*
X0115679Y0266068D01*
X0113316Y0265089D01*
X0111643Y0263416D01*
X0109969Y0265089D01*
X0107606Y0266068D01*
X0105049Y0266068D01*
X0102686Y0265089D01*
X0100877Y0263280D01*
X0099898Y0260917D01*
X0099898Y0258360D01*
X0100877Y0255997D01*
X0102686Y0254188D01*
X0105049Y0253209D01*
X0106109Y0253209D01*
X0108700Y0250618D01*
X0108700Y0239709D01*
X0107743Y0239709D01*
X0106608Y0238574D01*
X0106469Y0238815D01*
X0106134Y0239150D01*
X0105723Y0239387D01*
X0105265Y0239509D01*
X0103146Y0239509D01*
X0103146Y0235236D01*
X0102580Y0235236D01*
X0102580Y0234671D01*
X0098898Y0234671D01*
X0098898Y0231961D01*
X0099020Y0231503D01*
X0099257Y0231092D01*
X0099592Y0230757D01*
X0100003Y0230520D01*
X0100461Y0230398D01*
X0102580Y0230398D01*
X0102580Y0234671D01*
X0103146Y0234671D01*
X0103146Y0230398D01*
X0105265Y0230398D01*
X0105723Y0230520D01*
X0106134Y0230757D01*
X0106469Y0231092D01*
X0106608Y0231333D01*
X0107743Y0230198D01*
X0113731Y0230198D01*
X0114902Y0231369D01*
X0114902Y0231816D01*
X0121484Y0225234D01*
X0122305Y0224894D01*
X0118981Y0221570D01*
X0118600Y0220651D01*
X0118600Y0214889D01*
X0113764Y0210054D01*
X0112976Y0210054D01*
X0113367Y0210444D01*
X0113367Y0214463D01*
X0112195Y0215635D01*
X0108300Y0215635D01*
X0108300Y0216151D01*
X0107919Y0217070D01*
X0107216Y0217773D01*
X0105219Y0219770D01*
X0104516Y0220473D01*
X0103597Y0220854D01*
X0100536Y0220854D01*
X0083619Y0237770D01*
X0083100Y0238289D01*
X0083100Y0238406D01*
X0083573Y0238406D01*
X0084745Y0239578D01*
X0084745Y0247534D01*
X0083573Y0248705D01*
X0077979Y0248705D01*
X0076808Y0247534D01*
X0076808Y0239578D01*
X0077979Y0238406D01*
X0078100Y0238406D01*
X0078100Y0236756D01*
X0078178Y0236567D01*
X0066964Y0225354D01*
X0038887Y0225354D01*
X0039902Y0226369D01*
X0039902Y0227554D01*
X0048304Y0227554D01*
X0048304Y0226763D01*
X0049476Y0225591D01*
X0055857Y0225591D01*
X0056992Y0226727D01*
X0057131Y0226486D01*
X0057466Y0226151D01*
X0057877Y0225914D01*
X0058335Y0225791D01*
X0060553Y0225791D01*
X0060553Y0229572D01*
X0061315Y0229572D01*
X0061315Y0225791D01*
X0063533Y0225791D01*
X0063991Y0225914D01*
X0064401Y0226151D01*
X0064736Y0226486D01*
X0064973Y0226897D01*
X0065096Y0227354D01*
X0065096Y0229572D01*
X0061315Y0229572D01*
X0061315Y0230335D01*
X0060553Y0230335D01*
X0060553Y0234116D01*
X0058335Y0234116D01*
X0057877Y0233993D01*
X0057466Y0233756D01*
X0057131Y0233421D01*
X0056992Y0233180D01*
X0055857Y0234316D01*
X0049476Y0234316D01*
X0048304Y0233144D01*
X0048304Y0232554D01*
X0039902Y0232554D01*
X0039902Y0233538D01*
X0038731Y0234709D01*
X0032743Y0234709D01*
X0031800Y0233766D01*
X0030857Y0234709D01*
X0024869Y0234709D01*
X0023698Y0233538D01*
X0023698Y0226369D01*
X0023789Y0226278D01*
X0019784Y0222273D01*
X0019081Y0221570D01*
X0018700Y0220651D01*
X0018700Y0195154D01*
X0017566Y0195154D01*
X0015654Y0194362D01*
X0014192Y0192899D01*
X0013400Y0190988D01*
X0013400Y0188919D01*
X0014192Y0187008D01*
X0015654Y0185545D01*
X0017083Y0184954D01*
X0015654Y0184362D01*
X0014192Y0182899D01*
X0013400Y0180988D01*
X0013400Y0178919D01*
X0014192Y0177008D01*
X0015654Y0175545D01*
X0017566Y0174754D01*
X0026034Y0174754D01*
X0027946Y0175545D01*
X0029408Y0177008D01*
X0030200Y0178919D01*
X0030200Y0180988D01*
X0029408Y0182899D01*
X0027946Y0184362D01*
X0026517Y0184954D01*
X0027946Y0185545D01*
X0027959Y0185559D01*
X0030400Y0183118D01*
X0030400Y0178256D01*
X0030781Y0177337D01*
X0031484Y0176634D01*
X0041571Y0166547D01*
X0038257Y0163233D01*
X0032468Y0163233D01*
X0031800Y0162565D01*
X0031132Y0163233D01*
X0022468Y0163233D01*
X0021296Y0162061D01*
X0021296Y0157454D01*
X0011600Y0157454D01*
X0011600Y0269457D01*
X0012485Y0268572D01*
X0015016Y0267111D01*
X0017839Y0266354D01*
X0020761Y0266354D01*
X0023584Y0267111D01*
X0026115Y0268572D01*
X0028182Y0270638D01*
X0029643Y0273169D01*
X0030399Y0275992D01*
X0030399Y0278915D01*
X0029643Y0281738D01*
X0028182Y0284269D01*
X0027336Y0285114D01*
X0059471Y0285114D01*
X0059370Y0284738D01*
X0059370Y0273096D01*
X0071000Y0273096D01*
X0071000Y0271496D01*
X0072600Y0271496D01*
X0072600Y0258291D01*
X0082667Y0258291D01*
X0083125Y0258414D01*
X0083535Y0258651D01*
X0083870Y0258986D01*
X0084107Y0259397D01*
X0084230Y0259854D01*
X0084230Y0271496D01*
X0072600Y0271496D01*
X0072600Y0273096D01*
X0084230Y0273096D01*
X0084230Y0284738D01*
X0084129Y0285114D01*
X0101548Y0285114D01*
X0100149Y0283715D01*
X0098969Y0280866D01*
X0098969Y0277781D01*
X0100149Y0274932D01*
X0102330Y0272751D01*
X0105179Y0271571D01*
X0108263Y0271571D01*
X0111113Y0272751D01*
X0113294Y0274932D01*
X0114474Y0277781D01*
X0114474Y0280866D01*
X0113294Y0283715D01*
X0111895Y0285114D01*
X0122836Y0285114D01*
X0122620Y0284990D01*
X0121913Y0284447D01*
X0121283Y0283817D01*
X0120740Y0283110D01*
X0120294Y0282338D01*
X0119953Y0281514D01*
X0119723Y0280653D01*
X0119637Y0280000D01*
X0125730Y0280000D01*
X0125730Y0278647D01*
X0127083Y0278647D01*
X0127083Y0280000D01*
X0133176Y0280000D01*
X0133090Y0280653D01*
X0132859Y0281514D01*
X0132518Y0282338D01*
X0132072Y0283110D01*
X0131530Y0283817D01*
X0130899Y0284447D01*
X0130192Y0284990D01*
X0129977Y0285114D01*
X0140918Y0285114D01*
X0139519Y0283715D01*
X0138339Y0280866D01*
X0138339Y0277781D01*
X0139519Y0274932D01*
X0141700Y0272751D01*
X0144549Y0271571D01*
X0147633Y0271571D01*
X0150483Y0272751D01*
X0152664Y0274932D01*
X0153844Y0277781D01*
X0153844Y0280866D01*
X0152664Y0283715D01*
X0151265Y0285114D01*
X0161264Y0285114D01*
X0160418Y0284269D01*
X0158957Y0281738D01*
X0158201Y0278915D01*
X0158201Y0275992D01*
X0158957Y0273169D01*
X0160418Y0270638D01*
X0162485Y0268572D01*
X0165016Y0267111D01*
X0167839Y0266354D01*
X0170761Y0266354D01*
X0173584Y0267111D01*
X0175701Y0268333D01*
X0175701Y0157454D01*
X0175701Y0158820D02*
X0150602Y0158820D01*
X0152200Y0160418D02*
X0175701Y0160418D01*
X0175701Y0162017D02*
X0153799Y0162017D01*
X0155397Y0163615D02*
X0175701Y0163615D01*
X0175701Y0165214D02*
X0156996Y0165214D01*
X0158594Y0166812D02*
X0175701Y0166812D01*
X0175701Y0168411D02*
X0160193Y0168411D01*
X0161791Y0170009D02*
X0175701Y0170009D01*
X0175701Y0171608D02*
X0163390Y0171608D01*
X0164988Y0173206D02*
X0175701Y0173206D01*
X0175701Y0174805D02*
X0166587Y0174805D01*
X0168185Y0176403D02*
X0175701Y0176403D01*
X0175701Y0178002D02*
X0169784Y0178002D01*
X0171382Y0179600D02*
X0175701Y0179600D01*
X0175701Y0181199D02*
X0172200Y0181199D01*
X0172200Y0182797D02*
X0175701Y0182797D01*
X0175701Y0184396D02*
X0172200Y0184396D01*
X0172200Y0185994D02*
X0175701Y0185994D01*
X0175701Y0187593D02*
X0172200Y0187593D01*
X0172200Y0189191D02*
X0175701Y0189191D01*
X0175701Y0190790D02*
X0172200Y0190790D01*
X0172200Y0192388D02*
X0175701Y0192388D01*
X0175701Y0193987D02*
X0172200Y0193987D01*
X0172200Y0195585D02*
X0175701Y0195585D01*
X0175701Y0197184D02*
X0172200Y0197184D01*
X0172200Y0198782D02*
X0175701Y0198782D01*
X0175701Y0200381D02*
X0172200Y0200381D01*
X0172200Y0201979D02*
X0175701Y0201979D01*
X0175701Y0203578D02*
X0172200Y0203578D01*
X0172200Y0205176D02*
X0175701Y0205176D01*
X0175701Y0206775D02*
X0172200Y0206775D01*
X0172200Y0208373D02*
X0175701Y0208373D01*
X0175701Y0209972D02*
X0172200Y0209972D01*
X0172200Y0211570D02*
X0175701Y0211570D01*
X0175701Y0213169D02*
X0172200Y0213169D01*
X0172200Y0214767D02*
X0175701Y0214767D01*
X0175701Y0216366D02*
X0172200Y0216366D01*
X0172200Y0217964D02*
X0175701Y0217964D01*
X0175701Y0219563D02*
X0172200Y0219563D01*
X0172200Y0221162D02*
X0175701Y0221162D01*
X0175701Y0222760D02*
X0172200Y0222760D01*
X0172200Y0224359D02*
X0175701Y0224359D01*
X0175701Y0225957D02*
X0172200Y0225957D01*
X0172200Y0227556D02*
X0175701Y0227556D01*
X0175701Y0229154D02*
X0172200Y0229154D01*
X0172200Y0230753D02*
X0175701Y0230753D01*
X0175701Y0232351D02*
X0172200Y0232351D01*
X0172200Y0233950D02*
X0175701Y0233950D01*
X0175701Y0235548D02*
X0172200Y0235548D01*
X0172200Y0237147D02*
X0175701Y0237147D01*
X0175701Y0238745D02*
X0172161Y0238745D01*
X0171045Y0240344D02*
X0175701Y0240344D01*
X0175701Y0241942D02*
X0169447Y0241942D01*
X0167848Y0243541D02*
X0175701Y0243541D01*
X0175701Y0245139D02*
X0166250Y0245139D01*
X0164651Y0246738D02*
X0175701Y0246738D01*
X0175701Y0248336D02*
X0163053Y0248336D01*
X0161454Y0249935D02*
X0175701Y0249935D01*
X0175701Y0251533D02*
X0159856Y0251533D01*
X0158257Y0253132D02*
X0175701Y0253132D01*
X0175701Y0254730D02*
X0156659Y0254730D01*
X0155060Y0256329D02*
X0175701Y0256329D01*
X0175701Y0257927D02*
X0153462Y0257927D01*
X0152914Y0259526D02*
X0175701Y0259526D01*
X0175701Y0261124D02*
X0152828Y0261124D01*
X0152166Y0262723D02*
X0175701Y0262723D01*
X0175701Y0264321D02*
X0150894Y0264321D01*
X0148121Y0265920D02*
X0175701Y0265920D01*
X0175701Y0267518D02*
X0174290Y0267518D01*
X0164310Y0267518D02*
X0084230Y0267518D01*
X0084230Y0265920D02*
X0104692Y0265920D01*
X0101918Y0264321D02*
X0084230Y0264321D01*
X0084230Y0262723D02*
X0100646Y0262723D01*
X0099984Y0261124D02*
X0084230Y0261124D01*
X0084142Y0259526D02*
X0099898Y0259526D01*
X0100078Y0257927D02*
X0044505Y0257927D01*
X0044505Y0258143D02*
X0044383Y0258601D01*
X0044146Y0259012D01*
X0043811Y0259347D01*
X0043400Y0259584D01*
X0042942Y0259706D01*
X0040626Y0259706D01*
X0040626Y0255433D01*
X0044505Y0255433D01*
X0044505Y0258143D01*
X0043500Y0259526D02*
X0059458Y0259526D01*
X0059493Y0259397D02*
X0059730Y0258986D01*
X0060065Y0258651D01*
X0060475Y0258414D01*
X0060933Y0258291D01*
X0071000Y0258291D01*
X0071000Y0271496D01*
X0059370Y0271496D01*
X0059370Y0259854D01*
X0059493Y0259397D01*
X0059370Y0261124D02*
X0035954Y0261124D01*
X0035954Y0261554D02*
X0037834Y0261554D01*
X0039746Y0262345D01*
X0041208Y0263808D01*
X0041932Y0265555D01*
X0042166Y0264834D01*
X0042524Y0264133D01*
X0042986Y0263496D01*
X0043543Y0262940D01*
X0044179Y0262477D01*
X0044881Y0262120D01*
X0045629Y0261877D01*
X0046406Y0261754D01*
X0046600Y0261754D01*
X0046600Y0269753D01*
X0047000Y0269753D01*
X0047000Y0261754D01*
X0047194Y0261754D01*
X0047971Y0261877D01*
X0048719Y0262120D01*
X0049421Y0262477D01*
X0050057Y0262940D01*
X0050614Y0263496D01*
X0051076Y0264133D01*
X0051434Y0264834D01*
X0051677Y0265583D01*
X0051800Y0266360D01*
X0051800Y0269754D01*
X0047000Y0269754D01*
X0047000Y0270154D01*
X0046600Y0270154D01*
X0046600Y0278154D01*
X0046406Y0278154D01*
X0045629Y0278030D01*
X0044881Y0277787D01*
X0044179Y0277430D01*
X0043543Y0276967D01*
X0042986Y0276411D01*
X0042524Y0275774D01*
X0042166Y0275073D01*
X0041932Y0274352D01*
X0041208Y0276099D01*
X0039746Y0277562D01*
X0037834Y0278354D01*
X0035766Y0278354D01*
X0033854Y0277562D01*
X0032392Y0276099D01*
X0031600Y0274188D01*
X0031600Y0268289D01*
X0031334Y0268023D01*
X0030954Y0267104D01*
X0030954Y0259906D01*
X0030066Y0259906D01*
X0028894Y0258735D01*
X0028894Y0251172D01*
X0030066Y0250001D01*
X0030550Y0250001D01*
X0030550Y0249456D01*
X0030931Y0248537D01*
X0031634Y0247834D01*
X0036634Y0242834D01*
X0037553Y0242454D01*
X0058855Y0242454D01*
X0058855Y0239578D01*
X0060027Y0238406D01*
X0065621Y0238406D01*
X0066792Y0239578D01*
X0066792Y0247534D01*
X0065621Y0248705D01*
X0060027Y0248705D01*
X0058855Y0247534D01*
X0058855Y0247454D01*
X0039086Y0247454D01*
X0036538Y0250001D01*
X0036841Y0250001D01*
X0037106Y0250266D01*
X0037350Y0250201D01*
X0039667Y0250201D01*
X0039667Y0254474D01*
X0040626Y0254474D01*
X0040626Y0255433D01*
X0039667Y0255433D01*
X0039667Y0259706D01*
X0037350Y0259706D01*
X0037106Y0259641D01*
X0036841Y0259906D01*
X0035954Y0259906D01*
X0035954Y0261554D01*
X0039667Y0259526D02*
X0040626Y0259526D01*
X0040626Y0257927D02*
X0039667Y0257927D01*
X0039667Y0256329D02*
X0040626Y0256329D01*
X0040626Y0254730D02*
X0102144Y0254730D01*
X0100740Y0256329D02*
X0044505Y0256329D01*
X0044505Y0254474D02*
X0040626Y0254474D01*
X0040626Y0250201D01*
X0042942Y0250201D01*
X0043400Y0250323D01*
X0043811Y0250560D01*
X0044146Y0250896D01*
X0044383Y0251306D01*
X0044505Y0251764D01*
X0044505Y0254474D01*
X0044505Y0253132D02*
X0106186Y0253132D01*
X0107785Y0251533D02*
X0044444Y0251533D01*
X0040626Y0251533D02*
X0039667Y0251533D01*
X0039667Y0253132D02*
X0040626Y0253132D01*
X0036604Y0249935D02*
X0108700Y0249935D01*
X0108700Y0248336D02*
X0083943Y0248336D01*
X0084745Y0246738D02*
X0108700Y0246738D01*
X0108700Y0245139D02*
X0084745Y0245139D01*
X0084745Y0243541D02*
X0108700Y0243541D01*
X0108700Y0241942D02*
X0084745Y0241942D01*
X0084745Y0240344D02*
X0108700Y0240344D01*
X0106779Y0238745D02*
X0106509Y0238745D01*
X0103146Y0238745D02*
X0102580Y0238745D01*
X0102580Y0239509D02*
X0100461Y0239509D01*
X0100003Y0239387D01*
X0099592Y0239150D01*
X0099257Y0238815D01*
X0099020Y0238404D01*
X0098898Y0237946D01*
X0098898Y0235236D01*
X0102580Y0235236D01*
X0102580Y0239509D01*
X0102580Y0237147D02*
X0103146Y0237147D01*
X0103146Y0235548D02*
X0102580Y0235548D01*
X0102580Y0233950D02*
X0103146Y0233950D01*
X0103146Y0232351D02*
X0102580Y0232351D01*
X0102580Y0230753D02*
X0103146Y0230753D01*
X0106125Y0230753D02*
X0107188Y0230753D01*
X0105219Y0219770D02*
X0105219Y0219770D01*
X0105426Y0219563D02*
X0118600Y0219563D01*
X0118600Y0217964D02*
X0107025Y0217964D01*
X0107216Y0217773D02*
X0107216Y0217773D01*
X0108211Y0216366D02*
X0118600Y0216366D01*
X0118478Y0214767D02*
X0113063Y0214767D01*
X0113367Y0213169D02*
X0116880Y0213169D01*
X0115281Y0211570D02*
X0113367Y0211570D01*
X0117557Y0206775D02*
X0127343Y0206775D01*
X0126884Y0207234D02*
X0133000Y0201118D01*
X0133000Y0194709D01*
X0132743Y0194709D01*
X0131800Y0193766D01*
X0130857Y0194709D01*
X0124869Y0194709D01*
X0123698Y0193538D01*
X0123698Y0192954D01*
X0123036Y0192954D01*
X0113367Y0202622D01*
X0113367Y0204463D01*
X0112876Y0204954D01*
X0112976Y0205054D01*
X0115297Y0205054D01*
X0116216Y0205434D01*
X0122516Y0211734D01*
X0123219Y0212437D01*
X0123600Y0213356D01*
X0123600Y0219118D01*
X0127536Y0223054D01*
X0138697Y0223054D01*
X0139616Y0223434D01*
X0144500Y0228318D01*
X0150100Y0222718D01*
X0150100Y0219316D01*
X0149476Y0219316D01*
X0148304Y0218144D01*
X0148304Y0211763D01*
X0149476Y0210591D01*
X0155857Y0210591D01*
X0156800Y0211535D01*
X0157743Y0210591D01*
X0164124Y0210591D01*
X0165296Y0211763D01*
X0165296Y0218144D01*
X0164124Y0219316D01*
X0163200Y0219316D01*
X0163200Y0230198D01*
X0163731Y0230198D01*
X0164902Y0231369D01*
X0164902Y0238538D01*
X0163731Y0239709D01*
X0157743Y0239709D01*
X0156608Y0238574D01*
X0156469Y0238815D01*
X0156134Y0239150D01*
X0155723Y0239387D01*
X0155265Y0239509D01*
X0153146Y0239509D01*
X0153146Y0235236D01*
X0152580Y0235236D01*
X0152580Y0234671D01*
X0148898Y0234671D01*
X0148898Y0231961D01*
X0149020Y0231503D01*
X0149257Y0231092D01*
X0149592Y0230757D01*
X0150003Y0230520D01*
X0150461Y0230398D01*
X0152580Y0230398D01*
X0152580Y0234671D01*
X0153146Y0234671D01*
X0153146Y0230398D01*
X0155265Y0230398D01*
X0155723Y0230520D01*
X0156134Y0230757D01*
X0156469Y0231092D01*
X0156608Y0231333D01*
X0157743Y0230198D01*
X0158200Y0230198D01*
X0158200Y0219316D01*
X0157743Y0219316D01*
X0156800Y0218373D01*
X0155857Y0219316D01*
X0155100Y0219316D01*
X0155100Y0224251D01*
X0154719Y0225170D01*
X0145916Y0233973D01*
X0145200Y0234689D01*
X0145200Y0240451D01*
X0144819Y0241370D01*
X0142119Y0244070D01*
X0141416Y0244773D01*
X0140497Y0245154D01*
X0129603Y0245154D01*
X0128684Y0244773D01*
X0125281Y0241370D01*
X0124900Y0240451D01*
X0124900Y0239709D01*
X0124869Y0239709D01*
X0123698Y0238538D01*
X0123698Y0231369D01*
X0124869Y0230198D01*
X0130857Y0230198D01*
X0131800Y0231141D01*
X0132743Y0230198D01*
X0133000Y0230198D01*
X0133000Y0230189D01*
X0132664Y0229854D01*
X0123936Y0229854D01*
X0117819Y0235970D01*
X0117116Y0236673D01*
X0116197Y0237054D01*
X0114902Y0237054D01*
X0114902Y0238538D01*
X0113731Y0239709D01*
X0113700Y0239709D01*
X0113700Y0252151D01*
X0113319Y0253070D01*
X0111085Y0255304D01*
X0111643Y0255861D01*
X0113316Y0254188D01*
X0115679Y0253209D01*
X0118236Y0253209D01*
X0120599Y0254188D01*
X0120746Y0254335D01*
X0122015Y0253066D01*
X0124864Y0251886D01*
X0127948Y0251886D01*
X0130798Y0253066D01*
X0132067Y0254335D01*
X0132213Y0254188D01*
X0134576Y0253209D01*
X0137134Y0253209D01*
X0139497Y0254188D01*
X0141170Y0255861D01*
X0142843Y0254188D01*
X0145206Y0253209D01*
X0147764Y0253209D01*
X0150127Y0254188D01*
X0150128Y0254190D01*
X0167200Y0237118D01*
X0167200Y0198289D01*
X0165716Y0199773D01*
X0164797Y0200154D01*
X0138000Y0200154D01*
X0138000Y0202651D01*
X0137619Y0203570D01*
X0131188Y0210001D01*
X0131841Y0210001D01*
X0132106Y0210266D01*
X0132350Y0210201D01*
X0134667Y0210201D01*
X0134667Y0214474D01*
X0135626Y0214474D01*
X0135626Y0215433D01*
X0139505Y0215433D01*
X0139505Y0218143D01*
X0139383Y0218601D01*
X0139146Y0219012D01*
X0138811Y0219347D01*
X0138400Y0219584D01*
X0137942Y0219706D01*
X0135626Y0219706D01*
X0135626Y0215433D01*
X0134667Y0215433D01*
X0134667Y0219706D01*
X0132350Y0219706D01*
X0132106Y0219641D01*
X0131841Y0219906D01*
X0125066Y0219906D01*
X0123894Y0218735D01*
X0123894Y0211172D01*
X0125066Y0210001D01*
X0125800Y0210001D01*
X0125800Y0208856D01*
X0126181Y0207937D01*
X0126884Y0207234D01*
X0126000Y0208373D02*
X0119155Y0208373D01*
X0120754Y0209972D02*
X0125800Y0209972D01*
X0123894Y0211570D02*
X0122352Y0211570D01*
X0123522Y0213169D02*
X0123894Y0213169D01*
X0123894Y0214767D02*
X0123600Y0214767D01*
X0123600Y0216366D02*
X0123894Y0216366D01*
X0123894Y0217964D02*
X0123600Y0217964D01*
X0124045Y0219563D02*
X0124723Y0219563D01*
X0125643Y0221162D02*
X0150100Y0221162D01*
X0150058Y0222760D02*
X0127242Y0222760D01*
X0124314Y0230753D02*
X0123036Y0230753D01*
X0123698Y0232351D02*
X0121438Y0232351D01*
X0119839Y0233950D02*
X0123698Y0233950D01*
X0123698Y0235548D02*
X0118241Y0235548D01*
X0114902Y0237147D02*
X0123698Y0237147D01*
X0123905Y0238745D02*
X0114695Y0238745D01*
X0113700Y0240344D02*
X0124900Y0240344D01*
X0125853Y0241942D02*
X0113700Y0241942D01*
X0113700Y0243541D02*
X0127452Y0243541D01*
X0129568Y0245139D02*
X0113700Y0245139D01*
X0113700Y0246738D02*
X0157580Y0246738D01*
X0155982Y0248336D02*
X0113700Y0248336D01*
X0113700Y0249935D02*
X0154383Y0249935D01*
X0152785Y0251533D02*
X0113700Y0251533D01*
X0113257Y0253132D02*
X0121949Y0253132D01*
X0121723Y0265920D02*
X0118593Y0265920D01*
X0115322Y0265920D02*
X0107963Y0265920D01*
X0110737Y0264321D02*
X0112548Y0264321D01*
X0110057Y0272314D02*
X0142755Y0272314D01*
X0140539Y0273912D02*
X0130524Y0273912D01*
X0130192Y0273657D02*
X0130899Y0274200D01*
X0131530Y0274830D01*
X0132072Y0275538D01*
X0132518Y0276310D01*
X0132859Y0277133D01*
X0133090Y0277994D01*
X0133176Y0278647D01*
X0127083Y0278647D01*
X0127083Y0272554D01*
X0127736Y0272640D01*
X0128597Y0272871D01*
X0129420Y0273212D01*
X0130192Y0273657D01*
X0132052Y0275511D02*
X0139279Y0275511D01*
X0138617Y0277109D02*
X0132849Y0277109D01*
X0133136Y0280306D02*
X0138339Y0280306D01*
X0138339Y0278708D02*
X0127083Y0278708D01*
X0125730Y0278708D02*
X0114474Y0278708D01*
X0114474Y0280306D02*
X0119677Y0280306D01*
X0120115Y0281905D02*
X0114044Y0281905D01*
X0113381Y0283503D02*
X0121042Y0283503D01*
X0122815Y0285102D02*
X0111907Y0285102D01*
X0114196Y0277109D02*
X0119963Y0277109D01*
X0119953Y0277133D02*
X0120294Y0276310D01*
X0120740Y0275538D01*
X0121283Y0274830D01*
X0121913Y0274200D01*
X0122620Y0273657D01*
X0123392Y0273212D01*
X0124216Y0272871D01*
X0125077Y0272640D01*
X0125730Y0272554D01*
X0125730Y0278647D01*
X0119637Y0278647D01*
X0119723Y0277994D01*
X0119953Y0277133D01*
X0120761Y0275511D02*
X0113533Y0275511D01*
X0112274Y0273912D02*
X0122288Y0273912D01*
X0125730Y0273912D02*
X0127083Y0273912D01*
X0127083Y0275511D02*
X0125730Y0275511D01*
X0125730Y0277109D02*
X0127083Y0277109D01*
X0131770Y0283503D02*
X0139431Y0283503D01*
X0138769Y0281905D02*
X0132697Y0281905D01*
X0129998Y0285102D02*
X0140906Y0285102D01*
X0149427Y0272314D02*
X0159451Y0272314D01*
X0158758Y0273912D02*
X0151644Y0273912D01*
X0152904Y0275511D02*
X0158330Y0275511D01*
X0158201Y0277109D02*
X0153566Y0277109D01*
X0153844Y0278708D02*
X0158201Y0278708D01*
X0158574Y0280306D02*
X0153844Y0280306D01*
X0153414Y0281905D02*
X0159054Y0281905D01*
X0159977Y0283503D02*
X0152752Y0283503D01*
X0151277Y0285102D02*
X0161252Y0285102D01*
X0160374Y0270715D02*
X0084230Y0270715D01*
X0084230Y0269117D02*
X0161940Y0269117D01*
X0151186Y0253132D02*
X0130863Y0253132D01*
X0131089Y0265920D02*
X0134219Y0265920D01*
X0137491Y0265920D02*
X0144849Y0265920D01*
X0142076Y0264321D02*
X0140265Y0264321D01*
X0140039Y0254730D02*
X0142301Y0254730D01*
X0140532Y0245139D02*
X0159179Y0245139D01*
X0160777Y0243541D02*
X0142648Y0243541D01*
X0144247Y0241942D02*
X0162376Y0241942D01*
X0163974Y0240344D02*
X0145200Y0240344D01*
X0145200Y0238745D02*
X0149217Y0238745D01*
X0149257Y0238815D02*
X0149020Y0238404D01*
X0148898Y0237946D01*
X0148898Y0235236D01*
X0152580Y0235236D01*
X0152580Y0239509D01*
X0150461Y0239509D01*
X0150003Y0239387D01*
X0149592Y0239150D01*
X0149257Y0238815D01*
X0148898Y0237147D02*
X0145200Y0237147D01*
X0145200Y0235548D02*
X0148898Y0235548D01*
X0148898Y0233950D02*
X0145939Y0233950D01*
X0147538Y0232351D02*
X0148898Y0232351D01*
X0149136Y0230753D02*
X0149601Y0230753D01*
X0150735Y0229154D02*
X0158200Y0229154D01*
X0158200Y0227556D02*
X0152334Y0227556D01*
X0153932Y0225957D02*
X0158200Y0225957D01*
X0158200Y0224359D02*
X0155055Y0224359D01*
X0155100Y0222760D02*
X0158200Y0222760D01*
X0158200Y0221162D02*
X0155100Y0221162D01*
X0155100Y0219563D02*
X0158200Y0219563D01*
X0163200Y0219563D02*
X0167200Y0219563D01*
X0167200Y0221162D02*
X0163200Y0221162D01*
X0163200Y0222760D02*
X0167200Y0222760D01*
X0167200Y0224359D02*
X0163200Y0224359D01*
X0163200Y0225957D02*
X0167200Y0225957D01*
X0167200Y0227556D02*
X0163200Y0227556D01*
X0163200Y0229154D02*
X0167200Y0229154D01*
X0167200Y0230753D02*
X0164286Y0230753D01*
X0164902Y0232351D02*
X0167200Y0232351D01*
X0167200Y0233950D02*
X0164902Y0233950D01*
X0164902Y0235548D02*
X0167200Y0235548D01*
X0167171Y0237147D02*
X0164902Y0237147D01*
X0164695Y0238745D02*
X0165573Y0238745D01*
X0156779Y0238745D02*
X0156509Y0238745D01*
X0153146Y0238745D02*
X0152580Y0238745D01*
X0152580Y0237147D02*
X0153146Y0237147D01*
X0153146Y0235548D02*
X0152580Y0235548D01*
X0152580Y0233950D02*
X0153146Y0233950D01*
X0153146Y0232351D02*
X0152580Y0232351D01*
X0152580Y0230753D02*
X0153146Y0230753D01*
X0156125Y0230753D02*
X0157188Y0230753D01*
X0150100Y0219563D02*
X0138436Y0219563D01*
X0139505Y0217964D02*
X0148304Y0217964D01*
X0148304Y0216366D02*
X0139505Y0216366D01*
X0139505Y0214474D02*
X0135626Y0214474D01*
X0135626Y0210201D01*
X0137942Y0210201D01*
X0138400Y0210323D01*
X0138811Y0210560D01*
X0139146Y0210896D01*
X0139383Y0211306D01*
X0139505Y0211764D01*
X0139505Y0214474D01*
X0139505Y0213169D02*
X0148304Y0213169D01*
X0148304Y0214767D02*
X0135626Y0214767D01*
X0135626Y0213169D02*
X0134667Y0213169D01*
X0134667Y0211570D02*
X0135626Y0211570D01*
X0132816Y0208373D02*
X0167200Y0208373D01*
X0167200Y0206775D02*
X0134414Y0206775D01*
X0136013Y0205176D02*
X0167200Y0205176D01*
X0167200Y0203578D02*
X0137611Y0203578D01*
X0138000Y0201979D02*
X0167200Y0201979D01*
X0167200Y0200381D02*
X0138000Y0200381D01*
X0138000Y0195154D02*
X0163264Y0195154D01*
X0165400Y0193018D01*
X0165400Y0186989D01*
X0153364Y0174954D01*
X0145803Y0174954D01*
X0144884Y0174573D01*
X0137164Y0166854D01*
X0109803Y0166854D01*
X0108884Y0166473D01*
X0106727Y0164316D01*
X0103973Y0164316D01*
X0099819Y0168470D01*
X0099116Y0169173D01*
X0098197Y0169554D01*
X0045636Y0169554D01*
X0035400Y0179789D01*
X0035400Y0184651D01*
X0035019Y0185570D01*
X0030200Y0190389D01*
X0030200Y0190988D01*
X0029408Y0192899D01*
X0027946Y0194362D01*
X0026034Y0195154D01*
X0023700Y0195154D01*
X0023700Y0219118D01*
X0029619Y0225037D01*
X0029686Y0225198D01*
X0029720Y0225198D01*
X0031484Y0223434D01*
X0032403Y0223054D01*
X0033664Y0223054D01*
X0035281Y0221437D01*
X0035984Y0220734D01*
X0036903Y0220354D01*
X0068497Y0220354D01*
X0069416Y0220734D01*
X0070119Y0221437D01*
X0081500Y0232818D01*
X0097381Y0216937D01*
X0098084Y0216234D01*
X0099003Y0215854D01*
X0102064Y0215854D01*
X0102283Y0215635D01*
X0101877Y0215635D01*
X0100706Y0214463D01*
X0100706Y0210444D01*
X0101196Y0209954D01*
X0100706Y0209463D01*
X0100706Y0205444D01*
X0101196Y0204954D01*
X0100706Y0204463D01*
X0100706Y0200444D01*
X0101196Y0199954D01*
X0100706Y0199463D01*
X0100706Y0195444D01*
X0101877Y0194272D01*
X0102483Y0194272D01*
X0101300Y0193089D01*
X0100200Y0194189D01*
X0100200Y0209851D01*
X0099819Y0210770D01*
X0099116Y0211473D01*
X0095516Y0215073D01*
X0094597Y0215454D01*
X0091904Y0215454D01*
X0091723Y0215635D01*
X0081405Y0215635D01*
X0080233Y0214463D01*
X0080233Y0210444D01*
X0080624Y0210054D01*
X0055536Y0210054D01*
X0055391Y0210198D01*
X0055857Y0210198D01*
X0056992Y0211333D01*
X0057131Y0211092D01*
X0057466Y0210757D01*
X0057877Y0210520D01*
X0058335Y0210398D01*
X0060454Y0210398D01*
X0060454Y0214671D01*
X0061020Y0214671D01*
X0061020Y0215236D01*
X0064702Y0215236D01*
X0064702Y0217946D01*
X0064580Y0218404D01*
X0064343Y0218815D01*
X0064008Y0219150D01*
X0063597Y0219387D01*
X0063139Y0219509D01*
X0061020Y0219509D01*
X0061020Y0215236D01*
X0060454Y0215236D01*
X0060454Y0219509D01*
X0058335Y0219509D01*
X0057877Y0219387D01*
X0057466Y0219150D01*
X0057131Y0218815D01*
X0056992Y0218574D01*
X0055857Y0219709D01*
X0049869Y0219709D01*
X0048698Y0218538D01*
X0048698Y0211369D01*
X0049869Y0210198D01*
X0050200Y0210198D01*
X0050200Y0208856D01*
X0050581Y0207937D01*
X0052381Y0206137D01*
X0053084Y0205434D01*
X0054003Y0205054D01*
X0072700Y0205054D01*
X0072700Y0196256D01*
X0073081Y0195337D01*
X0073784Y0194634D01*
X0085300Y0183118D01*
X0085300Y0179709D01*
X0084869Y0179709D01*
X0083698Y0178538D01*
X0083698Y0171369D01*
X0084869Y0170198D01*
X0090857Y0170198D01*
X0091800Y0171141D01*
X0092743Y0170198D01*
X0098731Y0170198D01*
X0099902Y0171369D01*
X0099902Y0178538D01*
X0098731Y0179709D01*
X0098400Y0179709D01*
X0098400Y0183118D01*
X0102716Y0187434D01*
X0102716Y0187434D01*
X0103419Y0188137D01*
X0103419Y0188137D01*
X0108116Y0192834D01*
X0108819Y0193537D01*
X0109124Y0194272D01*
X0112195Y0194272D01*
X0113367Y0195444D01*
X0113367Y0195551D01*
X0120584Y0188334D01*
X0121503Y0187954D01*
X0123698Y0187954D01*
X0123698Y0186369D01*
X0124869Y0185198D01*
X0124900Y0185198D01*
X0124900Y0184556D01*
X0125281Y0183637D01*
X0125984Y0182934D01*
X0128684Y0180234D01*
X0129603Y0179854D01*
X0140497Y0179854D01*
X0141416Y0180234D01*
X0142119Y0180937D01*
X0148236Y0187054D01*
X0148698Y0187054D01*
X0148698Y0186369D01*
X0149869Y0185198D01*
X0155857Y0185198D01*
X0156992Y0186333D01*
X0157131Y0186092D01*
X0157466Y0185757D01*
X0157877Y0185520D01*
X0158335Y0185398D01*
X0160454Y0185398D01*
X0160454Y0189671D01*
X0161020Y0189671D01*
X0161020Y0190236D01*
X0164702Y0190236D01*
X0164702Y0192946D01*
X0164580Y0193404D01*
X0164343Y0193815D01*
X0164008Y0194150D01*
X0163597Y0194387D01*
X0163139Y0194509D01*
X0161020Y0194509D01*
X0161020Y0190236D01*
X0160454Y0190236D01*
X0160454Y0194509D01*
X0158335Y0194509D01*
X0157877Y0194387D01*
X0157466Y0194150D01*
X0157131Y0193815D01*
X0156992Y0193574D01*
X0155857Y0194709D01*
X0149869Y0194709D01*
X0148698Y0193538D01*
X0148698Y0192054D01*
X0146703Y0192054D01*
X0145784Y0191673D01*
X0138964Y0184854D01*
X0131136Y0184854D01*
X0130791Y0185198D01*
X0130857Y0185198D01*
X0131800Y0186141D01*
X0132743Y0185198D01*
X0138731Y0185198D01*
X0139902Y0186369D01*
X0139902Y0193538D01*
X0138731Y0194709D01*
X0138000Y0194709D01*
X0138000Y0195154D01*
X0139453Y0193987D02*
X0149147Y0193987D01*
X0148698Y0192388D02*
X0139902Y0192388D01*
X0139902Y0190790D02*
X0144901Y0190790D01*
X0143302Y0189191D02*
X0139902Y0189191D01*
X0139902Y0187593D02*
X0141704Y0187593D01*
X0140105Y0185994D02*
X0139527Y0185994D01*
X0142381Y0181199D02*
X0159610Y0181199D01*
X0161208Y0182797D02*
X0143979Y0182797D01*
X0145578Y0184396D02*
X0162807Y0184396D01*
X0163139Y0185398D02*
X0163597Y0185520D01*
X0164008Y0185757D01*
X0164343Y0186092D01*
X0164580Y0186503D01*
X0164702Y0186961D01*
X0164702Y0189671D01*
X0161020Y0189671D01*
X0161020Y0185398D01*
X0163139Y0185398D01*
X0164245Y0185994D02*
X0164405Y0185994D01*
X0164702Y0187593D02*
X0165400Y0187593D01*
X0165400Y0189191D02*
X0164702Y0189191D01*
X0164702Y0190790D02*
X0165400Y0190790D01*
X0165400Y0192388D02*
X0164702Y0192388D01*
X0164431Y0193987D02*
X0164171Y0193987D01*
X0161020Y0193987D02*
X0160454Y0193987D01*
X0160454Y0192388D02*
X0161020Y0192388D01*
X0161020Y0190790D02*
X0160454Y0190790D01*
X0160454Y0189191D02*
X0161020Y0189191D01*
X0161020Y0187593D02*
X0160454Y0187593D01*
X0160454Y0185994D02*
X0161020Y0185994D01*
X0157229Y0185994D02*
X0156653Y0185994D01*
X0156579Y0193987D02*
X0157303Y0193987D01*
X0149073Y0185994D02*
X0147176Y0185994D01*
X0145443Y0174805D02*
X0099902Y0174805D01*
X0099902Y0176403D02*
X0154814Y0176403D01*
X0156413Y0178002D02*
X0099902Y0178002D01*
X0098840Y0179600D02*
X0158011Y0179600D01*
X0143517Y0173206D02*
X0099902Y0173206D01*
X0099902Y0171608D02*
X0141919Y0171608D01*
X0140320Y0170009D02*
X0045180Y0170009D01*
X0043581Y0171608D02*
X0083698Y0171608D01*
X0083698Y0173206D02*
X0041983Y0173206D01*
X0040384Y0174805D02*
X0083698Y0174805D01*
X0083698Y0176403D02*
X0038786Y0176403D01*
X0037187Y0178002D02*
X0045712Y0178002D01*
X0045821Y0177893D02*
X0047365Y0177254D01*
X0049035Y0177254D01*
X0049855Y0177593D01*
X0050794Y0176654D01*
X0057176Y0176654D01*
X0058347Y0177826D01*
X0058347Y0184207D01*
X0057601Y0184954D01*
X0058347Y0185700D01*
X0058347Y0192081D01*
X0057176Y0193253D01*
X0050794Y0193253D01*
X0049623Y0192081D01*
X0049623Y0185700D01*
X0050117Y0185205D01*
X0049035Y0185654D01*
X0047365Y0185654D01*
X0046044Y0185107D01*
X0046044Y0188735D01*
X0044873Y0189906D01*
X0042600Y0189906D01*
X0042600Y0190951D01*
X0042219Y0191870D01*
X0041516Y0192573D01*
X0038100Y0195989D01*
X0038100Y0210198D01*
X0038731Y0210198D01*
X0039902Y0211369D01*
X0039902Y0218538D01*
X0038731Y0219709D01*
X0032743Y0219709D01*
X0031608Y0218574D01*
X0031469Y0218815D01*
X0031134Y0219150D01*
X0030723Y0219387D01*
X0030265Y0219509D01*
X0028146Y0219509D01*
X0028146Y0215236D01*
X0027580Y0215236D01*
X0027580Y0214671D01*
X0023898Y0214671D01*
X0023898Y0211961D01*
X0024020Y0211503D01*
X0024257Y0211092D01*
X0024592Y0210757D01*
X0025003Y0210520D01*
X0025461Y0210398D01*
X0027580Y0210398D01*
X0027580Y0214671D01*
X0028146Y0214671D01*
X0028146Y0210398D01*
X0030265Y0210398D01*
X0030723Y0210520D01*
X0031134Y0210757D01*
X0031469Y0211092D01*
X0031608Y0211333D01*
X0032743Y0210198D01*
X0033100Y0210198D01*
X0033100Y0194456D01*
X0033481Y0193537D01*
X0037112Y0189906D01*
X0036916Y0189906D01*
X0035745Y0188735D01*
X0035745Y0181172D01*
X0036916Y0180001D01*
X0044256Y0180001D01*
X0044639Y0179074D01*
X0045821Y0177893D01*
X0044422Y0179600D02*
X0035589Y0179600D01*
X0035745Y0181199D02*
X0035400Y0181199D01*
X0035400Y0182797D02*
X0035745Y0182797D01*
X0035745Y0184396D02*
X0035400Y0184396D01*
X0035745Y0185994D02*
X0034595Y0185994D01*
X0035745Y0187593D02*
X0032996Y0187593D01*
X0031398Y0189191D02*
X0036201Y0189191D01*
X0036228Y0190790D02*
X0030200Y0190790D01*
X0029620Y0192388D02*
X0034630Y0192388D01*
X0033294Y0193987D02*
X0028321Y0193987D01*
X0023700Y0195585D02*
X0033100Y0195585D01*
X0033100Y0197184D02*
X0023700Y0197184D01*
X0023700Y0198782D02*
X0033100Y0198782D01*
X0033100Y0200381D02*
X0023700Y0200381D01*
X0023700Y0201979D02*
X0033100Y0201979D01*
X0033100Y0203578D02*
X0023700Y0203578D01*
X0023700Y0205176D02*
X0033100Y0205176D01*
X0033100Y0206775D02*
X0023700Y0206775D01*
X0023700Y0208373D02*
X0033100Y0208373D01*
X0033100Y0209972D02*
X0023700Y0209972D01*
X0023700Y0211570D02*
X0024002Y0211570D01*
X0023898Y0213169D02*
X0023700Y0213169D01*
X0023700Y0214767D02*
X0027580Y0214767D01*
X0027580Y0215236D02*
X0023898Y0215236D01*
X0023898Y0217946D01*
X0024020Y0218404D01*
X0024257Y0218815D01*
X0024592Y0219150D01*
X0025003Y0219387D01*
X0025461Y0219509D01*
X0027580Y0219509D01*
X0027580Y0215236D01*
X0027580Y0216366D02*
X0028146Y0216366D01*
X0028146Y0217964D02*
X0027580Y0217964D01*
X0025743Y0221162D02*
X0035556Y0221162D01*
X0035281Y0221437D02*
X0035281Y0221437D01*
X0033958Y0222760D02*
X0027342Y0222760D01*
X0028941Y0224359D02*
X0030559Y0224359D01*
X0032597Y0219563D02*
X0024145Y0219563D01*
X0023902Y0217964D02*
X0023700Y0217964D01*
X0023700Y0216366D02*
X0023898Y0216366D01*
X0027580Y0213169D02*
X0028146Y0213169D01*
X0028146Y0211570D02*
X0027580Y0211570D01*
X0018912Y0221162D02*
X0011600Y0221162D01*
X0011600Y0222760D02*
X0020271Y0222760D01*
X0021869Y0224359D02*
X0011600Y0224359D01*
X0011600Y0225957D02*
X0023468Y0225957D01*
X0023698Y0227556D02*
X0011600Y0227556D01*
X0011600Y0229154D02*
X0023698Y0229154D01*
X0023698Y0230753D02*
X0011600Y0230753D01*
X0011600Y0232351D02*
X0023698Y0232351D01*
X0024109Y0233950D02*
X0011600Y0233950D01*
X0011600Y0235548D02*
X0077159Y0235548D01*
X0078100Y0237147D02*
X0011600Y0237147D01*
X0011600Y0238745D02*
X0059688Y0238745D01*
X0058855Y0240344D02*
X0011600Y0240344D01*
X0011600Y0241942D02*
X0058855Y0241942D01*
X0059657Y0248336D02*
X0038203Y0248336D01*
X0034329Y0245139D02*
X0011600Y0245139D01*
X0011600Y0243541D02*
X0035927Y0243541D01*
X0032730Y0246738D02*
X0011600Y0246738D01*
X0011600Y0248336D02*
X0031132Y0248336D01*
X0030550Y0249935D02*
X0011600Y0249935D01*
X0011600Y0251533D02*
X0028894Y0251533D01*
X0028894Y0253132D02*
X0011600Y0253132D01*
X0011600Y0254730D02*
X0028894Y0254730D01*
X0028894Y0256329D02*
X0011600Y0256329D01*
X0011600Y0257927D02*
X0028894Y0257927D01*
X0029686Y0259526D02*
X0011600Y0259526D01*
X0011600Y0261124D02*
X0030954Y0261124D01*
X0030954Y0262723D02*
X0011600Y0262723D01*
X0011600Y0264321D02*
X0030954Y0264321D01*
X0030954Y0265920D02*
X0011600Y0265920D01*
X0011600Y0267518D02*
X0014310Y0267518D01*
X0011940Y0269117D02*
X0011600Y0269117D01*
X0024290Y0267518D02*
X0031125Y0267518D01*
X0031600Y0269117D02*
X0026660Y0269117D01*
X0028226Y0270715D02*
X0031600Y0270715D01*
X0031600Y0272314D02*
X0029149Y0272314D01*
X0029842Y0273912D02*
X0031600Y0273912D01*
X0032148Y0275511D02*
X0030270Y0275511D01*
X0030399Y0277109D02*
X0033402Y0277109D01*
X0030399Y0278708D02*
X0059370Y0278708D01*
X0059370Y0280306D02*
X0030026Y0280306D01*
X0029546Y0281905D02*
X0059370Y0281905D01*
X0059370Y0283503D02*
X0028623Y0283503D01*
X0027348Y0285102D02*
X0059468Y0285102D01*
X0059370Y0277109D02*
X0049862Y0277109D01*
X0050057Y0276967D02*
X0049421Y0277430D01*
X0048719Y0277787D01*
X0047971Y0278030D01*
X0047194Y0278154D01*
X0047000Y0278154D01*
X0047000Y0270154D01*
X0051800Y0270154D01*
X0051800Y0273547D01*
X0051677Y0274324D01*
X0051434Y0275073D01*
X0051076Y0275774D01*
X0050614Y0276411D01*
X0050057Y0276967D01*
X0051211Y0275511D02*
X0059370Y0275511D01*
X0059370Y0273912D02*
X0051742Y0273912D01*
X0051800Y0272314D02*
X0071000Y0272314D01*
X0071000Y0270715D02*
X0072600Y0270715D01*
X0072600Y0269117D02*
X0071000Y0269117D01*
X0071000Y0267518D02*
X0072600Y0267518D01*
X0072600Y0265920D02*
X0071000Y0265920D01*
X0071000Y0264321D02*
X0072600Y0264321D01*
X0072600Y0262723D02*
X0071000Y0262723D01*
X0071000Y0261124D02*
X0072600Y0261124D01*
X0072600Y0259526D02*
X0071000Y0259526D01*
X0065990Y0248336D02*
X0077610Y0248336D01*
X0076808Y0246738D02*
X0066792Y0246738D01*
X0066792Y0245139D02*
X0076808Y0245139D01*
X0076808Y0243541D02*
X0066792Y0243541D01*
X0066792Y0241942D02*
X0076808Y0241942D01*
X0076808Y0240344D02*
X0066792Y0240344D01*
X0065959Y0238745D02*
X0077641Y0238745D01*
X0075561Y0233950D02*
X0064066Y0233950D01*
X0063991Y0233993D02*
X0063533Y0234116D01*
X0061315Y0234116D01*
X0061315Y0230335D01*
X0065096Y0230335D01*
X0065096Y0232553D01*
X0064973Y0233011D01*
X0064736Y0233421D01*
X0064401Y0233756D01*
X0063991Y0233993D01*
X0065096Y0232351D02*
X0073962Y0232351D01*
X0072364Y0230753D02*
X0065096Y0230753D01*
X0065096Y0229154D02*
X0070765Y0229154D01*
X0069166Y0227556D02*
X0065096Y0227556D01*
X0064065Y0225957D02*
X0067568Y0225957D01*
X0071442Y0222760D02*
X0091558Y0222760D01*
X0093156Y0221162D02*
X0069843Y0221162D01*
X0073041Y0224359D02*
X0089959Y0224359D01*
X0088361Y0225957D02*
X0074639Y0225957D01*
X0076238Y0227556D02*
X0086762Y0227556D01*
X0085164Y0229154D02*
X0077836Y0229154D01*
X0079435Y0230753D02*
X0083565Y0230753D01*
X0081967Y0232351D02*
X0081033Y0232351D01*
X0084242Y0237147D02*
X0098898Y0237147D01*
X0098898Y0235548D02*
X0085841Y0235548D01*
X0087439Y0233950D02*
X0098898Y0233950D01*
X0098898Y0232351D02*
X0089038Y0232351D01*
X0090636Y0230753D02*
X0099601Y0230753D01*
X0095432Y0225957D02*
X0120761Y0225957D01*
X0121769Y0224359D02*
X0097031Y0224359D01*
X0098629Y0222760D02*
X0120171Y0222760D01*
X0118812Y0221162D02*
X0100228Y0221162D01*
X0096354Y0217964D02*
X0064698Y0217964D01*
X0064702Y0216366D02*
X0097952Y0216366D01*
X0095822Y0214767D02*
X0101010Y0214767D01*
X0100706Y0213169D02*
X0097420Y0213169D01*
X0099019Y0211570D02*
X0100706Y0211570D01*
X0101178Y0209972D02*
X0100150Y0209972D01*
X0100200Y0208373D02*
X0100706Y0208373D01*
X0100706Y0206775D02*
X0100200Y0206775D01*
X0100200Y0205176D02*
X0100973Y0205176D01*
X0100706Y0203578D02*
X0100200Y0203578D01*
X0100200Y0201979D02*
X0100706Y0201979D01*
X0100769Y0200381D02*
X0100200Y0200381D01*
X0100200Y0198782D02*
X0100706Y0198782D01*
X0100706Y0197184D02*
X0100200Y0197184D01*
X0100200Y0195585D02*
X0100706Y0195585D01*
X0100402Y0193987D02*
X0102198Y0193987D01*
X0104473Y0189191D02*
X0119727Y0189191D01*
X0118128Y0190790D02*
X0106072Y0190790D01*
X0107670Y0192388D02*
X0116530Y0192388D01*
X0114931Y0193987D02*
X0109006Y0193987D01*
X0102875Y0187593D02*
X0123698Y0187593D01*
X0124073Y0185994D02*
X0101276Y0185994D01*
X0099678Y0184396D02*
X0124966Y0184396D01*
X0126121Y0182797D02*
X0098400Y0182797D01*
X0098400Y0181199D02*
X0127719Y0181199D01*
X0131653Y0185994D02*
X0131947Y0185994D01*
X0132021Y0193987D02*
X0131579Y0193987D01*
X0133000Y0195585D02*
X0120404Y0195585D01*
X0122002Y0193987D02*
X0124147Y0193987D01*
X0118805Y0197184D02*
X0133000Y0197184D01*
X0133000Y0198782D02*
X0117207Y0198782D01*
X0115608Y0200381D02*
X0133000Y0200381D01*
X0132139Y0201979D02*
X0114010Y0201979D01*
X0113367Y0203578D02*
X0130540Y0203578D01*
X0128942Y0205176D02*
X0115594Y0205176D01*
X0119162Y0227556D02*
X0093834Y0227556D01*
X0092235Y0229154D02*
X0117564Y0229154D01*
X0115965Y0230753D02*
X0114286Y0230753D01*
X0099217Y0238745D02*
X0083912Y0238745D01*
X0094755Y0219563D02*
X0056003Y0219563D01*
X0056222Y0225957D02*
X0057802Y0225957D01*
X0060553Y0225957D02*
X0061315Y0225957D01*
X0061315Y0227556D02*
X0060553Y0227556D01*
X0060553Y0229154D02*
X0061315Y0229154D01*
X0061315Y0230753D02*
X0060553Y0230753D01*
X0060553Y0232351D02*
X0061315Y0232351D01*
X0061315Y0233950D02*
X0060553Y0233950D01*
X0057802Y0233950D02*
X0056223Y0233950D01*
X0049109Y0233950D02*
X0039491Y0233950D01*
X0039490Y0225957D02*
X0049110Y0225957D01*
X0049723Y0219563D02*
X0038877Y0219563D01*
X0039902Y0217964D02*
X0048698Y0217964D01*
X0048698Y0216366D02*
X0039902Y0216366D01*
X0039902Y0214767D02*
X0048698Y0214767D01*
X0048698Y0213169D02*
X0039902Y0213169D01*
X0039902Y0211570D02*
X0048698Y0211570D01*
X0050200Y0209972D02*
X0038100Y0209972D01*
X0038100Y0208373D02*
X0050400Y0208373D01*
X0051743Y0206775D02*
X0038100Y0206775D01*
X0038100Y0205176D02*
X0053706Y0205176D01*
X0061020Y0210398D02*
X0063139Y0210398D01*
X0063597Y0210520D01*
X0064008Y0210757D01*
X0064343Y0211092D01*
X0064580Y0211503D01*
X0064702Y0211961D01*
X0064702Y0214671D01*
X0061020Y0214671D01*
X0061020Y0210398D01*
X0061020Y0211570D02*
X0060454Y0211570D01*
X0060454Y0213169D02*
X0061020Y0213169D01*
X0061020Y0214767D02*
X0080537Y0214767D01*
X0080233Y0213169D02*
X0064702Y0213169D01*
X0064598Y0211570D02*
X0080233Y0211570D01*
X0072700Y0203578D02*
X0038100Y0203578D01*
X0038100Y0201979D02*
X0072700Y0201979D01*
X0072700Y0200381D02*
X0038100Y0200381D01*
X0038100Y0198782D02*
X0072700Y0198782D01*
X0072700Y0197184D02*
X0038100Y0197184D01*
X0038504Y0195585D02*
X0072978Y0195585D01*
X0074431Y0193987D02*
X0040102Y0193987D01*
X0041701Y0192388D02*
X0049930Y0192388D01*
X0049623Y0190790D02*
X0042600Y0190790D01*
X0045588Y0189191D02*
X0049623Y0189191D01*
X0049623Y0187593D02*
X0046044Y0187593D01*
X0046044Y0185994D02*
X0049623Y0185994D01*
X0058159Y0184396D02*
X0084022Y0184396D01*
X0085300Y0182797D02*
X0058347Y0182797D01*
X0058347Y0181199D02*
X0085300Y0181199D01*
X0084760Y0179600D02*
X0058347Y0179600D01*
X0058347Y0178002D02*
X0083698Y0178002D01*
X0090300Y0179709D02*
X0090300Y0184651D01*
X0089919Y0185570D01*
X0077700Y0197789D01*
X0077700Y0198063D01*
X0077965Y0197954D01*
X0079635Y0197954D01*
X0080433Y0198284D01*
X0080433Y0197454D01*
X0086564Y0197454D01*
X0092694Y0197454D01*
X0092694Y0198872D01*
X0092572Y0199329D01*
X0092335Y0199740D01*
X0092263Y0199812D01*
X0092894Y0200444D01*
X0092894Y0204463D01*
X0092404Y0204954D01*
X0092894Y0205444D01*
X0092894Y0209463D01*
X0092404Y0209954D01*
X0092894Y0210444D01*
X0092894Y0210454D01*
X0093064Y0210454D01*
X0095200Y0208318D01*
X0095200Y0192656D01*
X0095581Y0191737D01*
X0097764Y0189554D01*
X0093781Y0185570D01*
X0093400Y0184651D01*
X0093400Y0179709D01*
X0092743Y0179709D01*
X0091800Y0178766D01*
X0090857Y0179709D01*
X0090300Y0179709D01*
X0090966Y0179600D02*
X0092634Y0179600D01*
X0093400Y0181199D02*
X0090300Y0181199D01*
X0090300Y0182797D02*
X0093400Y0182797D01*
X0093400Y0184396D02*
X0090300Y0184396D01*
X0089495Y0185994D02*
X0094205Y0185994D01*
X0095804Y0187593D02*
X0087896Y0187593D01*
X0086298Y0189191D02*
X0097402Y0189191D01*
X0096528Y0190790D02*
X0084699Y0190790D01*
X0083101Y0192388D02*
X0095311Y0192388D01*
X0095200Y0193987D02*
X0081502Y0193987D01*
X0081538Y0194595D02*
X0081996Y0194472D01*
X0086564Y0194472D01*
X0091131Y0194472D01*
X0091589Y0194595D01*
X0092000Y0194832D01*
X0092335Y0195167D01*
X0092572Y0195578D01*
X0092694Y0196035D01*
X0092694Y0197453D01*
X0086564Y0197453D01*
X0086564Y0194472D01*
X0086564Y0197453D01*
X0086564Y0197453D01*
X0086564Y0197454D01*
X0086564Y0197453D01*
X0080433Y0197453D01*
X0080433Y0196035D01*
X0080556Y0195578D01*
X0080793Y0195167D01*
X0081128Y0194832D01*
X0081538Y0194595D01*
X0080554Y0195585D02*
X0079904Y0195585D01*
X0080433Y0197184D02*
X0078305Y0197184D01*
X0076030Y0192388D02*
X0058040Y0192388D01*
X0058347Y0190790D02*
X0077628Y0190790D01*
X0079227Y0189191D02*
X0058347Y0189191D01*
X0058347Y0187593D02*
X0080825Y0187593D01*
X0082424Y0185994D02*
X0058347Y0185994D01*
X0039707Y0168411D02*
X0011600Y0168411D01*
X0011600Y0170009D02*
X0038109Y0170009D01*
X0036510Y0171608D02*
X0011600Y0171608D01*
X0011600Y0173206D02*
X0034912Y0173206D01*
X0033313Y0174805D02*
X0026158Y0174805D01*
X0028804Y0176403D02*
X0031715Y0176403D01*
X0030505Y0178002D02*
X0029820Y0178002D01*
X0030200Y0179600D02*
X0030400Y0179600D01*
X0030400Y0181199D02*
X0030113Y0181199D01*
X0030400Y0182797D02*
X0029451Y0182797D01*
X0029122Y0184396D02*
X0027864Y0184396D01*
X0017442Y0174805D02*
X0011600Y0174805D01*
X0011600Y0176403D02*
X0014796Y0176403D01*
X0013780Y0178002D02*
X0011600Y0178002D01*
X0011600Y0179600D02*
X0013400Y0179600D01*
X0013487Y0181199D02*
X0011600Y0181199D01*
X0011600Y0182797D02*
X0014149Y0182797D01*
X0015736Y0184396D02*
X0011600Y0184396D01*
X0011600Y0185994D02*
X0015205Y0185994D01*
X0013949Y0187593D02*
X0011600Y0187593D01*
X0011600Y0189191D02*
X0013400Y0189191D01*
X0013400Y0190790D02*
X0011600Y0190790D01*
X0011600Y0192388D02*
X0013980Y0192388D01*
X0015279Y0193987D02*
X0011600Y0193987D01*
X0011600Y0195585D02*
X0018700Y0195585D01*
X0018700Y0197184D02*
X0011600Y0197184D01*
X0011600Y0198782D02*
X0018700Y0198782D01*
X0018700Y0200381D02*
X0011600Y0200381D01*
X0011600Y0201979D02*
X0018700Y0201979D01*
X0018700Y0203578D02*
X0011600Y0203578D01*
X0011600Y0205176D02*
X0018700Y0205176D01*
X0018700Y0206775D02*
X0011600Y0206775D01*
X0011600Y0208373D02*
X0018700Y0208373D01*
X0018700Y0209972D02*
X0011600Y0209972D01*
X0011600Y0211570D02*
X0018700Y0211570D01*
X0018700Y0213169D02*
X0011600Y0213169D01*
X0011600Y0214767D02*
X0018700Y0214767D01*
X0018700Y0216366D02*
X0011600Y0216366D01*
X0011600Y0217964D02*
X0018700Y0217964D01*
X0018700Y0219563D02*
X0011600Y0219563D01*
X0031617Y0233950D02*
X0031983Y0233950D01*
X0040123Y0262723D02*
X0043841Y0262723D01*
X0042428Y0264321D02*
X0041421Y0264321D01*
X0046600Y0264321D02*
X0047000Y0264321D01*
X0047000Y0262723D02*
X0046600Y0262723D01*
X0046600Y0265920D02*
X0047000Y0265920D01*
X0047000Y0267518D02*
X0046600Y0267518D01*
X0046600Y0269117D02*
X0047000Y0269117D01*
X0047000Y0270715D02*
X0046600Y0270715D01*
X0046600Y0272314D02*
X0047000Y0272314D01*
X0047000Y0273912D02*
X0046600Y0273912D01*
X0046600Y0275511D02*
X0047000Y0275511D01*
X0047000Y0277109D02*
X0046600Y0277109D01*
X0043738Y0277109D02*
X0040198Y0277109D01*
X0041452Y0275511D02*
X0042389Y0275511D01*
X0049759Y0262723D02*
X0059370Y0262723D01*
X0059370Y0264321D02*
X0051172Y0264321D01*
X0051730Y0265920D02*
X0059370Y0265920D01*
X0059370Y0267518D02*
X0051800Y0267518D01*
X0051800Y0269117D02*
X0059370Y0269117D01*
X0059370Y0270715D02*
X0051800Y0270715D01*
X0072600Y0272314D02*
X0103385Y0272314D01*
X0101168Y0273912D02*
X0084230Y0273912D01*
X0084230Y0275511D02*
X0099909Y0275511D01*
X0099247Y0277109D02*
X0084230Y0277109D01*
X0084230Y0278708D02*
X0098969Y0278708D01*
X0098969Y0280306D02*
X0084230Y0280306D01*
X0084230Y0281905D02*
X0099399Y0281905D01*
X0100061Y0283503D02*
X0084230Y0283503D01*
X0084132Y0285102D02*
X0101536Y0285102D01*
X0111659Y0254730D02*
X0112774Y0254730D01*
X0131412Y0230753D02*
X0132188Y0230753D01*
X0134667Y0219563D02*
X0135626Y0219563D01*
X0135626Y0217964D02*
X0134667Y0217964D01*
X0134667Y0216366D02*
X0135626Y0216366D01*
X0139454Y0211570D02*
X0148496Y0211570D01*
X0148459Y0224359D02*
X0140541Y0224359D01*
X0142139Y0225957D02*
X0146861Y0225957D01*
X0145262Y0227556D02*
X0143738Y0227556D01*
X0131217Y0209972D02*
X0167200Y0209972D01*
X0167200Y0211570D02*
X0165104Y0211570D01*
X0165296Y0213169D02*
X0167200Y0213169D01*
X0167200Y0214767D02*
X0165296Y0214767D01*
X0165296Y0216366D02*
X0167200Y0216366D01*
X0167200Y0217964D02*
X0165296Y0217964D01*
X0166707Y0198782D02*
X0167200Y0198782D01*
X0138722Y0168411D02*
X0099878Y0168411D01*
X0101477Y0166812D02*
X0109703Y0166812D01*
X0107625Y0165214D02*
X0103075Y0165214D01*
X0110296Y0160814D02*
X0110296Y0157454D01*
X0133898Y0157454D01*
X0133898Y0159671D01*
X0137580Y0159671D01*
X0137580Y0160236D01*
X0133898Y0160236D01*
X0133898Y0161854D01*
X0111336Y0161854D01*
X0110296Y0160814D01*
X0110296Y0160418D02*
X0133898Y0160418D01*
X0133898Y0158820D02*
X0110296Y0158820D01*
X0095200Y0195585D02*
X0092574Y0195585D01*
X0092694Y0197184D02*
X0095200Y0197184D01*
X0095200Y0198782D02*
X0092694Y0198782D01*
X0092831Y0200381D02*
X0095200Y0200381D01*
X0095200Y0201979D02*
X0092894Y0201979D01*
X0092894Y0203578D02*
X0095200Y0203578D01*
X0095200Y0205176D02*
X0092627Y0205176D01*
X0092894Y0206775D02*
X0095200Y0206775D01*
X0095145Y0208373D02*
X0092894Y0208373D01*
X0092422Y0209972D02*
X0093546Y0209972D01*
X0086564Y0197184D02*
X0086564Y0197184D01*
X0086564Y0195585D02*
X0086564Y0195585D01*
X0061020Y0216366D02*
X0060454Y0216366D01*
X0060454Y0217964D02*
X0061020Y0217964D01*
X0041306Y0166812D02*
X0011600Y0166812D01*
X0011600Y0165214D02*
X0040237Y0165214D01*
X0038639Y0163615D02*
X0011600Y0163615D01*
X0011600Y0162017D02*
X0021296Y0162017D01*
X0021296Y0160418D02*
X0011600Y0160418D01*
X0011600Y0158820D02*
X0021296Y0158820D01*
X0021296Y0122054D02*
X0011600Y0122054D01*
X0011600Y0120455D02*
X0021296Y0120455D01*
X0021296Y0118857D02*
X0011600Y0118857D01*
X0011600Y0117258D02*
X0021883Y0117258D01*
X0024684Y0115660D02*
X0011600Y0115660D01*
X0011600Y0114061D02*
X0026283Y0114061D01*
X0027881Y0112463D02*
X0011600Y0112463D01*
X0011600Y0110864D02*
X0023032Y0110864D01*
X0022320Y0109266D02*
X0011600Y0109266D01*
X0011600Y0107667D02*
X0022320Y0107667D01*
X0022320Y0106069D02*
X0011600Y0106069D01*
X0011600Y0104470D02*
X0022320Y0104470D01*
X0023219Y0102872D02*
X0011600Y0102872D01*
X0011600Y0101273D02*
X0031945Y0101273D01*
X0030346Y0102872D02*
X0030145Y0102872D01*
X0050862Y0077295D02*
X0071231Y0077295D01*
X0070947Y0085288D02*
X0104300Y0085288D01*
X0161079Y0075697D02*
X0161847Y0075697D01*
D29*
X0119300Y0082454D03*
X0086800Y0094954D03*
X0081800Y0059954D03*
X0051800Y0094954D03*
X0071800Y0184954D03*
X0121800Y0174954D03*
X0151800Y0244954D03*
X0166800Y0264954D03*
X0021800Y0264954D03*
D30*
X0048200Y0181454D03*
X0078800Y0202154D03*
X0091800Y0189954D03*
X0124300Y0159954D03*
M02*
