G75*
%MOIN*%
%OFA0B0*%
%FSLAX25Y25*%
%IPPOS*%
%LPD*%
%AMOC8*
5,1,8,0,0,1.08239X$1,22.5*
%
%ADD10R,0.04724X0.04724*%
%ADD11R,0.05906X0.05118*%
%ADD12R,0.05118X0.05906*%
%ADD13R,0.07874X0.09449*%
%ADD14R,0.01969X0.09087*%
%ADD15R,0.08000X0.02600*%
%ADD16R,0.04724X0.02165*%
%ADD17R,0.21260X0.24409*%
%ADD18R,0.03937X0.06299*%
%ADD19R,0.07008X0.05984*%
%ADD20R,0.04331X0.05512*%
%ADD21R,0.05512X0.04331*%
%ADD22R,0.06299X0.05906*%
%ADD23R,0.08661X0.02362*%
D10*
X0019792Y0069835D03*
X0019792Y0080072D03*
X0043808Y0080072D03*
X0043808Y0069835D03*
X0097666Y0159954D03*
X0105934Y0159954D03*
X0152666Y0214954D03*
X0160934Y0214954D03*
X0060934Y0229954D03*
X0052666Y0229954D03*
X0053985Y0188891D03*
X0053985Y0181017D03*
D11*
X0101800Y0088300D03*
X0101800Y0081607D03*
X0081800Y0070800D03*
X0081800Y0064107D03*
X0061800Y0064107D03*
X0061800Y0070800D03*
X0161800Y0063300D03*
X0161800Y0056607D03*
X0161800Y0081607D03*
X0161800Y0088300D03*
D12*
X0110146Y0234954D03*
X0103454Y0234954D03*
X0040146Y0254954D03*
X0033454Y0254954D03*
D13*
X0049477Y0046233D03*
X0049477Y0024580D03*
X0084123Y0024580D03*
X0084123Y0046233D03*
D14*
X0073099Y0048454D03*
X0069950Y0048454D03*
X0066800Y0048454D03*
X0063650Y0048454D03*
X0060501Y0048454D03*
D15*
X0122200Y0074954D03*
X0122200Y0079954D03*
X0122200Y0084954D03*
X0122200Y0089954D03*
X0146400Y0089954D03*
X0146400Y0084954D03*
X0146400Y0079954D03*
X0146400Y0074954D03*
D16*
X0126918Y0106213D03*
X0126918Y0109954D03*
X0126918Y0113694D03*
X0116682Y0113694D03*
X0116682Y0106213D03*
D17*
X0071800Y0272296D03*
D18*
X0062824Y0243556D03*
X0080776Y0243556D03*
D19*
X0046800Y0158241D03*
X0036800Y0158241D03*
X0026800Y0158241D03*
X0026800Y0121666D03*
X0036800Y0121666D03*
X0046800Y0121666D03*
D20*
X0040737Y0099954D03*
X0032863Y0099954D03*
X0062863Y0109954D03*
X0070737Y0109954D03*
X0087863Y0174954D03*
X0095737Y0174954D03*
X0127863Y0194954D03*
X0135737Y0194954D03*
X0135737Y0214954D03*
X0127863Y0214954D03*
X0127863Y0234954D03*
X0135737Y0234954D03*
X0152863Y0234954D03*
X0160737Y0234954D03*
X0160737Y0194954D03*
X0152863Y0194954D03*
X0145737Y0159954D03*
X0137863Y0159954D03*
X0155363Y0109954D03*
X0163237Y0109954D03*
X0060737Y0214954D03*
X0052863Y0214954D03*
X0035737Y0214954D03*
X0027863Y0214954D03*
X0027863Y0229954D03*
X0035737Y0229954D03*
D21*
X0066800Y0093891D03*
X0066800Y0086017D03*
D22*
X0040894Y0184954D03*
D23*
X0086564Y0197454D03*
X0086564Y0202454D03*
X0086564Y0207454D03*
X0086564Y0212454D03*
X0107036Y0212454D03*
X0107036Y0207454D03*
X0107036Y0202454D03*
X0107036Y0197454D03*
M02*
