G75*
%MOIN*%
%OFA0B0*%
%FSLAX25Y25*%
%IPPOS*%
%LPD*%
%AMOC8*
5,1,8,0,0,1.08239X$1,22.5*
%
%ADD10C,0.13398*%
%ADD11R,0.05524X0.05524*%
%ADD12C,0.07200*%
%ADD13R,0.06706X0.05918*%
%ADD14R,0.05918X0.06706*%
%ADD15R,0.08674X0.10249*%
%ADD16R,0.02769X0.09887*%
%ADD17C,0.04737*%
%ADD18R,0.08800X0.03400*%
%ADD19R,0.05524X0.02965*%
%ADD20R,0.22060X0.25209*%
%ADD21R,0.04737X0.07099*%
%ADD22R,0.07808X0.06784*%
%ADD23R,0.05131X0.06312*%
%ADD24R,0.06312X0.05131*%
%ADD25R,0.07099X0.06706*%
%ADD26C,0.10800*%
%ADD27C,0.09658*%
%ADD28C,0.06706*%
%ADD29R,0.09461X0.03162*%
%ADD30C,0.05556*%
%ADD31C,0.05200*%
D10*
X0019300Y0027454D03*
X0169300Y0027454D03*
X0169300Y0277454D03*
X0019300Y0277454D03*
D11*
X0052666Y0229954D03*
X0060934Y0229954D03*
X0053985Y0188891D03*
X0053985Y0181017D03*
X0097666Y0159954D03*
X0105934Y0159954D03*
X0152666Y0214954D03*
X0160934Y0214954D03*
X0043808Y0080072D03*
X0043808Y0069835D03*
X0019792Y0069835D03*
X0019792Y0080072D03*
D12*
X0018600Y0179954D02*
X0025000Y0179954D01*
X0025000Y0189954D02*
X0018600Y0189954D01*
X0036800Y0266754D02*
X0036800Y0273154D01*
X0046800Y0273154D02*
X0046800Y0266754D01*
D13*
X0101800Y0088300D03*
X0101800Y0081607D03*
X0081800Y0070800D03*
X0081800Y0064107D03*
X0061800Y0064107D03*
X0061800Y0070800D03*
X0161800Y0063300D03*
X0161800Y0056607D03*
X0161800Y0081607D03*
X0161800Y0088300D03*
D14*
X0110146Y0234954D03*
X0103454Y0234954D03*
X0040146Y0254954D03*
X0033454Y0254954D03*
D15*
X0049477Y0046233D03*
X0049477Y0024580D03*
X0084123Y0024580D03*
X0084123Y0046233D03*
D16*
X0073099Y0048454D03*
X0069950Y0048454D03*
X0066800Y0048454D03*
X0063650Y0048454D03*
X0060501Y0048454D03*
D17*
X0058139Y0036391D03*
X0075461Y0036391D03*
D18*
X0122200Y0074954D03*
X0122200Y0079954D03*
X0122200Y0084954D03*
X0122200Y0089954D03*
X0146400Y0089954D03*
X0146400Y0084954D03*
X0146400Y0079954D03*
X0146400Y0074954D03*
D19*
X0126918Y0106213D03*
X0126918Y0109954D03*
X0126918Y0113694D03*
X0116682Y0113694D03*
X0116682Y0106213D03*
D20*
X0071800Y0272296D03*
D21*
X0062824Y0243556D03*
X0080776Y0243556D03*
D22*
X0046800Y0158241D03*
X0036800Y0158241D03*
X0026800Y0158241D03*
X0026800Y0121666D03*
X0036800Y0121666D03*
X0046800Y0121666D03*
D23*
X0040737Y0099954D03*
X0032863Y0099954D03*
X0062863Y0109954D03*
X0070737Y0109954D03*
X0087863Y0174954D03*
X0095737Y0174954D03*
X0127863Y0194954D03*
X0135737Y0194954D03*
X0135737Y0214954D03*
X0127863Y0214954D03*
X0127863Y0234954D03*
X0135737Y0234954D03*
X0152863Y0234954D03*
X0160737Y0234954D03*
X0160737Y0194954D03*
X0152863Y0194954D03*
X0145737Y0159954D03*
X0137863Y0159954D03*
X0155363Y0109954D03*
X0163237Y0109954D03*
X0060737Y0214954D03*
X0052863Y0214954D03*
X0035737Y0214954D03*
X0027863Y0214954D03*
X0027863Y0229954D03*
X0035737Y0229954D03*
D24*
X0066800Y0093891D03*
X0066800Y0086017D03*
D25*
X0040894Y0184954D03*
D26*
X0126406Y0279324D03*
X0122194Y0025583D03*
D27*
X0131643Y0045269D03*
X0142272Y0045269D03*
X0112745Y0045269D03*
X0102115Y0045269D03*
X0106328Y0259639D03*
X0116957Y0259639D03*
X0135855Y0259639D03*
X0146485Y0259639D03*
D28*
X0146091Y0279324D03*
X0126406Y0259639D03*
X0106721Y0279324D03*
X0122194Y0045269D03*
X0102509Y0025583D03*
X0141879Y0025583D03*
D29*
X0107036Y0197454D03*
X0107036Y0202454D03*
X0107036Y0207454D03*
X0107036Y0212454D03*
X0086564Y0212454D03*
X0086564Y0207454D03*
X0086564Y0202454D03*
X0086564Y0197454D03*
D30*
X0071800Y0184954D03*
X0049300Y0107454D03*
X0024300Y0047454D03*
X0106800Y0072454D03*
X0156800Y0099954D03*
X0161800Y0044954D03*
X0121800Y0174954D03*
X0151800Y0244954D03*
X0166800Y0262454D03*
X0021800Y0262454D03*
D31*
X0048200Y0181454D03*
X0078800Y0202154D03*
X0091800Y0189954D03*
M02*
