G75*
%MOIN*%
%OFA0B0*%
%FSLAX25Y25*%
%IPPOS*%
%LPD*%
%AMOC8*
5,1,8,0,0,1.08239X$1,22.5*
%
%ADD10C,0.00000*%
D10*
X0014800Y0014954D02*
X0172501Y0014954D01*
X0172694Y0014956D01*
X0172888Y0014963D01*
X0173080Y0014975D01*
X0173273Y0014991D01*
X0173465Y0015012D01*
X0173657Y0015038D01*
X0173848Y0015068D01*
X0174038Y0015103D01*
X0174227Y0015142D01*
X0174416Y0015186D01*
X0174603Y0015235D01*
X0174789Y0015288D01*
X0174973Y0015346D01*
X0175156Y0015408D01*
X0175338Y0015474D01*
X0175518Y0015545D01*
X0175696Y0015620D01*
X0175872Y0015699D01*
X0176047Y0015783D01*
X0176219Y0015870D01*
X0176389Y0015962D01*
X0176557Y0016058D01*
X0176722Y0016158D01*
X0176885Y0016262D01*
X0177046Y0016370D01*
X0177203Y0016482D01*
X0177358Y0016597D01*
X0177510Y0016717D01*
X0177660Y0016839D01*
X0177806Y0016966D01*
X0177949Y0017096D01*
X0178089Y0017229D01*
X0178226Y0017366D01*
X0178359Y0017506D01*
X0178489Y0017649D01*
X0178616Y0017795D01*
X0178738Y0017945D01*
X0178858Y0018097D01*
X0178973Y0018252D01*
X0179085Y0018409D01*
X0179193Y0018570D01*
X0179297Y0018733D01*
X0179397Y0018898D01*
X0179493Y0019066D01*
X0179585Y0019236D01*
X0179672Y0019408D01*
X0179756Y0019583D01*
X0179835Y0019759D01*
X0179910Y0019937D01*
X0179981Y0020117D01*
X0180047Y0020299D01*
X0180109Y0020482D01*
X0180167Y0020666D01*
X0180220Y0020852D01*
X0180269Y0021039D01*
X0180313Y0021228D01*
X0180352Y0021417D01*
X0180387Y0021607D01*
X0180417Y0021798D01*
X0180443Y0021990D01*
X0180464Y0022182D01*
X0180480Y0022375D01*
X0180492Y0022567D01*
X0180499Y0022761D01*
X0180501Y0022954D01*
X0180501Y0281914D01*
X0180499Y0282107D01*
X0180492Y0282301D01*
X0180480Y0282493D01*
X0180464Y0282686D01*
X0180443Y0282878D01*
X0180417Y0283070D01*
X0180387Y0283261D01*
X0180352Y0283451D01*
X0180313Y0283640D01*
X0180269Y0283829D01*
X0180220Y0284016D01*
X0180167Y0284202D01*
X0180109Y0284386D01*
X0180047Y0284569D01*
X0179981Y0284751D01*
X0179910Y0284931D01*
X0179835Y0285109D01*
X0179756Y0285285D01*
X0179672Y0285460D01*
X0179585Y0285632D01*
X0179493Y0285802D01*
X0179397Y0285970D01*
X0179297Y0286135D01*
X0179193Y0286298D01*
X0179085Y0286459D01*
X0178973Y0286616D01*
X0178858Y0286771D01*
X0178738Y0286923D01*
X0178616Y0287073D01*
X0178489Y0287219D01*
X0178359Y0287362D01*
X0178226Y0287502D01*
X0178089Y0287639D01*
X0177949Y0287772D01*
X0177806Y0287902D01*
X0177660Y0288029D01*
X0177510Y0288151D01*
X0177358Y0288271D01*
X0177203Y0288386D01*
X0177046Y0288498D01*
X0176885Y0288606D01*
X0176722Y0288710D01*
X0176557Y0288810D01*
X0176389Y0288906D01*
X0176219Y0288998D01*
X0176047Y0289085D01*
X0175872Y0289169D01*
X0175696Y0289248D01*
X0175518Y0289323D01*
X0175338Y0289394D01*
X0175156Y0289460D01*
X0174973Y0289522D01*
X0174789Y0289580D01*
X0174603Y0289633D01*
X0174416Y0289682D01*
X0174227Y0289726D01*
X0174038Y0289765D01*
X0173848Y0289800D01*
X0173657Y0289830D01*
X0173465Y0289856D01*
X0173273Y0289877D01*
X0173080Y0289893D01*
X0172888Y0289905D01*
X0172694Y0289912D01*
X0172501Y0289914D01*
X0014800Y0289914D01*
X0014607Y0289912D01*
X0014413Y0289905D01*
X0014221Y0289893D01*
X0014028Y0289877D01*
X0013836Y0289856D01*
X0013644Y0289830D01*
X0013453Y0289800D01*
X0013263Y0289765D01*
X0013074Y0289726D01*
X0012885Y0289682D01*
X0012698Y0289633D01*
X0012512Y0289580D01*
X0012328Y0289522D01*
X0012145Y0289460D01*
X0011963Y0289394D01*
X0011783Y0289323D01*
X0011605Y0289248D01*
X0011429Y0289169D01*
X0011254Y0289085D01*
X0011082Y0288998D01*
X0010912Y0288906D01*
X0010744Y0288810D01*
X0010579Y0288710D01*
X0010416Y0288606D01*
X0010255Y0288498D01*
X0010098Y0288386D01*
X0009943Y0288271D01*
X0009791Y0288151D01*
X0009641Y0288029D01*
X0009495Y0287902D01*
X0009352Y0287772D01*
X0009212Y0287639D01*
X0009075Y0287502D01*
X0008942Y0287362D01*
X0008812Y0287219D01*
X0008685Y0287073D01*
X0008563Y0286923D01*
X0008443Y0286771D01*
X0008328Y0286616D01*
X0008216Y0286459D01*
X0008108Y0286298D01*
X0008004Y0286135D01*
X0007904Y0285970D01*
X0007808Y0285802D01*
X0007716Y0285632D01*
X0007629Y0285460D01*
X0007545Y0285285D01*
X0007466Y0285109D01*
X0007391Y0284931D01*
X0007320Y0284751D01*
X0007254Y0284569D01*
X0007192Y0284386D01*
X0007134Y0284202D01*
X0007081Y0284016D01*
X0007032Y0283829D01*
X0006988Y0283640D01*
X0006949Y0283451D01*
X0006914Y0283261D01*
X0006884Y0283070D01*
X0006858Y0282878D01*
X0006837Y0282686D01*
X0006821Y0282493D01*
X0006809Y0282301D01*
X0006802Y0282107D01*
X0006800Y0281914D01*
X0006800Y0022954D01*
X0006802Y0022761D01*
X0006809Y0022567D01*
X0006821Y0022375D01*
X0006837Y0022182D01*
X0006858Y0021990D01*
X0006884Y0021798D01*
X0006914Y0021607D01*
X0006949Y0021417D01*
X0006988Y0021228D01*
X0007032Y0021039D01*
X0007081Y0020852D01*
X0007134Y0020666D01*
X0007192Y0020482D01*
X0007254Y0020299D01*
X0007320Y0020117D01*
X0007391Y0019937D01*
X0007466Y0019759D01*
X0007545Y0019583D01*
X0007629Y0019408D01*
X0007716Y0019236D01*
X0007808Y0019066D01*
X0007904Y0018898D01*
X0008004Y0018733D01*
X0008108Y0018570D01*
X0008216Y0018409D01*
X0008328Y0018252D01*
X0008443Y0018097D01*
X0008563Y0017945D01*
X0008685Y0017795D01*
X0008812Y0017649D01*
X0008942Y0017506D01*
X0009075Y0017366D01*
X0009212Y0017229D01*
X0009352Y0017096D01*
X0009495Y0016966D01*
X0009641Y0016839D01*
X0009791Y0016717D01*
X0009943Y0016597D01*
X0010098Y0016482D01*
X0010255Y0016370D01*
X0010416Y0016262D01*
X0010579Y0016158D01*
X0010744Y0016058D01*
X0010912Y0015962D01*
X0011082Y0015870D01*
X0011254Y0015783D01*
X0011429Y0015699D01*
X0011605Y0015620D01*
X0011783Y0015545D01*
X0011963Y0015474D01*
X0012145Y0015408D01*
X0012328Y0015346D01*
X0012512Y0015288D01*
X0012698Y0015235D01*
X0012885Y0015186D01*
X0013074Y0015142D01*
X0013263Y0015103D01*
X0013453Y0015068D01*
X0013644Y0015038D01*
X0013836Y0015012D01*
X0014028Y0014991D01*
X0014221Y0014975D01*
X0014413Y0014963D01*
X0014607Y0014956D01*
X0014800Y0014954D01*
X0013001Y0027454D02*
X0013003Y0027612D01*
X0013009Y0027770D01*
X0013019Y0027928D01*
X0013033Y0028086D01*
X0013051Y0028243D01*
X0013072Y0028400D01*
X0013098Y0028556D01*
X0013128Y0028712D01*
X0013161Y0028867D01*
X0013199Y0029020D01*
X0013240Y0029173D01*
X0013285Y0029325D01*
X0013334Y0029476D01*
X0013387Y0029625D01*
X0013443Y0029773D01*
X0013503Y0029919D01*
X0013567Y0030064D01*
X0013635Y0030207D01*
X0013706Y0030349D01*
X0013780Y0030489D01*
X0013858Y0030626D01*
X0013940Y0030762D01*
X0014024Y0030896D01*
X0014113Y0031027D01*
X0014204Y0031156D01*
X0014299Y0031283D01*
X0014396Y0031408D01*
X0014497Y0031530D01*
X0014601Y0031649D01*
X0014708Y0031766D01*
X0014818Y0031880D01*
X0014931Y0031991D01*
X0015046Y0032100D01*
X0015164Y0032205D01*
X0015285Y0032307D01*
X0015408Y0032407D01*
X0015534Y0032503D01*
X0015662Y0032596D01*
X0015792Y0032686D01*
X0015925Y0032772D01*
X0016060Y0032856D01*
X0016196Y0032935D01*
X0016335Y0033012D01*
X0016476Y0033084D01*
X0016618Y0033154D01*
X0016762Y0033219D01*
X0016908Y0033281D01*
X0017055Y0033339D01*
X0017204Y0033394D01*
X0017354Y0033445D01*
X0017505Y0033492D01*
X0017657Y0033535D01*
X0017810Y0033574D01*
X0017965Y0033610D01*
X0018120Y0033641D01*
X0018276Y0033669D01*
X0018432Y0033693D01*
X0018589Y0033713D01*
X0018747Y0033729D01*
X0018904Y0033741D01*
X0019063Y0033749D01*
X0019221Y0033753D01*
X0019379Y0033753D01*
X0019537Y0033749D01*
X0019696Y0033741D01*
X0019853Y0033729D01*
X0020011Y0033713D01*
X0020168Y0033693D01*
X0020324Y0033669D01*
X0020480Y0033641D01*
X0020635Y0033610D01*
X0020790Y0033574D01*
X0020943Y0033535D01*
X0021095Y0033492D01*
X0021246Y0033445D01*
X0021396Y0033394D01*
X0021545Y0033339D01*
X0021692Y0033281D01*
X0021838Y0033219D01*
X0021982Y0033154D01*
X0022124Y0033084D01*
X0022265Y0033012D01*
X0022404Y0032935D01*
X0022540Y0032856D01*
X0022675Y0032772D01*
X0022808Y0032686D01*
X0022938Y0032596D01*
X0023066Y0032503D01*
X0023192Y0032407D01*
X0023315Y0032307D01*
X0023436Y0032205D01*
X0023554Y0032100D01*
X0023669Y0031991D01*
X0023782Y0031880D01*
X0023892Y0031766D01*
X0023999Y0031649D01*
X0024103Y0031530D01*
X0024204Y0031408D01*
X0024301Y0031283D01*
X0024396Y0031156D01*
X0024487Y0031027D01*
X0024576Y0030896D01*
X0024660Y0030762D01*
X0024742Y0030626D01*
X0024820Y0030489D01*
X0024894Y0030349D01*
X0024965Y0030207D01*
X0025033Y0030064D01*
X0025097Y0029919D01*
X0025157Y0029773D01*
X0025213Y0029625D01*
X0025266Y0029476D01*
X0025315Y0029325D01*
X0025360Y0029173D01*
X0025401Y0029020D01*
X0025439Y0028867D01*
X0025472Y0028712D01*
X0025502Y0028556D01*
X0025528Y0028400D01*
X0025549Y0028243D01*
X0025567Y0028086D01*
X0025581Y0027928D01*
X0025591Y0027770D01*
X0025597Y0027612D01*
X0025599Y0027454D01*
X0025597Y0027296D01*
X0025591Y0027138D01*
X0025581Y0026980D01*
X0025567Y0026822D01*
X0025549Y0026665D01*
X0025528Y0026508D01*
X0025502Y0026352D01*
X0025472Y0026196D01*
X0025439Y0026041D01*
X0025401Y0025888D01*
X0025360Y0025735D01*
X0025315Y0025583D01*
X0025266Y0025432D01*
X0025213Y0025283D01*
X0025157Y0025135D01*
X0025097Y0024989D01*
X0025033Y0024844D01*
X0024965Y0024701D01*
X0024894Y0024559D01*
X0024820Y0024419D01*
X0024742Y0024282D01*
X0024660Y0024146D01*
X0024576Y0024012D01*
X0024487Y0023881D01*
X0024396Y0023752D01*
X0024301Y0023625D01*
X0024204Y0023500D01*
X0024103Y0023378D01*
X0023999Y0023259D01*
X0023892Y0023142D01*
X0023782Y0023028D01*
X0023669Y0022917D01*
X0023554Y0022808D01*
X0023436Y0022703D01*
X0023315Y0022601D01*
X0023192Y0022501D01*
X0023066Y0022405D01*
X0022938Y0022312D01*
X0022808Y0022222D01*
X0022675Y0022136D01*
X0022540Y0022052D01*
X0022404Y0021973D01*
X0022265Y0021896D01*
X0022124Y0021824D01*
X0021982Y0021754D01*
X0021838Y0021689D01*
X0021692Y0021627D01*
X0021545Y0021569D01*
X0021396Y0021514D01*
X0021246Y0021463D01*
X0021095Y0021416D01*
X0020943Y0021373D01*
X0020790Y0021334D01*
X0020635Y0021298D01*
X0020480Y0021267D01*
X0020324Y0021239D01*
X0020168Y0021215D01*
X0020011Y0021195D01*
X0019853Y0021179D01*
X0019696Y0021167D01*
X0019537Y0021159D01*
X0019379Y0021155D01*
X0019221Y0021155D01*
X0019063Y0021159D01*
X0018904Y0021167D01*
X0018747Y0021179D01*
X0018589Y0021195D01*
X0018432Y0021215D01*
X0018276Y0021239D01*
X0018120Y0021267D01*
X0017965Y0021298D01*
X0017810Y0021334D01*
X0017657Y0021373D01*
X0017505Y0021416D01*
X0017354Y0021463D01*
X0017204Y0021514D01*
X0017055Y0021569D01*
X0016908Y0021627D01*
X0016762Y0021689D01*
X0016618Y0021754D01*
X0016476Y0021824D01*
X0016335Y0021896D01*
X0016196Y0021973D01*
X0016060Y0022052D01*
X0015925Y0022136D01*
X0015792Y0022222D01*
X0015662Y0022312D01*
X0015534Y0022405D01*
X0015408Y0022501D01*
X0015285Y0022601D01*
X0015164Y0022703D01*
X0015046Y0022808D01*
X0014931Y0022917D01*
X0014818Y0023028D01*
X0014708Y0023142D01*
X0014601Y0023259D01*
X0014497Y0023378D01*
X0014396Y0023500D01*
X0014299Y0023625D01*
X0014204Y0023752D01*
X0014113Y0023881D01*
X0014024Y0024012D01*
X0013940Y0024146D01*
X0013858Y0024282D01*
X0013780Y0024419D01*
X0013706Y0024559D01*
X0013635Y0024701D01*
X0013567Y0024844D01*
X0013503Y0024989D01*
X0013443Y0025135D01*
X0013387Y0025283D01*
X0013334Y0025432D01*
X0013285Y0025583D01*
X0013240Y0025735D01*
X0013199Y0025888D01*
X0013161Y0026041D01*
X0013128Y0026196D01*
X0013098Y0026352D01*
X0013072Y0026508D01*
X0013051Y0026665D01*
X0013033Y0026822D01*
X0013019Y0026980D01*
X0013009Y0027138D01*
X0013003Y0027296D01*
X0013001Y0027454D01*
X0056170Y0036391D02*
X0056172Y0036479D01*
X0056178Y0036567D01*
X0056188Y0036655D01*
X0056202Y0036743D01*
X0056219Y0036829D01*
X0056241Y0036915D01*
X0056266Y0036999D01*
X0056296Y0037083D01*
X0056328Y0037165D01*
X0056365Y0037245D01*
X0056405Y0037324D01*
X0056449Y0037401D01*
X0056496Y0037476D01*
X0056546Y0037548D01*
X0056600Y0037619D01*
X0056656Y0037686D01*
X0056716Y0037752D01*
X0056778Y0037814D01*
X0056844Y0037874D01*
X0056911Y0037930D01*
X0056982Y0037984D01*
X0057054Y0038034D01*
X0057129Y0038081D01*
X0057206Y0038125D01*
X0057285Y0038165D01*
X0057365Y0038202D01*
X0057447Y0038234D01*
X0057531Y0038264D01*
X0057615Y0038289D01*
X0057701Y0038311D01*
X0057787Y0038328D01*
X0057875Y0038342D01*
X0057963Y0038352D01*
X0058051Y0038358D01*
X0058139Y0038360D01*
X0058227Y0038358D01*
X0058315Y0038352D01*
X0058403Y0038342D01*
X0058491Y0038328D01*
X0058577Y0038311D01*
X0058663Y0038289D01*
X0058747Y0038264D01*
X0058831Y0038234D01*
X0058913Y0038202D01*
X0058993Y0038165D01*
X0059072Y0038125D01*
X0059149Y0038081D01*
X0059224Y0038034D01*
X0059296Y0037984D01*
X0059367Y0037930D01*
X0059434Y0037874D01*
X0059500Y0037814D01*
X0059562Y0037752D01*
X0059622Y0037686D01*
X0059678Y0037619D01*
X0059732Y0037548D01*
X0059782Y0037476D01*
X0059829Y0037401D01*
X0059873Y0037324D01*
X0059913Y0037245D01*
X0059950Y0037165D01*
X0059982Y0037083D01*
X0060012Y0036999D01*
X0060037Y0036915D01*
X0060059Y0036829D01*
X0060076Y0036743D01*
X0060090Y0036655D01*
X0060100Y0036567D01*
X0060106Y0036479D01*
X0060108Y0036391D01*
X0060106Y0036303D01*
X0060100Y0036215D01*
X0060090Y0036127D01*
X0060076Y0036039D01*
X0060059Y0035953D01*
X0060037Y0035867D01*
X0060012Y0035783D01*
X0059982Y0035699D01*
X0059950Y0035617D01*
X0059913Y0035537D01*
X0059873Y0035458D01*
X0059829Y0035381D01*
X0059782Y0035306D01*
X0059732Y0035234D01*
X0059678Y0035163D01*
X0059622Y0035096D01*
X0059562Y0035030D01*
X0059500Y0034968D01*
X0059434Y0034908D01*
X0059367Y0034852D01*
X0059296Y0034798D01*
X0059224Y0034748D01*
X0059149Y0034701D01*
X0059072Y0034657D01*
X0058993Y0034617D01*
X0058913Y0034580D01*
X0058831Y0034548D01*
X0058747Y0034518D01*
X0058663Y0034493D01*
X0058577Y0034471D01*
X0058491Y0034454D01*
X0058403Y0034440D01*
X0058315Y0034430D01*
X0058227Y0034424D01*
X0058139Y0034422D01*
X0058051Y0034424D01*
X0057963Y0034430D01*
X0057875Y0034440D01*
X0057787Y0034454D01*
X0057701Y0034471D01*
X0057615Y0034493D01*
X0057531Y0034518D01*
X0057447Y0034548D01*
X0057365Y0034580D01*
X0057285Y0034617D01*
X0057206Y0034657D01*
X0057129Y0034701D01*
X0057054Y0034748D01*
X0056982Y0034798D01*
X0056911Y0034852D01*
X0056844Y0034908D01*
X0056778Y0034968D01*
X0056716Y0035030D01*
X0056656Y0035096D01*
X0056600Y0035163D01*
X0056546Y0035234D01*
X0056496Y0035306D01*
X0056449Y0035381D01*
X0056405Y0035458D01*
X0056365Y0035537D01*
X0056328Y0035617D01*
X0056296Y0035699D01*
X0056266Y0035783D01*
X0056241Y0035867D01*
X0056219Y0035953D01*
X0056202Y0036039D01*
X0056188Y0036127D01*
X0056178Y0036215D01*
X0056172Y0036303D01*
X0056170Y0036391D01*
X0073492Y0036391D02*
X0073494Y0036479D01*
X0073500Y0036567D01*
X0073510Y0036655D01*
X0073524Y0036743D01*
X0073541Y0036829D01*
X0073563Y0036915D01*
X0073588Y0036999D01*
X0073618Y0037083D01*
X0073650Y0037165D01*
X0073687Y0037245D01*
X0073727Y0037324D01*
X0073771Y0037401D01*
X0073818Y0037476D01*
X0073868Y0037548D01*
X0073922Y0037619D01*
X0073978Y0037686D01*
X0074038Y0037752D01*
X0074100Y0037814D01*
X0074166Y0037874D01*
X0074233Y0037930D01*
X0074304Y0037984D01*
X0074376Y0038034D01*
X0074451Y0038081D01*
X0074528Y0038125D01*
X0074607Y0038165D01*
X0074687Y0038202D01*
X0074769Y0038234D01*
X0074853Y0038264D01*
X0074937Y0038289D01*
X0075023Y0038311D01*
X0075109Y0038328D01*
X0075197Y0038342D01*
X0075285Y0038352D01*
X0075373Y0038358D01*
X0075461Y0038360D01*
X0075549Y0038358D01*
X0075637Y0038352D01*
X0075725Y0038342D01*
X0075813Y0038328D01*
X0075899Y0038311D01*
X0075985Y0038289D01*
X0076069Y0038264D01*
X0076153Y0038234D01*
X0076235Y0038202D01*
X0076315Y0038165D01*
X0076394Y0038125D01*
X0076471Y0038081D01*
X0076546Y0038034D01*
X0076618Y0037984D01*
X0076689Y0037930D01*
X0076756Y0037874D01*
X0076822Y0037814D01*
X0076884Y0037752D01*
X0076944Y0037686D01*
X0077000Y0037619D01*
X0077054Y0037548D01*
X0077104Y0037476D01*
X0077151Y0037401D01*
X0077195Y0037324D01*
X0077235Y0037245D01*
X0077272Y0037165D01*
X0077304Y0037083D01*
X0077334Y0036999D01*
X0077359Y0036915D01*
X0077381Y0036829D01*
X0077398Y0036743D01*
X0077412Y0036655D01*
X0077422Y0036567D01*
X0077428Y0036479D01*
X0077430Y0036391D01*
X0077428Y0036303D01*
X0077422Y0036215D01*
X0077412Y0036127D01*
X0077398Y0036039D01*
X0077381Y0035953D01*
X0077359Y0035867D01*
X0077334Y0035783D01*
X0077304Y0035699D01*
X0077272Y0035617D01*
X0077235Y0035537D01*
X0077195Y0035458D01*
X0077151Y0035381D01*
X0077104Y0035306D01*
X0077054Y0035234D01*
X0077000Y0035163D01*
X0076944Y0035096D01*
X0076884Y0035030D01*
X0076822Y0034968D01*
X0076756Y0034908D01*
X0076689Y0034852D01*
X0076618Y0034798D01*
X0076546Y0034748D01*
X0076471Y0034701D01*
X0076394Y0034657D01*
X0076315Y0034617D01*
X0076235Y0034580D01*
X0076153Y0034548D01*
X0076069Y0034518D01*
X0075985Y0034493D01*
X0075899Y0034471D01*
X0075813Y0034454D01*
X0075725Y0034440D01*
X0075637Y0034430D01*
X0075549Y0034424D01*
X0075461Y0034422D01*
X0075373Y0034424D01*
X0075285Y0034430D01*
X0075197Y0034440D01*
X0075109Y0034454D01*
X0075023Y0034471D01*
X0074937Y0034493D01*
X0074853Y0034518D01*
X0074769Y0034548D01*
X0074687Y0034580D01*
X0074607Y0034617D01*
X0074528Y0034657D01*
X0074451Y0034701D01*
X0074376Y0034748D01*
X0074304Y0034798D01*
X0074233Y0034852D01*
X0074166Y0034908D01*
X0074100Y0034968D01*
X0074038Y0035030D01*
X0073978Y0035096D01*
X0073922Y0035163D01*
X0073868Y0035234D01*
X0073818Y0035306D01*
X0073771Y0035381D01*
X0073727Y0035458D01*
X0073687Y0035537D01*
X0073650Y0035617D01*
X0073618Y0035699D01*
X0073588Y0035783D01*
X0073563Y0035867D01*
X0073541Y0035953D01*
X0073524Y0036039D01*
X0073510Y0036127D01*
X0073500Y0036215D01*
X0073494Y0036303D01*
X0073492Y0036391D01*
X0099556Y0025583D02*
X0099558Y0025691D01*
X0099564Y0025800D01*
X0099574Y0025908D01*
X0099588Y0026015D01*
X0099606Y0026122D01*
X0099627Y0026229D01*
X0099653Y0026334D01*
X0099683Y0026439D01*
X0099716Y0026542D01*
X0099753Y0026644D01*
X0099794Y0026744D01*
X0099838Y0026843D01*
X0099887Y0026941D01*
X0099938Y0027036D01*
X0099993Y0027129D01*
X0100052Y0027221D01*
X0100114Y0027310D01*
X0100179Y0027397D01*
X0100247Y0027481D01*
X0100318Y0027563D01*
X0100392Y0027642D01*
X0100469Y0027718D01*
X0100549Y0027792D01*
X0100632Y0027862D01*
X0100717Y0027930D01*
X0100804Y0027994D01*
X0100894Y0028055D01*
X0100986Y0028113D01*
X0101080Y0028167D01*
X0101176Y0028218D01*
X0101273Y0028265D01*
X0101373Y0028309D01*
X0101474Y0028349D01*
X0101576Y0028385D01*
X0101679Y0028417D01*
X0101784Y0028446D01*
X0101890Y0028470D01*
X0101996Y0028491D01*
X0102103Y0028508D01*
X0102211Y0028521D01*
X0102319Y0028530D01*
X0102428Y0028535D01*
X0102536Y0028536D01*
X0102645Y0028533D01*
X0102753Y0028526D01*
X0102861Y0028515D01*
X0102968Y0028500D01*
X0103075Y0028481D01*
X0103181Y0028458D01*
X0103286Y0028432D01*
X0103391Y0028401D01*
X0103493Y0028367D01*
X0103595Y0028329D01*
X0103695Y0028287D01*
X0103794Y0028242D01*
X0103891Y0028193D01*
X0103985Y0028140D01*
X0104078Y0028084D01*
X0104169Y0028025D01*
X0104258Y0027962D01*
X0104344Y0027897D01*
X0104428Y0027828D01*
X0104509Y0027756D01*
X0104587Y0027681D01*
X0104663Y0027603D01*
X0104736Y0027522D01*
X0104806Y0027439D01*
X0104872Y0027354D01*
X0104936Y0027266D01*
X0104996Y0027175D01*
X0105053Y0027083D01*
X0105106Y0026988D01*
X0105156Y0026892D01*
X0105202Y0026794D01*
X0105245Y0026694D01*
X0105284Y0026593D01*
X0105319Y0026490D01*
X0105351Y0026387D01*
X0105378Y0026282D01*
X0105402Y0026176D01*
X0105422Y0026069D01*
X0105438Y0025962D01*
X0105450Y0025854D01*
X0105458Y0025746D01*
X0105462Y0025637D01*
X0105462Y0025529D01*
X0105458Y0025420D01*
X0105450Y0025312D01*
X0105438Y0025204D01*
X0105422Y0025097D01*
X0105402Y0024990D01*
X0105378Y0024884D01*
X0105351Y0024779D01*
X0105319Y0024676D01*
X0105284Y0024573D01*
X0105245Y0024472D01*
X0105202Y0024372D01*
X0105156Y0024274D01*
X0105106Y0024178D01*
X0105053Y0024083D01*
X0104996Y0023991D01*
X0104936Y0023900D01*
X0104872Y0023812D01*
X0104806Y0023727D01*
X0104736Y0023644D01*
X0104663Y0023563D01*
X0104587Y0023485D01*
X0104509Y0023410D01*
X0104428Y0023338D01*
X0104344Y0023269D01*
X0104258Y0023204D01*
X0104169Y0023141D01*
X0104078Y0023082D01*
X0103986Y0023026D01*
X0103891Y0022973D01*
X0103794Y0022924D01*
X0103695Y0022879D01*
X0103595Y0022837D01*
X0103493Y0022799D01*
X0103391Y0022765D01*
X0103286Y0022734D01*
X0103181Y0022708D01*
X0103075Y0022685D01*
X0102968Y0022666D01*
X0102861Y0022651D01*
X0102753Y0022640D01*
X0102645Y0022633D01*
X0102536Y0022630D01*
X0102428Y0022631D01*
X0102319Y0022636D01*
X0102211Y0022645D01*
X0102103Y0022658D01*
X0101996Y0022675D01*
X0101890Y0022696D01*
X0101784Y0022720D01*
X0101679Y0022749D01*
X0101576Y0022781D01*
X0101474Y0022817D01*
X0101373Y0022857D01*
X0101273Y0022901D01*
X0101176Y0022948D01*
X0101080Y0022999D01*
X0100986Y0023053D01*
X0100894Y0023111D01*
X0100804Y0023172D01*
X0100717Y0023236D01*
X0100632Y0023304D01*
X0100549Y0023374D01*
X0100469Y0023448D01*
X0100392Y0023524D01*
X0100318Y0023603D01*
X0100247Y0023685D01*
X0100179Y0023769D01*
X0100114Y0023856D01*
X0100052Y0023945D01*
X0099993Y0024037D01*
X0099938Y0024130D01*
X0099887Y0024225D01*
X0099838Y0024323D01*
X0099794Y0024422D01*
X0099753Y0024522D01*
X0099716Y0024624D01*
X0099683Y0024727D01*
X0099653Y0024832D01*
X0099627Y0024937D01*
X0099606Y0025044D01*
X0099588Y0025151D01*
X0099574Y0025258D01*
X0099564Y0025366D01*
X0099558Y0025475D01*
X0099556Y0025583D01*
X0119241Y0045269D02*
X0119243Y0045377D01*
X0119249Y0045486D01*
X0119259Y0045594D01*
X0119273Y0045701D01*
X0119291Y0045808D01*
X0119312Y0045915D01*
X0119338Y0046020D01*
X0119368Y0046125D01*
X0119401Y0046228D01*
X0119438Y0046330D01*
X0119479Y0046430D01*
X0119523Y0046529D01*
X0119572Y0046627D01*
X0119623Y0046722D01*
X0119678Y0046815D01*
X0119737Y0046907D01*
X0119799Y0046996D01*
X0119864Y0047083D01*
X0119932Y0047167D01*
X0120003Y0047249D01*
X0120077Y0047328D01*
X0120154Y0047404D01*
X0120234Y0047478D01*
X0120317Y0047548D01*
X0120402Y0047616D01*
X0120489Y0047680D01*
X0120579Y0047741D01*
X0120671Y0047799D01*
X0120765Y0047853D01*
X0120861Y0047904D01*
X0120958Y0047951D01*
X0121058Y0047995D01*
X0121159Y0048035D01*
X0121261Y0048071D01*
X0121364Y0048103D01*
X0121469Y0048132D01*
X0121575Y0048156D01*
X0121681Y0048177D01*
X0121788Y0048194D01*
X0121896Y0048207D01*
X0122004Y0048216D01*
X0122113Y0048221D01*
X0122221Y0048222D01*
X0122330Y0048219D01*
X0122438Y0048212D01*
X0122546Y0048201D01*
X0122653Y0048186D01*
X0122760Y0048167D01*
X0122866Y0048144D01*
X0122971Y0048118D01*
X0123076Y0048087D01*
X0123178Y0048053D01*
X0123280Y0048015D01*
X0123380Y0047973D01*
X0123479Y0047928D01*
X0123576Y0047879D01*
X0123670Y0047826D01*
X0123763Y0047770D01*
X0123854Y0047711D01*
X0123943Y0047648D01*
X0124029Y0047583D01*
X0124113Y0047514D01*
X0124194Y0047442D01*
X0124272Y0047367D01*
X0124348Y0047289D01*
X0124421Y0047208D01*
X0124491Y0047125D01*
X0124557Y0047040D01*
X0124621Y0046952D01*
X0124681Y0046861D01*
X0124738Y0046769D01*
X0124791Y0046674D01*
X0124841Y0046578D01*
X0124887Y0046480D01*
X0124930Y0046380D01*
X0124969Y0046279D01*
X0125004Y0046176D01*
X0125036Y0046073D01*
X0125063Y0045968D01*
X0125087Y0045862D01*
X0125107Y0045755D01*
X0125123Y0045648D01*
X0125135Y0045540D01*
X0125143Y0045432D01*
X0125147Y0045323D01*
X0125147Y0045215D01*
X0125143Y0045106D01*
X0125135Y0044998D01*
X0125123Y0044890D01*
X0125107Y0044783D01*
X0125087Y0044676D01*
X0125063Y0044570D01*
X0125036Y0044465D01*
X0125004Y0044362D01*
X0124969Y0044259D01*
X0124930Y0044158D01*
X0124887Y0044058D01*
X0124841Y0043960D01*
X0124791Y0043864D01*
X0124738Y0043769D01*
X0124681Y0043677D01*
X0124621Y0043586D01*
X0124557Y0043498D01*
X0124491Y0043413D01*
X0124421Y0043330D01*
X0124348Y0043249D01*
X0124272Y0043171D01*
X0124194Y0043096D01*
X0124113Y0043024D01*
X0124029Y0042955D01*
X0123943Y0042890D01*
X0123854Y0042827D01*
X0123763Y0042768D01*
X0123671Y0042712D01*
X0123576Y0042659D01*
X0123479Y0042610D01*
X0123380Y0042565D01*
X0123280Y0042523D01*
X0123178Y0042485D01*
X0123076Y0042451D01*
X0122971Y0042420D01*
X0122866Y0042394D01*
X0122760Y0042371D01*
X0122653Y0042352D01*
X0122546Y0042337D01*
X0122438Y0042326D01*
X0122330Y0042319D01*
X0122221Y0042316D01*
X0122113Y0042317D01*
X0122004Y0042322D01*
X0121896Y0042331D01*
X0121788Y0042344D01*
X0121681Y0042361D01*
X0121575Y0042382D01*
X0121469Y0042406D01*
X0121364Y0042435D01*
X0121261Y0042467D01*
X0121159Y0042503D01*
X0121058Y0042543D01*
X0120958Y0042587D01*
X0120861Y0042634D01*
X0120765Y0042685D01*
X0120671Y0042739D01*
X0120579Y0042797D01*
X0120489Y0042858D01*
X0120402Y0042922D01*
X0120317Y0042990D01*
X0120234Y0043060D01*
X0120154Y0043134D01*
X0120077Y0043210D01*
X0120003Y0043289D01*
X0119932Y0043371D01*
X0119864Y0043455D01*
X0119799Y0043542D01*
X0119737Y0043631D01*
X0119678Y0043723D01*
X0119623Y0043816D01*
X0119572Y0043911D01*
X0119523Y0044009D01*
X0119479Y0044108D01*
X0119438Y0044208D01*
X0119401Y0044310D01*
X0119368Y0044413D01*
X0119338Y0044518D01*
X0119312Y0044623D01*
X0119291Y0044730D01*
X0119273Y0044837D01*
X0119259Y0044944D01*
X0119249Y0045052D01*
X0119243Y0045161D01*
X0119241Y0045269D01*
X0138926Y0025583D02*
X0138928Y0025691D01*
X0138934Y0025800D01*
X0138944Y0025908D01*
X0138958Y0026015D01*
X0138976Y0026122D01*
X0138997Y0026229D01*
X0139023Y0026334D01*
X0139053Y0026439D01*
X0139086Y0026542D01*
X0139123Y0026644D01*
X0139164Y0026744D01*
X0139208Y0026843D01*
X0139257Y0026941D01*
X0139308Y0027036D01*
X0139363Y0027129D01*
X0139422Y0027221D01*
X0139484Y0027310D01*
X0139549Y0027397D01*
X0139617Y0027481D01*
X0139688Y0027563D01*
X0139762Y0027642D01*
X0139839Y0027718D01*
X0139919Y0027792D01*
X0140002Y0027862D01*
X0140087Y0027930D01*
X0140174Y0027994D01*
X0140264Y0028055D01*
X0140356Y0028113D01*
X0140450Y0028167D01*
X0140546Y0028218D01*
X0140643Y0028265D01*
X0140743Y0028309D01*
X0140844Y0028349D01*
X0140946Y0028385D01*
X0141049Y0028417D01*
X0141154Y0028446D01*
X0141260Y0028470D01*
X0141366Y0028491D01*
X0141473Y0028508D01*
X0141581Y0028521D01*
X0141689Y0028530D01*
X0141798Y0028535D01*
X0141906Y0028536D01*
X0142015Y0028533D01*
X0142123Y0028526D01*
X0142231Y0028515D01*
X0142338Y0028500D01*
X0142445Y0028481D01*
X0142551Y0028458D01*
X0142656Y0028432D01*
X0142761Y0028401D01*
X0142863Y0028367D01*
X0142965Y0028329D01*
X0143065Y0028287D01*
X0143164Y0028242D01*
X0143261Y0028193D01*
X0143355Y0028140D01*
X0143448Y0028084D01*
X0143539Y0028025D01*
X0143628Y0027962D01*
X0143714Y0027897D01*
X0143798Y0027828D01*
X0143879Y0027756D01*
X0143957Y0027681D01*
X0144033Y0027603D01*
X0144106Y0027522D01*
X0144176Y0027439D01*
X0144242Y0027354D01*
X0144306Y0027266D01*
X0144366Y0027175D01*
X0144423Y0027083D01*
X0144476Y0026988D01*
X0144526Y0026892D01*
X0144572Y0026794D01*
X0144615Y0026694D01*
X0144654Y0026593D01*
X0144689Y0026490D01*
X0144721Y0026387D01*
X0144748Y0026282D01*
X0144772Y0026176D01*
X0144792Y0026069D01*
X0144808Y0025962D01*
X0144820Y0025854D01*
X0144828Y0025746D01*
X0144832Y0025637D01*
X0144832Y0025529D01*
X0144828Y0025420D01*
X0144820Y0025312D01*
X0144808Y0025204D01*
X0144792Y0025097D01*
X0144772Y0024990D01*
X0144748Y0024884D01*
X0144721Y0024779D01*
X0144689Y0024676D01*
X0144654Y0024573D01*
X0144615Y0024472D01*
X0144572Y0024372D01*
X0144526Y0024274D01*
X0144476Y0024178D01*
X0144423Y0024083D01*
X0144366Y0023991D01*
X0144306Y0023900D01*
X0144242Y0023812D01*
X0144176Y0023727D01*
X0144106Y0023644D01*
X0144033Y0023563D01*
X0143957Y0023485D01*
X0143879Y0023410D01*
X0143798Y0023338D01*
X0143714Y0023269D01*
X0143628Y0023204D01*
X0143539Y0023141D01*
X0143448Y0023082D01*
X0143356Y0023026D01*
X0143261Y0022973D01*
X0143164Y0022924D01*
X0143065Y0022879D01*
X0142965Y0022837D01*
X0142863Y0022799D01*
X0142761Y0022765D01*
X0142656Y0022734D01*
X0142551Y0022708D01*
X0142445Y0022685D01*
X0142338Y0022666D01*
X0142231Y0022651D01*
X0142123Y0022640D01*
X0142015Y0022633D01*
X0141906Y0022630D01*
X0141798Y0022631D01*
X0141689Y0022636D01*
X0141581Y0022645D01*
X0141473Y0022658D01*
X0141366Y0022675D01*
X0141260Y0022696D01*
X0141154Y0022720D01*
X0141049Y0022749D01*
X0140946Y0022781D01*
X0140844Y0022817D01*
X0140743Y0022857D01*
X0140643Y0022901D01*
X0140546Y0022948D01*
X0140450Y0022999D01*
X0140356Y0023053D01*
X0140264Y0023111D01*
X0140174Y0023172D01*
X0140087Y0023236D01*
X0140002Y0023304D01*
X0139919Y0023374D01*
X0139839Y0023448D01*
X0139762Y0023524D01*
X0139688Y0023603D01*
X0139617Y0023685D01*
X0139549Y0023769D01*
X0139484Y0023856D01*
X0139422Y0023945D01*
X0139363Y0024037D01*
X0139308Y0024130D01*
X0139257Y0024225D01*
X0139208Y0024323D01*
X0139164Y0024422D01*
X0139123Y0024522D01*
X0139086Y0024624D01*
X0139053Y0024727D01*
X0139023Y0024832D01*
X0138997Y0024937D01*
X0138976Y0025044D01*
X0138958Y0025151D01*
X0138944Y0025258D01*
X0138934Y0025366D01*
X0138928Y0025475D01*
X0138926Y0025583D01*
X0163001Y0027454D02*
X0163003Y0027612D01*
X0163009Y0027770D01*
X0163019Y0027928D01*
X0163033Y0028086D01*
X0163051Y0028243D01*
X0163072Y0028400D01*
X0163098Y0028556D01*
X0163128Y0028712D01*
X0163161Y0028867D01*
X0163199Y0029020D01*
X0163240Y0029173D01*
X0163285Y0029325D01*
X0163334Y0029476D01*
X0163387Y0029625D01*
X0163443Y0029773D01*
X0163503Y0029919D01*
X0163567Y0030064D01*
X0163635Y0030207D01*
X0163706Y0030349D01*
X0163780Y0030489D01*
X0163858Y0030626D01*
X0163940Y0030762D01*
X0164024Y0030896D01*
X0164113Y0031027D01*
X0164204Y0031156D01*
X0164299Y0031283D01*
X0164396Y0031408D01*
X0164497Y0031530D01*
X0164601Y0031649D01*
X0164708Y0031766D01*
X0164818Y0031880D01*
X0164931Y0031991D01*
X0165046Y0032100D01*
X0165164Y0032205D01*
X0165285Y0032307D01*
X0165408Y0032407D01*
X0165534Y0032503D01*
X0165662Y0032596D01*
X0165792Y0032686D01*
X0165925Y0032772D01*
X0166060Y0032856D01*
X0166196Y0032935D01*
X0166335Y0033012D01*
X0166476Y0033084D01*
X0166618Y0033154D01*
X0166762Y0033219D01*
X0166908Y0033281D01*
X0167055Y0033339D01*
X0167204Y0033394D01*
X0167354Y0033445D01*
X0167505Y0033492D01*
X0167657Y0033535D01*
X0167810Y0033574D01*
X0167965Y0033610D01*
X0168120Y0033641D01*
X0168276Y0033669D01*
X0168432Y0033693D01*
X0168589Y0033713D01*
X0168747Y0033729D01*
X0168904Y0033741D01*
X0169063Y0033749D01*
X0169221Y0033753D01*
X0169379Y0033753D01*
X0169537Y0033749D01*
X0169696Y0033741D01*
X0169853Y0033729D01*
X0170011Y0033713D01*
X0170168Y0033693D01*
X0170324Y0033669D01*
X0170480Y0033641D01*
X0170635Y0033610D01*
X0170790Y0033574D01*
X0170943Y0033535D01*
X0171095Y0033492D01*
X0171246Y0033445D01*
X0171396Y0033394D01*
X0171545Y0033339D01*
X0171692Y0033281D01*
X0171838Y0033219D01*
X0171982Y0033154D01*
X0172124Y0033084D01*
X0172265Y0033012D01*
X0172404Y0032935D01*
X0172540Y0032856D01*
X0172675Y0032772D01*
X0172808Y0032686D01*
X0172938Y0032596D01*
X0173066Y0032503D01*
X0173192Y0032407D01*
X0173315Y0032307D01*
X0173436Y0032205D01*
X0173554Y0032100D01*
X0173669Y0031991D01*
X0173782Y0031880D01*
X0173892Y0031766D01*
X0173999Y0031649D01*
X0174103Y0031530D01*
X0174204Y0031408D01*
X0174301Y0031283D01*
X0174396Y0031156D01*
X0174487Y0031027D01*
X0174576Y0030896D01*
X0174660Y0030762D01*
X0174742Y0030626D01*
X0174820Y0030489D01*
X0174894Y0030349D01*
X0174965Y0030207D01*
X0175033Y0030064D01*
X0175097Y0029919D01*
X0175157Y0029773D01*
X0175213Y0029625D01*
X0175266Y0029476D01*
X0175315Y0029325D01*
X0175360Y0029173D01*
X0175401Y0029020D01*
X0175439Y0028867D01*
X0175472Y0028712D01*
X0175502Y0028556D01*
X0175528Y0028400D01*
X0175549Y0028243D01*
X0175567Y0028086D01*
X0175581Y0027928D01*
X0175591Y0027770D01*
X0175597Y0027612D01*
X0175599Y0027454D01*
X0175597Y0027296D01*
X0175591Y0027138D01*
X0175581Y0026980D01*
X0175567Y0026822D01*
X0175549Y0026665D01*
X0175528Y0026508D01*
X0175502Y0026352D01*
X0175472Y0026196D01*
X0175439Y0026041D01*
X0175401Y0025888D01*
X0175360Y0025735D01*
X0175315Y0025583D01*
X0175266Y0025432D01*
X0175213Y0025283D01*
X0175157Y0025135D01*
X0175097Y0024989D01*
X0175033Y0024844D01*
X0174965Y0024701D01*
X0174894Y0024559D01*
X0174820Y0024419D01*
X0174742Y0024282D01*
X0174660Y0024146D01*
X0174576Y0024012D01*
X0174487Y0023881D01*
X0174396Y0023752D01*
X0174301Y0023625D01*
X0174204Y0023500D01*
X0174103Y0023378D01*
X0173999Y0023259D01*
X0173892Y0023142D01*
X0173782Y0023028D01*
X0173669Y0022917D01*
X0173554Y0022808D01*
X0173436Y0022703D01*
X0173315Y0022601D01*
X0173192Y0022501D01*
X0173066Y0022405D01*
X0172938Y0022312D01*
X0172808Y0022222D01*
X0172675Y0022136D01*
X0172540Y0022052D01*
X0172404Y0021973D01*
X0172265Y0021896D01*
X0172124Y0021824D01*
X0171982Y0021754D01*
X0171838Y0021689D01*
X0171692Y0021627D01*
X0171545Y0021569D01*
X0171396Y0021514D01*
X0171246Y0021463D01*
X0171095Y0021416D01*
X0170943Y0021373D01*
X0170790Y0021334D01*
X0170635Y0021298D01*
X0170480Y0021267D01*
X0170324Y0021239D01*
X0170168Y0021215D01*
X0170011Y0021195D01*
X0169853Y0021179D01*
X0169696Y0021167D01*
X0169537Y0021159D01*
X0169379Y0021155D01*
X0169221Y0021155D01*
X0169063Y0021159D01*
X0168904Y0021167D01*
X0168747Y0021179D01*
X0168589Y0021195D01*
X0168432Y0021215D01*
X0168276Y0021239D01*
X0168120Y0021267D01*
X0167965Y0021298D01*
X0167810Y0021334D01*
X0167657Y0021373D01*
X0167505Y0021416D01*
X0167354Y0021463D01*
X0167204Y0021514D01*
X0167055Y0021569D01*
X0166908Y0021627D01*
X0166762Y0021689D01*
X0166618Y0021754D01*
X0166476Y0021824D01*
X0166335Y0021896D01*
X0166196Y0021973D01*
X0166060Y0022052D01*
X0165925Y0022136D01*
X0165792Y0022222D01*
X0165662Y0022312D01*
X0165534Y0022405D01*
X0165408Y0022501D01*
X0165285Y0022601D01*
X0165164Y0022703D01*
X0165046Y0022808D01*
X0164931Y0022917D01*
X0164818Y0023028D01*
X0164708Y0023142D01*
X0164601Y0023259D01*
X0164497Y0023378D01*
X0164396Y0023500D01*
X0164299Y0023625D01*
X0164204Y0023752D01*
X0164113Y0023881D01*
X0164024Y0024012D01*
X0163940Y0024146D01*
X0163858Y0024282D01*
X0163780Y0024419D01*
X0163706Y0024559D01*
X0163635Y0024701D01*
X0163567Y0024844D01*
X0163503Y0024989D01*
X0163443Y0025135D01*
X0163387Y0025283D01*
X0163334Y0025432D01*
X0163285Y0025583D01*
X0163240Y0025735D01*
X0163199Y0025888D01*
X0163161Y0026041D01*
X0163128Y0026196D01*
X0163098Y0026352D01*
X0163072Y0026508D01*
X0163051Y0026665D01*
X0163033Y0026822D01*
X0163019Y0026980D01*
X0163009Y0027138D01*
X0163003Y0027296D01*
X0163001Y0027454D01*
X0123453Y0259639D02*
X0123455Y0259747D01*
X0123461Y0259856D01*
X0123471Y0259964D01*
X0123485Y0260071D01*
X0123503Y0260178D01*
X0123524Y0260285D01*
X0123550Y0260390D01*
X0123580Y0260495D01*
X0123613Y0260598D01*
X0123650Y0260700D01*
X0123691Y0260800D01*
X0123735Y0260899D01*
X0123784Y0260997D01*
X0123835Y0261092D01*
X0123890Y0261185D01*
X0123949Y0261277D01*
X0124011Y0261366D01*
X0124076Y0261453D01*
X0124144Y0261537D01*
X0124215Y0261619D01*
X0124289Y0261698D01*
X0124366Y0261774D01*
X0124446Y0261848D01*
X0124529Y0261918D01*
X0124614Y0261986D01*
X0124701Y0262050D01*
X0124791Y0262111D01*
X0124883Y0262169D01*
X0124977Y0262223D01*
X0125073Y0262274D01*
X0125170Y0262321D01*
X0125270Y0262365D01*
X0125371Y0262405D01*
X0125473Y0262441D01*
X0125576Y0262473D01*
X0125681Y0262502D01*
X0125787Y0262526D01*
X0125893Y0262547D01*
X0126000Y0262564D01*
X0126108Y0262577D01*
X0126216Y0262586D01*
X0126325Y0262591D01*
X0126433Y0262592D01*
X0126542Y0262589D01*
X0126650Y0262582D01*
X0126758Y0262571D01*
X0126865Y0262556D01*
X0126972Y0262537D01*
X0127078Y0262514D01*
X0127183Y0262488D01*
X0127288Y0262457D01*
X0127390Y0262423D01*
X0127492Y0262385D01*
X0127592Y0262343D01*
X0127691Y0262298D01*
X0127788Y0262249D01*
X0127882Y0262196D01*
X0127975Y0262140D01*
X0128066Y0262081D01*
X0128155Y0262018D01*
X0128241Y0261953D01*
X0128325Y0261884D01*
X0128406Y0261812D01*
X0128484Y0261737D01*
X0128560Y0261659D01*
X0128633Y0261578D01*
X0128703Y0261495D01*
X0128769Y0261410D01*
X0128833Y0261322D01*
X0128893Y0261231D01*
X0128950Y0261139D01*
X0129003Y0261044D01*
X0129053Y0260948D01*
X0129099Y0260850D01*
X0129142Y0260750D01*
X0129181Y0260649D01*
X0129216Y0260546D01*
X0129248Y0260443D01*
X0129275Y0260338D01*
X0129299Y0260232D01*
X0129319Y0260125D01*
X0129335Y0260018D01*
X0129347Y0259910D01*
X0129355Y0259802D01*
X0129359Y0259693D01*
X0129359Y0259585D01*
X0129355Y0259476D01*
X0129347Y0259368D01*
X0129335Y0259260D01*
X0129319Y0259153D01*
X0129299Y0259046D01*
X0129275Y0258940D01*
X0129248Y0258835D01*
X0129216Y0258732D01*
X0129181Y0258629D01*
X0129142Y0258528D01*
X0129099Y0258428D01*
X0129053Y0258330D01*
X0129003Y0258234D01*
X0128950Y0258139D01*
X0128893Y0258047D01*
X0128833Y0257956D01*
X0128769Y0257868D01*
X0128703Y0257783D01*
X0128633Y0257700D01*
X0128560Y0257619D01*
X0128484Y0257541D01*
X0128406Y0257466D01*
X0128325Y0257394D01*
X0128241Y0257325D01*
X0128155Y0257260D01*
X0128066Y0257197D01*
X0127975Y0257138D01*
X0127883Y0257082D01*
X0127788Y0257029D01*
X0127691Y0256980D01*
X0127592Y0256935D01*
X0127492Y0256893D01*
X0127390Y0256855D01*
X0127288Y0256821D01*
X0127183Y0256790D01*
X0127078Y0256764D01*
X0126972Y0256741D01*
X0126865Y0256722D01*
X0126758Y0256707D01*
X0126650Y0256696D01*
X0126542Y0256689D01*
X0126433Y0256686D01*
X0126325Y0256687D01*
X0126216Y0256692D01*
X0126108Y0256701D01*
X0126000Y0256714D01*
X0125893Y0256731D01*
X0125787Y0256752D01*
X0125681Y0256776D01*
X0125576Y0256805D01*
X0125473Y0256837D01*
X0125371Y0256873D01*
X0125270Y0256913D01*
X0125170Y0256957D01*
X0125073Y0257004D01*
X0124977Y0257055D01*
X0124883Y0257109D01*
X0124791Y0257167D01*
X0124701Y0257228D01*
X0124614Y0257292D01*
X0124529Y0257360D01*
X0124446Y0257430D01*
X0124366Y0257504D01*
X0124289Y0257580D01*
X0124215Y0257659D01*
X0124144Y0257741D01*
X0124076Y0257825D01*
X0124011Y0257912D01*
X0123949Y0258001D01*
X0123890Y0258093D01*
X0123835Y0258186D01*
X0123784Y0258281D01*
X0123735Y0258379D01*
X0123691Y0258478D01*
X0123650Y0258578D01*
X0123613Y0258680D01*
X0123580Y0258783D01*
X0123550Y0258888D01*
X0123524Y0258993D01*
X0123503Y0259100D01*
X0123485Y0259207D01*
X0123471Y0259314D01*
X0123461Y0259422D01*
X0123455Y0259531D01*
X0123453Y0259639D01*
X0103768Y0279324D02*
X0103770Y0279432D01*
X0103776Y0279541D01*
X0103786Y0279649D01*
X0103800Y0279756D01*
X0103818Y0279863D01*
X0103839Y0279970D01*
X0103865Y0280075D01*
X0103895Y0280180D01*
X0103928Y0280283D01*
X0103965Y0280385D01*
X0104006Y0280485D01*
X0104050Y0280584D01*
X0104099Y0280682D01*
X0104150Y0280777D01*
X0104205Y0280870D01*
X0104264Y0280962D01*
X0104326Y0281051D01*
X0104391Y0281138D01*
X0104459Y0281222D01*
X0104530Y0281304D01*
X0104604Y0281383D01*
X0104681Y0281459D01*
X0104761Y0281533D01*
X0104844Y0281603D01*
X0104929Y0281671D01*
X0105016Y0281735D01*
X0105106Y0281796D01*
X0105198Y0281854D01*
X0105292Y0281908D01*
X0105388Y0281959D01*
X0105485Y0282006D01*
X0105585Y0282050D01*
X0105686Y0282090D01*
X0105788Y0282126D01*
X0105891Y0282158D01*
X0105996Y0282187D01*
X0106102Y0282211D01*
X0106208Y0282232D01*
X0106315Y0282249D01*
X0106423Y0282262D01*
X0106531Y0282271D01*
X0106640Y0282276D01*
X0106748Y0282277D01*
X0106857Y0282274D01*
X0106965Y0282267D01*
X0107073Y0282256D01*
X0107180Y0282241D01*
X0107287Y0282222D01*
X0107393Y0282199D01*
X0107498Y0282173D01*
X0107603Y0282142D01*
X0107705Y0282108D01*
X0107807Y0282070D01*
X0107907Y0282028D01*
X0108006Y0281983D01*
X0108103Y0281934D01*
X0108197Y0281881D01*
X0108290Y0281825D01*
X0108381Y0281766D01*
X0108470Y0281703D01*
X0108556Y0281638D01*
X0108640Y0281569D01*
X0108721Y0281497D01*
X0108799Y0281422D01*
X0108875Y0281344D01*
X0108948Y0281263D01*
X0109018Y0281180D01*
X0109084Y0281095D01*
X0109148Y0281007D01*
X0109208Y0280916D01*
X0109265Y0280824D01*
X0109318Y0280729D01*
X0109368Y0280633D01*
X0109414Y0280535D01*
X0109457Y0280435D01*
X0109496Y0280334D01*
X0109531Y0280231D01*
X0109563Y0280128D01*
X0109590Y0280023D01*
X0109614Y0279917D01*
X0109634Y0279810D01*
X0109650Y0279703D01*
X0109662Y0279595D01*
X0109670Y0279487D01*
X0109674Y0279378D01*
X0109674Y0279270D01*
X0109670Y0279161D01*
X0109662Y0279053D01*
X0109650Y0278945D01*
X0109634Y0278838D01*
X0109614Y0278731D01*
X0109590Y0278625D01*
X0109563Y0278520D01*
X0109531Y0278417D01*
X0109496Y0278314D01*
X0109457Y0278213D01*
X0109414Y0278113D01*
X0109368Y0278015D01*
X0109318Y0277919D01*
X0109265Y0277824D01*
X0109208Y0277732D01*
X0109148Y0277641D01*
X0109084Y0277553D01*
X0109018Y0277468D01*
X0108948Y0277385D01*
X0108875Y0277304D01*
X0108799Y0277226D01*
X0108721Y0277151D01*
X0108640Y0277079D01*
X0108556Y0277010D01*
X0108470Y0276945D01*
X0108381Y0276882D01*
X0108290Y0276823D01*
X0108198Y0276767D01*
X0108103Y0276714D01*
X0108006Y0276665D01*
X0107907Y0276620D01*
X0107807Y0276578D01*
X0107705Y0276540D01*
X0107603Y0276506D01*
X0107498Y0276475D01*
X0107393Y0276449D01*
X0107287Y0276426D01*
X0107180Y0276407D01*
X0107073Y0276392D01*
X0106965Y0276381D01*
X0106857Y0276374D01*
X0106748Y0276371D01*
X0106640Y0276372D01*
X0106531Y0276377D01*
X0106423Y0276386D01*
X0106315Y0276399D01*
X0106208Y0276416D01*
X0106102Y0276437D01*
X0105996Y0276461D01*
X0105891Y0276490D01*
X0105788Y0276522D01*
X0105686Y0276558D01*
X0105585Y0276598D01*
X0105485Y0276642D01*
X0105388Y0276689D01*
X0105292Y0276740D01*
X0105198Y0276794D01*
X0105106Y0276852D01*
X0105016Y0276913D01*
X0104929Y0276977D01*
X0104844Y0277045D01*
X0104761Y0277115D01*
X0104681Y0277189D01*
X0104604Y0277265D01*
X0104530Y0277344D01*
X0104459Y0277426D01*
X0104391Y0277510D01*
X0104326Y0277597D01*
X0104264Y0277686D01*
X0104205Y0277778D01*
X0104150Y0277871D01*
X0104099Y0277966D01*
X0104050Y0278064D01*
X0104006Y0278163D01*
X0103965Y0278263D01*
X0103928Y0278365D01*
X0103895Y0278468D01*
X0103865Y0278573D01*
X0103839Y0278678D01*
X0103818Y0278785D01*
X0103800Y0278892D01*
X0103786Y0278999D01*
X0103776Y0279107D01*
X0103770Y0279216D01*
X0103768Y0279324D01*
X0143138Y0279324D02*
X0143140Y0279432D01*
X0143146Y0279541D01*
X0143156Y0279649D01*
X0143170Y0279756D01*
X0143188Y0279863D01*
X0143209Y0279970D01*
X0143235Y0280075D01*
X0143265Y0280180D01*
X0143298Y0280283D01*
X0143335Y0280385D01*
X0143376Y0280485D01*
X0143420Y0280584D01*
X0143469Y0280682D01*
X0143520Y0280777D01*
X0143575Y0280870D01*
X0143634Y0280962D01*
X0143696Y0281051D01*
X0143761Y0281138D01*
X0143829Y0281222D01*
X0143900Y0281304D01*
X0143974Y0281383D01*
X0144051Y0281459D01*
X0144131Y0281533D01*
X0144214Y0281603D01*
X0144299Y0281671D01*
X0144386Y0281735D01*
X0144476Y0281796D01*
X0144568Y0281854D01*
X0144662Y0281908D01*
X0144758Y0281959D01*
X0144855Y0282006D01*
X0144955Y0282050D01*
X0145056Y0282090D01*
X0145158Y0282126D01*
X0145261Y0282158D01*
X0145366Y0282187D01*
X0145472Y0282211D01*
X0145578Y0282232D01*
X0145685Y0282249D01*
X0145793Y0282262D01*
X0145901Y0282271D01*
X0146010Y0282276D01*
X0146118Y0282277D01*
X0146227Y0282274D01*
X0146335Y0282267D01*
X0146443Y0282256D01*
X0146550Y0282241D01*
X0146657Y0282222D01*
X0146763Y0282199D01*
X0146868Y0282173D01*
X0146973Y0282142D01*
X0147075Y0282108D01*
X0147177Y0282070D01*
X0147277Y0282028D01*
X0147376Y0281983D01*
X0147473Y0281934D01*
X0147567Y0281881D01*
X0147660Y0281825D01*
X0147751Y0281766D01*
X0147840Y0281703D01*
X0147926Y0281638D01*
X0148010Y0281569D01*
X0148091Y0281497D01*
X0148169Y0281422D01*
X0148245Y0281344D01*
X0148318Y0281263D01*
X0148388Y0281180D01*
X0148454Y0281095D01*
X0148518Y0281007D01*
X0148578Y0280916D01*
X0148635Y0280824D01*
X0148688Y0280729D01*
X0148738Y0280633D01*
X0148784Y0280535D01*
X0148827Y0280435D01*
X0148866Y0280334D01*
X0148901Y0280231D01*
X0148933Y0280128D01*
X0148960Y0280023D01*
X0148984Y0279917D01*
X0149004Y0279810D01*
X0149020Y0279703D01*
X0149032Y0279595D01*
X0149040Y0279487D01*
X0149044Y0279378D01*
X0149044Y0279270D01*
X0149040Y0279161D01*
X0149032Y0279053D01*
X0149020Y0278945D01*
X0149004Y0278838D01*
X0148984Y0278731D01*
X0148960Y0278625D01*
X0148933Y0278520D01*
X0148901Y0278417D01*
X0148866Y0278314D01*
X0148827Y0278213D01*
X0148784Y0278113D01*
X0148738Y0278015D01*
X0148688Y0277919D01*
X0148635Y0277824D01*
X0148578Y0277732D01*
X0148518Y0277641D01*
X0148454Y0277553D01*
X0148388Y0277468D01*
X0148318Y0277385D01*
X0148245Y0277304D01*
X0148169Y0277226D01*
X0148091Y0277151D01*
X0148010Y0277079D01*
X0147926Y0277010D01*
X0147840Y0276945D01*
X0147751Y0276882D01*
X0147660Y0276823D01*
X0147568Y0276767D01*
X0147473Y0276714D01*
X0147376Y0276665D01*
X0147277Y0276620D01*
X0147177Y0276578D01*
X0147075Y0276540D01*
X0146973Y0276506D01*
X0146868Y0276475D01*
X0146763Y0276449D01*
X0146657Y0276426D01*
X0146550Y0276407D01*
X0146443Y0276392D01*
X0146335Y0276381D01*
X0146227Y0276374D01*
X0146118Y0276371D01*
X0146010Y0276372D01*
X0145901Y0276377D01*
X0145793Y0276386D01*
X0145685Y0276399D01*
X0145578Y0276416D01*
X0145472Y0276437D01*
X0145366Y0276461D01*
X0145261Y0276490D01*
X0145158Y0276522D01*
X0145056Y0276558D01*
X0144955Y0276598D01*
X0144855Y0276642D01*
X0144758Y0276689D01*
X0144662Y0276740D01*
X0144568Y0276794D01*
X0144476Y0276852D01*
X0144386Y0276913D01*
X0144299Y0276977D01*
X0144214Y0277045D01*
X0144131Y0277115D01*
X0144051Y0277189D01*
X0143974Y0277265D01*
X0143900Y0277344D01*
X0143829Y0277426D01*
X0143761Y0277510D01*
X0143696Y0277597D01*
X0143634Y0277686D01*
X0143575Y0277778D01*
X0143520Y0277871D01*
X0143469Y0277966D01*
X0143420Y0278064D01*
X0143376Y0278163D01*
X0143335Y0278263D01*
X0143298Y0278365D01*
X0143265Y0278468D01*
X0143235Y0278573D01*
X0143209Y0278678D01*
X0143188Y0278785D01*
X0143170Y0278892D01*
X0143156Y0278999D01*
X0143146Y0279107D01*
X0143140Y0279216D01*
X0143138Y0279324D01*
X0163001Y0277454D02*
X0163003Y0277612D01*
X0163009Y0277770D01*
X0163019Y0277928D01*
X0163033Y0278086D01*
X0163051Y0278243D01*
X0163072Y0278400D01*
X0163098Y0278556D01*
X0163128Y0278712D01*
X0163161Y0278867D01*
X0163199Y0279020D01*
X0163240Y0279173D01*
X0163285Y0279325D01*
X0163334Y0279476D01*
X0163387Y0279625D01*
X0163443Y0279773D01*
X0163503Y0279919D01*
X0163567Y0280064D01*
X0163635Y0280207D01*
X0163706Y0280349D01*
X0163780Y0280489D01*
X0163858Y0280626D01*
X0163940Y0280762D01*
X0164024Y0280896D01*
X0164113Y0281027D01*
X0164204Y0281156D01*
X0164299Y0281283D01*
X0164396Y0281408D01*
X0164497Y0281530D01*
X0164601Y0281649D01*
X0164708Y0281766D01*
X0164818Y0281880D01*
X0164931Y0281991D01*
X0165046Y0282100D01*
X0165164Y0282205D01*
X0165285Y0282307D01*
X0165408Y0282407D01*
X0165534Y0282503D01*
X0165662Y0282596D01*
X0165792Y0282686D01*
X0165925Y0282772D01*
X0166060Y0282856D01*
X0166196Y0282935D01*
X0166335Y0283012D01*
X0166476Y0283084D01*
X0166618Y0283154D01*
X0166762Y0283219D01*
X0166908Y0283281D01*
X0167055Y0283339D01*
X0167204Y0283394D01*
X0167354Y0283445D01*
X0167505Y0283492D01*
X0167657Y0283535D01*
X0167810Y0283574D01*
X0167965Y0283610D01*
X0168120Y0283641D01*
X0168276Y0283669D01*
X0168432Y0283693D01*
X0168589Y0283713D01*
X0168747Y0283729D01*
X0168904Y0283741D01*
X0169063Y0283749D01*
X0169221Y0283753D01*
X0169379Y0283753D01*
X0169537Y0283749D01*
X0169696Y0283741D01*
X0169853Y0283729D01*
X0170011Y0283713D01*
X0170168Y0283693D01*
X0170324Y0283669D01*
X0170480Y0283641D01*
X0170635Y0283610D01*
X0170790Y0283574D01*
X0170943Y0283535D01*
X0171095Y0283492D01*
X0171246Y0283445D01*
X0171396Y0283394D01*
X0171545Y0283339D01*
X0171692Y0283281D01*
X0171838Y0283219D01*
X0171982Y0283154D01*
X0172124Y0283084D01*
X0172265Y0283012D01*
X0172404Y0282935D01*
X0172540Y0282856D01*
X0172675Y0282772D01*
X0172808Y0282686D01*
X0172938Y0282596D01*
X0173066Y0282503D01*
X0173192Y0282407D01*
X0173315Y0282307D01*
X0173436Y0282205D01*
X0173554Y0282100D01*
X0173669Y0281991D01*
X0173782Y0281880D01*
X0173892Y0281766D01*
X0173999Y0281649D01*
X0174103Y0281530D01*
X0174204Y0281408D01*
X0174301Y0281283D01*
X0174396Y0281156D01*
X0174487Y0281027D01*
X0174576Y0280896D01*
X0174660Y0280762D01*
X0174742Y0280626D01*
X0174820Y0280489D01*
X0174894Y0280349D01*
X0174965Y0280207D01*
X0175033Y0280064D01*
X0175097Y0279919D01*
X0175157Y0279773D01*
X0175213Y0279625D01*
X0175266Y0279476D01*
X0175315Y0279325D01*
X0175360Y0279173D01*
X0175401Y0279020D01*
X0175439Y0278867D01*
X0175472Y0278712D01*
X0175502Y0278556D01*
X0175528Y0278400D01*
X0175549Y0278243D01*
X0175567Y0278086D01*
X0175581Y0277928D01*
X0175591Y0277770D01*
X0175597Y0277612D01*
X0175599Y0277454D01*
X0175597Y0277296D01*
X0175591Y0277138D01*
X0175581Y0276980D01*
X0175567Y0276822D01*
X0175549Y0276665D01*
X0175528Y0276508D01*
X0175502Y0276352D01*
X0175472Y0276196D01*
X0175439Y0276041D01*
X0175401Y0275888D01*
X0175360Y0275735D01*
X0175315Y0275583D01*
X0175266Y0275432D01*
X0175213Y0275283D01*
X0175157Y0275135D01*
X0175097Y0274989D01*
X0175033Y0274844D01*
X0174965Y0274701D01*
X0174894Y0274559D01*
X0174820Y0274419D01*
X0174742Y0274282D01*
X0174660Y0274146D01*
X0174576Y0274012D01*
X0174487Y0273881D01*
X0174396Y0273752D01*
X0174301Y0273625D01*
X0174204Y0273500D01*
X0174103Y0273378D01*
X0173999Y0273259D01*
X0173892Y0273142D01*
X0173782Y0273028D01*
X0173669Y0272917D01*
X0173554Y0272808D01*
X0173436Y0272703D01*
X0173315Y0272601D01*
X0173192Y0272501D01*
X0173066Y0272405D01*
X0172938Y0272312D01*
X0172808Y0272222D01*
X0172675Y0272136D01*
X0172540Y0272052D01*
X0172404Y0271973D01*
X0172265Y0271896D01*
X0172124Y0271824D01*
X0171982Y0271754D01*
X0171838Y0271689D01*
X0171692Y0271627D01*
X0171545Y0271569D01*
X0171396Y0271514D01*
X0171246Y0271463D01*
X0171095Y0271416D01*
X0170943Y0271373D01*
X0170790Y0271334D01*
X0170635Y0271298D01*
X0170480Y0271267D01*
X0170324Y0271239D01*
X0170168Y0271215D01*
X0170011Y0271195D01*
X0169853Y0271179D01*
X0169696Y0271167D01*
X0169537Y0271159D01*
X0169379Y0271155D01*
X0169221Y0271155D01*
X0169063Y0271159D01*
X0168904Y0271167D01*
X0168747Y0271179D01*
X0168589Y0271195D01*
X0168432Y0271215D01*
X0168276Y0271239D01*
X0168120Y0271267D01*
X0167965Y0271298D01*
X0167810Y0271334D01*
X0167657Y0271373D01*
X0167505Y0271416D01*
X0167354Y0271463D01*
X0167204Y0271514D01*
X0167055Y0271569D01*
X0166908Y0271627D01*
X0166762Y0271689D01*
X0166618Y0271754D01*
X0166476Y0271824D01*
X0166335Y0271896D01*
X0166196Y0271973D01*
X0166060Y0272052D01*
X0165925Y0272136D01*
X0165792Y0272222D01*
X0165662Y0272312D01*
X0165534Y0272405D01*
X0165408Y0272501D01*
X0165285Y0272601D01*
X0165164Y0272703D01*
X0165046Y0272808D01*
X0164931Y0272917D01*
X0164818Y0273028D01*
X0164708Y0273142D01*
X0164601Y0273259D01*
X0164497Y0273378D01*
X0164396Y0273500D01*
X0164299Y0273625D01*
X0164204Y0273752D01*
X0164113Y0273881D01*
X0164024Y0274012D01*
X0163940Y0274146D01*
X0163858Y0274282D01*
X0163780Y0274419D01*
X0163706Y0274559D01*
X0163635Y0274701D01*
X0163567Y0274844D01*
X0163503Y0274989D01*
X0163443Y0275135D01*
X0163387Y0275283D01*
X0163334Y0275432D01*
X0163285Y0275583D01*
X0163240Y0275735D01*
X0163199Y0275888D01*
X0163161Y0276041D01*
X0163128Y0276196D01*
X0163098Y0276352D01*
X0163072Y0276508D01*
X0163051Y0276665D01*
X0163033Y0276822D01*
X0163019Y0276980D01*
X0163009Y0277138D01*
X0163003Y0277296D01*
X0163001Y0277454D01*
X0013001Y0277454D02*
X0013003Y0277612D01*
X0013009Y0277770D01*
X0013019Y0277928D01*
X0013033Y0278086D01*
X0013051Y0278243D01*
X0013072Y0278400D01*
X0013098Y0278556D01*
X0013128Y0278712D01*
X0013161Y0278867D01*
X0013199Y0279020D01*
X0013240Y0279173D01*
X0013285Y0279325D01*
X0013334Y0279476D01*
X0013387Y0279625D01*
X0013443Y0279773D01*
X0013503Y0279919D01*
X0013567Y0280064D01*
X0013635Y0280207D01*
X0013706Y0280349D01*
X0013780Y0280489D01*
X0013858Y0280626D01*
X0013940Y0280762D01*
X0014024Y0280896D01*
X0014113Y0281027D01*
X0014204Y0281156D01*
X0014299Y0281283D01*
X0014396Y0281408D01*
X0014497Y0281530D01*
X0014601Y0281649D01*
X0014708Y0281766D01*
X0014818Y0281880D01*
X0014931Y0281991D01*
X0015046Y0282100D01*
X0015164Y0282205D01*
X0015285Y0282307D01*
X0015408Y0282407D01*
X0015534Y0282503D01*
X0015662Y0282596D01*
X0015792Y0282686D01*
X0015925Y0282772D01*
X0016060Y0282856D01*
X0016196Y0282935D01*
X0016335Y0283012D01*
X0016476Y0283084D01*
X0016618Y0283154D01*
X0016762Y0283219D01*
X0016908Y0283281D01*
X0017055Y0283339D01*
X0017204Y0283394D01*
X0017354Y0283445D01*
X0017505Y0283492D01*
X0017657Y0283535D01*
X0017810Y0283574D01*
X0017965Y0283610D01*
X0018120Y0283641D01*
X0018276Y0283669D01*
X0018432Y0283693D01*
X0018589Y0283713D01*
X0018747Y0283729D01*
X0018904Y0283741D01*
X0019063Y0283749D01*
X0019221Y0283753D01*
X0019379Y0283753D01*
X0019537Y0283749D01*
X0019696Y0283741D01*
X0019853Y0283729D01*
X0020011Y0283713D01*
X0020168Y0283693D01*
X0020324Y0283669D01*
X0020480Y0283641D01*
X0020635Y0283610D01*
X0020790Y0283574D01*
X0020943Y0283535D01*
X0021095Y0283492D01*
X0021246Y0283445D01*
X0021396Y0283394D01*
X0021545Y0283339D01*
X0021692Y0283281D01*
X0021838Y0283219D01*
X0021982Y0283154D01*
X0022124Y0283084D01*
X0022265Y0283012D01*
X0022404Y0282935D01*
X0022540Y0282856D01*
X0022675Y0282772D01*
X0022808Y0282686D01*
X0022938Y0282596D01*
X0023066Y0282503D01*
X0023192Y0282407D01*
X0023315Y0282307D01*
X0023436Y0282205D01*
X0023554Y0282100D01*
X0023669Y0281991D01*
X0023782Y0281880D01*
X0023892Y0281766D01*
X0023999Y0281649D01*
X0024103Y0281530D01*
X0024204Y0281408D01*
X0024301Y0281283D01*
X0024396Y0281156D01*
X0024487Y0281027D01*
X0024576Y0280896D01*
X0024660Y0280762D01*
X0024742Y0280626D01*
X0024820Y0280489D01*
X0024894Y0280349D01*
X0024965Y0280207D01*
X0025033Y0280064D01*
X0025097Y0279919D01*
X0025157Y0279773D01*
X0025213Y0279625D01*
X0025266Y0279476D01*
X0025315Y0279325D01*
X0025360Y0279173D01*
X0025401Y0279020D01*
X0025439Y0278867D01*
X0025472Y0278712D01*
X0025502Y0278556D01*
X0025528Y0278400D01*
X0025549Y0278243D01*
X0025567Y0278086D01*
X0025581Y0277928D01*
X0025591Y0277770D01*
X0025597Y0277612D01*
X0025599Y0277454D01*
X0025597Y0277296D01*
X0025591Y0277138D01*
X0025581Y0276980D01*
X0025567Y0276822D01*
X0025549Y0276665D01*
X0025528Y0276508D01*
X0025502Y0276352D01*
X0025472Y0276196D01*
X0025439Y0276041D01*
X0025401Y0275888D01*
X0025360Y0275735D01*
X0025315Y0275583D01*
X0025266Y0275432D01*
X0025213Y0275283D01*
X0025157Y0275135D01*
X0025097Y0274989D01*
X0025033Y0274844D01*
X0024965Y0274701D01*
X0024894Y0274559D01*
X0024820Y0274419D01*
X0024742Y0274282D01*
X0024660Y0274146D01*
X0024576Y0274012D01*
X0024487Y0273881D01*
X0024396Y0273752D01*
X0024301Y0273625D01*
X0024204Y0273500D01*
X0024103Y0273378D01*
X0023999Y0273259D01*
X0023892Y0273142D01*
X0023782Y0273028D01*
X0023669Y0272917D01*
X0023554Y0272808D01*
X0023436Y0272703D01*
X0023315Y0272601D01*
X0023192Y0272501D01*
X0023066Y0272405D01*
X0022938Y0272312D01*
X0022808Y0272222D01*
X0022675Y0272136D01*
X0022540Y0272052D01*
X0022404Y0271973D01*
X0022265Y0271896D01*
X0022124Y0271824D01*
X0021982Y0271754D01*
X0021838Y0271689D01*
X0021692Y0271627D01*
X0021545Y0271569D01*
X0021396Y0271514D01*
X0021246Y0271463D01*
X0021095Y0271416D01*
X0020943Y0271373D01*
X0020790Y0271334D01*
X0020635Y0271298D01*
X0020480Y0271267D01*
X0020324Y0271239D01*
X0020168Y0271215D01*
X0020011Y0271195D01*
X0019853Y0271179D01*
X0019696Y0271167D01*
X0019537Y0271159D01*
X0019379Y0271155D01*
X0019221Y0271155D01*
X0019063Y0271159D01*
X0018904Y0271167D01*
X0018747Y0271179D01*
X0018589Y0271195D01*
X0018432Y0271215D01*
X0018276Y0271239D01*
X0018120Y0271267D01*
X0017965Y0271298D01*
X0017810Y0271334D01*
X0017657Y0271373D01*
X0017505Y0271416D01*
X0017354Y0271463D01*
X0017204Y0271514D01*
X0017055Y0271569D01*
X0016908Y0271627D01*
X0016762Y0271689D01*
X0016618Y0271754D01*
X0016476Y0271824D01*
X0016335Y0271896D01*
X0016196Y0271973D01*
X0016060Y0272052D01*
X0015925Y0272136D01*
X0015792Y0272222D01*
X0015662Y0272312D01*
X0015534Y0272405D01*
X0015408Y0272501D01*
X0015285Y0272601D01*
X0015164Y0272703D01*
X0015046Y0272808D01*
X0014931Y0272917D01*
X0014818Y0273028D01*
X0014708Y0273142D01*
X0014601Y0273259D01*
X0014497Y0273378D01*
X0014396Y0273500D01*
X0014299Y0273625D01*
X0014204Y0273752D01*
X0014113Y0273881D01*
X0014024Y0274012D01*
X0013940Y0274146D01*
X0013858Y0274282D01*
X0013780Y0274419D01*
X0013706Y0274559D01*
X0013635Y0274701D01*
X0013567Y0274844D01*
X0013503Y0274989D01*
X0013443Y0275135D01*
X0013387Y0275283D01*
X0013334Y0275432D01*
X0013285Y0275583D01*
X0013240Y0275735D01*
X0013199Y0275888D01*
X0013161Y0276041D01*
X0013128Y0276196D01*
X0013098Y0276352D01*
X0013072Y0276508D01*
X0013051Y0276665D01*
X0013033Y0276822D01*
X0013019Y0276980D01*
X0013009Y0277138D01*
X0013003Y0277296D01*
X0013001Y0277454D01*
M02*
